<svg xmlns="http://www.w3.org/2000/svg" width="1096" height="287" viewBox="0 0 1096 287" fill="none"><rect x="204.5" y="0.499756" width="185" height="84" rx="15.4375" fill="#F4FAFE"></rect><path d="M242.412 38.605C242.331 37.8907 241.999 37.3373 241.416 36.9449C240.832 36.5475 240.098 36.3487 239.212 36.3487C238.579 36.3487 238.03 36.4494 237.567 36.6506C237.105 36.8468 236.745 37.1185 236.488 37.4656C236.237 37.8077 236.111 38.1976 236.111 38.6352C236.111 39.0025 236.196 39.3194 236.368 39.586C236.544 39.8527 236.772 40.0765 237.054 40.2577C237.341 40.4337 237.648 40.5821 237.975 40.7029C238.302 40.8186 238.616 40.9142 238.918 40.9896L240.427 41.382C240.92 41.5028 241.426 41.6663 241.944 41.8725C242.462 42.0788 242.943 42.3505 243.385 42.6875C243.828 43.0246 244.185 43.4421 244.457 43.9402C244.734 44.4382 244.872 45.0344 244.872 45.7286C244.872 46.604 244.646 47.3812 244.193 48.0604C243.745 48.7395 243.094 49.2753 242.238 49.6677C241.388 50.0601 240.359 50.2563 239.152 50.2563C237.995 50.2563 236.994 50.0727 236.149 49.7055C235.304 49.3382 234.642 48.8175 234.164 48.1434C233.686 47.4642 233.422 46.6593 233.372 45.7286H235.711C235.756 46.287 235.937 46.7524 236.254 47.1247C236.576 47.4919 236.986 47.7661 237.484 47.9472C237.987 48.1233 238.538 48.2113 239.137 48.2113C239.796 48.2113 240.382 48.1082 240.895 47.9019C241.413 47.6906 241.821 47.3988 242.118 47.0266C242.415 46.6493 242.563 46.2091 242.563 45.706C242.563 45.2482 242.432 44.8734 242.171 44.5816C241.914 44.2898 241.564 44.0483 241.122 43.8572C240.684 43.666 240.188 43.4975 239.635 43.3516L237.809 42.8535C236.571 42.5165 235.59 42.0209 234.866 41.3669C234.146 40.7129 233.787 39.8476 233.787 38.7711C233.787 37.8806 234.028 37.1034 234.511 36.4393C234.994 35.7752 235.648 35.2596 236.473 34.8923C237.298 34.5201 238.229 34.3339 239.265 34.3339C240.312 34.3339 241.235 34.5175 242.035 34.8848C242.84 35.252 243.473 35.7576 243.936 36.4016C244.399 37.0405 244.641 37.775 244.661 38.605H242.412ZM247.477 54.3463V38.4088H249.681V40.2878H249.869C250 40.0464 250.189 39.7672 250.435 39.4502C250.682 39.1333 251.024 38.8566 251.462 38.6201C251.899 38.3787 252.478 38.2579 253.197 38.2579C254.133 38.2579 254.968 38.4944 255.703 38.9673C256.437 39.4402 257.013 40.1218 257.431 41.0123C257.853 41.9027 258.065 42.9743 258.065 44.2269C258.065 45.4796 257.856 46.5537 257.438 47.4492C257.021 48.3396 256.447 49.0263 255.718 49.5093C254.988 49.9872 254.156 50.2261 253.22 50.2261C252.516 50.2261 251.94 50.1079 251.492 49.8715C251.049 49.635 250.702 49.3583 250.451 49.0414C250.199 48.7245 250.005 48.4427 249.869 48.1962H249.734V54.3463H247.477ZM249.688 44.2043C249.688 45.0193 249.807 45.7337 250.043 46.3474C250.279 46.9612 250.622 47.4416 251.069 47.7887C251.517 48.1308 252.065 48.3019 252.714 48.3019C253.389 48.3019 253.952 48.1233 254.405 47.7661C254.857 47.4039 255.2 46.9134 255.431 46.2946C255.667 45.6758 255.786 44.979 255.786 44.2043C255.786 43.4396 255.67 42.7529 255.439 42.1442C255.212 41.5355 254.87 41.055 254.412 40.7029C253.96 40.3507 253.394 40.1746 252.714 40.1746C252.06 40.1746 251.507 40.3432 251.054 40.6802C250.606 41.0173 250.267 41.4877 250.036 42.0914C249.804 42.6951 249.688 43.3994 249.688 44.2043ZM260.593 49.9998V38.4088H262.773V40.2501H262.894C263.105 39.6263 263.478 39.1358 264.011 38.7786C264.549 38.4164 265.158 38.2353 265.837 38.2353C265.978 38.2353 266.144 38.2403 266.335 38.2504C266.531 38.2604 266.685 38.273 266.796 38.2881V40.4463C266.705 40.4212 266.544 40.3935 266.313 40.3633C266.081 40.3281 265.85 40.3105 265.618 40.3105C265.085 40.3105 264.61 40.4237 264.192 40.6501C263.78 40.8714 263.453 41.1808 263.211 41.5782C262.97 41.9706 262.849 42.4184 262.849 42.9215V49.9998H260.593ZM273.329 50.2337C272.187 50.2337 271.203 49.9897 270.378 49.5017C269.558 49.0087 268.924 48.317 268.476 47.4265C268.034 46.531 267.812 45.4821 267.812 44.2798C267.812 43.0925 268.034 42.0461 268.476 41.1406C268.924 40.235 269.548 39.5282 270.348 39.0201C271.153 38.512 272.094 38.2579 273.17 38.2579C273.824 38.2579 274.458 38.3661 275.072 38.5824C275.686 38.7987 276.236 39.1383 276.724 39.6011C277.212 40.064 277.597 40.6651 277.879 41.4047C278.161 42.1392 278.302 43.0321 278.302 44.0836V44.8835H269.088V43.1931H276.091C276.091 42.5995 275.97 42.0738 275.728 41.616C275.487 41.1531 275.147 40.7884 274.71 40.5218C274.277 40.2551 273.769 40.1218 273.185 40.1218C272.551 40.1218 271.998 40.2778 271.525 40.5897C271.057 40.8966 270.695 41.299 270.438 41.7971C270.187 42.2901 270.061 42.8259 270.061 43.4044V44.725C270.061 45.4997 270.197 46.1588 270.469 46.7021C270.745 47.2454 271.13 47.6604 271.623 47.9472C272.116 48.2289 272.692 48.3698 273.351 48.3698C273.779 48.3698 274.169 48.3094 274.521 48.1887C274.873 48.0629 275.177 47.8768 275.434 47.6303C275.691 47.3838 275.887 47.0794 276.023 46.7172L278.158 47.102C277.987 47.7309 277.68 48.2817 277.238 48.7546C276.8 49.2225 276.249 49.5872 275.585 49.8488C274.926 50.1054 274.174 50.2337 273.329 50.2337ZM284.178 50.2563C283.444 50.2563 282.78 50.1205 282.186 49.8488C281.592 49.5721 281.122 49.1722 280.775 48.649C280.433 48.1258 280.262 47.4844 280.262 46.7247C280.262 46.0707 280.387 45.5324 280.639 45.1098C280.891 44.6873 281.23 44.3527 281.658 44.1062C282.085 43.8597 282.563 43.6736 283.091 43.5478C283.62 43.422 284.158 43.3264 284.706 43.261C285.401 43.1805 285.964 43.1151 286.397 43.0648C286.829 43.0095 287.144 42.9215 287.34 42.8007C287.536 42.68 287.634 42.4838 287.634 42.2121V42.1593C287.634 41.5003 287.448 40.9896 287.076 40.6274C286.709 40.2652 286.16 40.0841 285.431 40.0841C284.671 40.0841 284.072 40.2526 283.635 40.5897C283.202 40.9217 282.903 41.2915 282.737 41.699L280.616 41.216C280.868 40.5117 281.235 39.9432 281.718 39.5106C282.206 39.0729 282.767 38.756 283.401 38.5598C284.035 38.3585 284.701 38.2579 285.401 38.2579C285.863 38.2579 286.354 38.3133 286.872 38.4239C287.395 38.5296 287.883 38.7258 288.336 39.0125C288.794 39.2993 289.169 39.7093 289.46 40.2426C289.752 40.7708 289.898 41.4575 289.898 42.3027V49.9998H287.695V48.4151H287.604C287.458 48.7068 287.239 48.9936 286.948 49.2753C286.656 49.557 286.281 49.791 285.823 49.9771C285.365 50.1633 284.817 50.2563 284.178 50.2563ZM284.669 48.4452C285.292 48.4452 285.826 48.322 286.268 48.0755C286.716 47.829 287.056 47.507 287.287 47.1096C287.524 46.7071 287.642 46.277 287.642 45.8192V44.325C287.561 44.4055 287.405 44.481 287.174 44.5514C286.948 44.6168 286.688 44.6747 286.397 44.725C286.105 44.7703 285.821 44.813 285.544 44.8533C285.267 44.8885 285.036 44.9187 284.85 44.9438C284.412 44.9992 284.012 45.0922 283.65 45.223C283.293 45.3538 283.006 45.5425 282.79 45.789C282.578 46.0305 282.473 46.3524 282.473 46.7549C282.473 47.3133 282.679 47.7359 283.091 48.0227C283.504 48.3044 284.03 48.4452 284.669 48.4452ZM297.242 50.2261C296.307 50.2261 295.472 49.9872 294.737 49.5093C294.008 49.0263 293.434 48.3396 293.017 47.4492C292.604 46.5537 292.398 45.4796 292.398 44.2269C292.398 42.9743 292.607 41.9027 293.024 41.0123C293.447 40.1218 294.025 39.4402 294.76 38.9673C295.494 38.4944 296.327 38.2579 297.258 38.2579C297.977 38.2579 298.555 38.3787 298.993 38.6201C299.436 38.8566 299.778 39.1333 300.019 39.4502C300.266 39.7672 300.457 40.0464 300.593 40.2878H300.729V34.5452H302.985V49.9998H300.782V48.1962H300.593C300.457 48.4427 300.261 48.7245 300.004 49.0414C299.753 49.3583 299.406 49.635 298.963 49.8715C298.52 50.1079 297.947 50.2261 297.242 50.2261ZM297.74 48.3019C298.389 48.3019 298.938 48.1308 299.386 47.7887C299.838 47.4416 300.18 46.9612 300.412 46.3474C300.648 45.7337 300.766 45.0193 300.766 44.2043C300.766 43.3994 300.651 42.6951 300.419 42.0914C300.188 41.4877 299.848 41.0173 299.401 40.6802C298.953 40.3432 298.399 40.1746 297.74 40.1746C297.061 40.1746 296.495 40.3507 296.043 40.7029C295.59 41.055 295.248 41.5355 295.016 42.1442C294.79 42.7529 294.677 43.4396 294.677 44.2043C294.677 44.979 294.792 45.6758 295.024 46.2946C295.255 46.9134 295.597 47.4039 296.05 47.7661C296.508 48.1233 297.071 48.3019 297.74 48.3019ZM314.891 41.2387L312.846 41.6009C312.76 41.3393 312.625 41.0903 312.439 40.8538C312.257 40.6174 312.011 40.4237 311.699 40.2727C311.387 40.1218 310.997 40.0464 310.529 40.0464C309.89 40.0464 309.357 40.1897 308.93 40.4765C308.502 40.7582 308.288 41.123 308.288 41.5707C308.288 41.9581 308.431 42.27 308.718 42.5064C309.005 42.7429 309.468 42.9365 310.107 43.0875L311.948 43.5101C313.015 43.7566 313.809 44.1364 314.333 44.6495C314.856 45.1627 315.117 45.8292 315.117 46.6493C315.117 47.3435 314.916 47.9623 314.514 48.5056C314.116 49.0439 313.56 49.4665 312.846 49.7734C312.137 50.0802 311.314 50.2337 310.378 50.2337C309.08 50.2337 308.021 49.957 307.201 49.4036C306.381 48.8452 305.878 48.0528 305.692 47.0266L307.873 46.6945C308.009 47.263 308.288 47.6931 308.711 47.9849C309.133 48.2717 309.684 48.4151 310.363 48.4151C311.103 48.4151 311.694 48.2616 312.137 47.9547C312.579 47.6428 312.801 47.263 312.801 46.8153C312.801 46.4531 312.665 46.1487 312.393 45.9022C312.127 45.6557 311.717 45.4695 311.163 45.3438L309.201 44.9136C308.12 44.6671 307.32 44.2747 306.802 43.7364C306.288 43.1981 306.032 42.5165 306.032 41.6914C306.032 41.0072 306.223 40.4086 306.605 39.8954C306.988 39.3823 307.516 38.9824 308.19 38.6956C308.864 38.4038 309.636 38.2579 310.507 38.2579C311.759 38.2579 312.745 38.5296 313.465 39.0729C314.184 39.6112 314.66 40.3331 314.891 41.2387ZM319.855 43.1177V49.9998H317.598V34.5452H319.824V40.2954H319.968C320.239 39.6716 320.654 39.176 321.213 38.8088C321.771 38.4415 322.501 38.2579 323.401 38.2579C324.196 38.2579 324.89 38.4214 325.484 38.7484C326.083 39.0754 326.545 39.5634 326.872 40.2124C327.204 40.8563 327.37 41.6612 327.37 42.6272V49.9998H325.114V42.8988C325.114 42.0486 324.895 41.3896 324.458 40.9217C324.02 40.4488 323.411 40.2124 322.631 40.2124C322.098 40.2124 321.62 40.3256 321.198 40.552C320.78 40.7783 320.451 41.1104 320.209 41.5481C319.973 41.9807 319.855 42.5039 319.855 43.1177ZM335.377 50.2337C334.235 50.2337 333.251 49.9897 332.426 49.5017C331.606 49.0087 330.973 48.317 330.525 47.4265C330.082 46.531 329.861 45.4821 329.861 44.2798C329.861 43.0925 330.082 42.0461 330.525 41.1406C330.973 40.235 331.596 39.5282 332.396 39.0201C333.201 38.512 334.142 38.2579 335.218 38.2579C335.872 38.2579 336.506 38.3661 337.12 38.5824C337.734 38.7987 338.285 39.1383 338.773 39.6011C339.261 40.064 339.646 40.6651 339.927 41.4047C340.209 42.1392 340.35 43.0321 340.35 44.0836V44.8835H331.136V43.1931H338.139C338.139 42.5995 338.018 42.0738 337.777 41.616C337.535 41.1531 337.196 40.7884 336.758 40.5218C336.325 40.2551 335.817 40.1218 335.234 40.1218C334.6 40.1218 334.046 40.2778 333.573 40.5897C333.106 40.8966 332.743 41.299 332.487 41.7971C332.235 42.2901 332.109 42.8259 332.109 43.4044V44.725C332.109 45.4997 332.245 46.1588 332.517 46.7021C332.794 47.2454 333.179 47.6604 333.672 47.9472C334.165 48.2289 334.741 48.3698 335.4 48.3698C335.827 48.3698 336.217 48.3094 336.569 48.1887C336.921 48.0629 337.226 47.8768 337.482 47.6303C337.739 47.3838 337.935 47.0794 338.071 46.7172L340.207 47.102C340.035 47.7309 339.729 48.2817 339.286 48.7546C338.848 49.2225 338.297 49.5872 337.633 49.8488C336.974 50.1054 336.222 50.2337 335.377 50.2337ZM347.849 50.2337C346.707 50.2337 345.723 49.9897 344.898 49.5017C344.078 49.0087 343.444 48.317 342.997 47.4265C342.554 46.531 342.333 45.4821 342.333 44.2798C342.333 43.0925 342.554 42.0461 342.997 41.1406C343.444 40.235 344.068 39.5282 344.868 39.0201C345.673 38.512 346.614 38.2579 347.69 38.2579C348.344 38.2579 348.978 38.3661 349.592 38.5824C350.206 38.7987 350.757 39.1383 351.245 39.6011C351.733 40.064 352.118 40.6651 352.399 41.4047C352.681 42.1392 352.822 43.0321 352.822 44.0836V44.8835H343.608V43.1931H350.611C350.611 42.5995 350.49 42.0738 350.249 41.616C350.007 41.1531 349.668 40.7884 349.23 40.5218C348.797 40.2551 348.289 40.1218 347.706 40.1218C347.072 40.1218 346.518 40.2778 346.045 40.5897C345.577 40.8966 345.215 41.299 344.959 41.7971C344.707 42.2901 344.581 42.8259 344.581 43.4044V44.725C344.581 45.4997 344.717 46.1588 344.989 46.7021C345.266 47.2454 345.65 47.6604 346.143 47.9472C346.636 48.2289 347.212 48.3698 347.872 48.3698C348.299 48.3698 348.689 48.3094 349.041 48.1887C349.393 48.0629 349.698 47.8768 349.954 47.6303C350.211 47.3838 350.407 47.0794 350.543 46.7172L352.678 47.102C352.507 47.7309 352.201 48.2817 351.758 48.7546C351.32 49.2225 350.769 49.5872 350.105 49.8488C349.446 50.1054 348.694 50.2337 347.849 50.2337ZM360.736 38.4088V40.2199H354.405V38.4088H360.736ZM356.103 35.6319H358.359V46.5964C358.359 47.0341 358.424 47.3636 358.555 47.585C358.686 47.8013 358.854 47.9497 359.061 48.0302C359.272 48.1057 359.501 48.1434 359.747 48.1434C359.928 48.1434 360.087 48.1308 360.223 48.1057C360.359 48.0805 360.464 48.0604 360.54 48.0453L360.947 49.9092C360.816 49.9595 360.63 50.0098 360.389 50.0601C360.147 50.1155 359.845 50.1456 359.483 50.1507C358.89 50.1607 358.336 50.0551 357.823 49.8337C357.31 49.6124 356.895 49.2703 356.578 48.8075C356.261 48.3446 356.103 47.7636 356.103 47.0643V35.6319Z" fill="#1A99E0"></path><rect x="204.5" y="0.499756" width="185" height="84" rx="15.4375" stroke="#E8F5FC"></rect><rect x="405.5" y="0.5" width="185" height="84" rx="15.4375" fill="#68B682"></rect><path d="M484.464 50.0002V34.5457H486.796V41.2618H494.5V34.5457H496.84V50.0002H494.5V43.2615H486.796V50.0002H484.464ZM500.235 50.0002V34.5457H505.744C506.942 34.5457 507.935 34.752 508.725 35.1645C509.52 35.577 510.113 36.148 510.506 36.8775C510.898 37.6019 511.094 38.4395 511.094 39.3903C511.094 40.3361 510.896 41.1687 510.498 41.8881C510.106 42.6025 509.512 43.1584 508.717 43.5558C507.928 43.9533 506.934 44.152 505.737 44.152H501.564V42.1447H505.525C506.28 42.1447 506.894 42.0365 507.367 41.8202C507.845 41.6039 508.194 41.2895 508.416 40.8769C508.637 40.4644 508.748 39.9689 508.748 39.3903C508.748 38.8068 508.634 38.3012 508.408 37.8736C508.187 37.4459 507.837 37.1189 507.359 36.8926C506.886 36.6611 506.265 36.5454 505.495 36.5454H502.567V50.0002H500.235ZM507.865 43.0276L511.683 50.0002H509.027L505.284 43.0276H507.865Z" fill="white"></path><rect x="405.5" y="0.5" width="185" height="84" rx="15.4375" stroke="#238744"></rect><rect x="607.25" y="0.499756" width="84" height="84" rx="15.4375" fill="#FBFBFB"></rect><rect x="607.25" y="0.499756" width="84" height="84" rx="15.4375" stroke="#F7F7F7"></rect><rect x="809.25" y="0.5" width="84" height="84" rx="15.4375" fill="#F4FAFE"></rect><path d="M826.106 50.2188V34.7642H835.795V36.7715H828.437V41.4803H835.289V43.48H828.437V48.2115H835.885V50.2188H826.106ZM840.509 38.6278L843.067 43.1404L845.648 38.6278H848.116L844.501 44.4233L848.146 50.2188H845.678L843.067 45.8873L840.464 50.2188H837.989L841.596 44.4233L838.034 38.6278H840.509ZM854.858 50.4527C853.737 50.4527 852.771 50.1986 851.961 49.6905C851.156 49.1774 850.537 48.4706 850.104 47.57C849.672 46.6695 849.455 45.6382 849.455 44.4761C849.455 43.2989 849.677 42.2601 850.119 41.3596C850.562 40.454 851.186 39.7472 851.991 39.2391C852.796 38.731 853.744 38.4769 854.836 38.4769C855.716 38.4769 856.501 38.6404 857.19 38.9674C857.879 39.2894 858.435 39.7422 858.858 40.3257C859.285 40.9093 859.54 41.591 859.62 42.3707H857.424C857.303 41.8274 857.027 41.3596 856.594 40.9672C856.166 40.5748 855.593 40.3786 854.873 40.3786C854.245 40.3786 853.694 40.5446 853.221 40.8766C852.753 41.2036 852.388 41.6715 852.127 42.2802C851.865 42.8839 851.734 43.5982 851.734 44.4233C851.734 45.2685 851.863 45.9979 852.119 46.6117C852.376 47.2254 852.738 47.7008 853.206 48.0379C853.679 48.375 854.235 48.5435 854.873 48.5435C855.301 48.5435 855.688 48.4655 856.036 48.3096C856.388 48.1486 856.682 47.9197 856.918 47.6229C857.16 47.3261 857.328 46.9689 857.424 46.5513H859.62C859.54 47.3009 859.296 47.97 858.888 48.5586C858.481 49.1472 857.935 49.61 857.251 49.9471C856.571 50.2842 855.774 50.4527 854.858 50.4527ZM867.028 50.4527C865.886 50.4527 864.903 50.2087 864.078 49.7207C863.258 49.2277 862.624 48.536 862.176 47.6455C861.734 46.75 861.512 45.7011 861.512 44.4988C861.512 43.3115 861.734 42.2651 862.176 41.3596C862.624 40.454 863.248 39.7472 864.048 39.2391C864.853 38.731 865.793 38.4769 866.87 38.4769C867.524 38.4769 868.158 38.5851 868.772 38.8014C869.385 39.0177 869.936 39.3573 870.424 39.8201C870.912 40.283 871.297 40.8841 871.579 41.6237C871.861 42.3582 872.001 43.2511 872.001 44.3026V45.1025H862.788V43.4121H869.79C869.79 42.8185 869.67 42.2928 869.428 41.835C869.187 41.3721 868.847 41.0074 868.409 40.7408C867.977 40.4741 867.469 40.3408 866.885 40.3408C866.251 40.3408 865.698 40.4968 865.225 40.8087C864.757 41.1156 864.395 41.518 864.138 42.0161C863.887 42.5091 863.761 43.0449 863.761 43.6234V44.944C863.761 45.7187 863.897 46.3778 864.168 46.9211C864.445 47.4644 864.83 47.8794 865.323 48.1662C865.816 48.4479 866.392 48.5888 867.051 48.5888C867.479 48.5888 867.869 48.5284 868.221 48.4077C868.573 48.2819 868.877 48.0958 869.134 47.8493C869.39 47.6027 869.587 47.2984 869.722 46.9362L871.858 47.321C871.687 47.9499 871.38 48.5007 870.937 48.9736C870.5 49.4415 869.949 49.8062 869.285 50.0678C868.626 50.3244 867.874 50.4527 867.028 50.4527ZM876.761 34.7642V50.2188H874.505V34.7642H876.761Z" fill="#1A99E0"></path><rect x="809.25" y="0.5" width="84" height="84" rx="15.4375" stroke="#E8F5FC"></rect><rect x="910.5" y="100.5" width="84" height="84" rx="15.4375" fill="#FBFBFB"></rect><path d="M941.626 138.605C941.545 137.891 941.213 137.338 940.63 136.945C940.046 136.548 939.312 136.349 938.426 136.349C937.793 136.349 937.244 136.45 936.781 136.651C936.319 136.847 935.959 137.119 935.702 137.466C935.451 137.808 935.325 138.198 935.325 138.635C935.325 139.003 935.41 139.32 935.581 139.586C935.758 139.853 935.986 140.077 936.268 140.258C936.555 140.434 936.862 140.582 937.189 140.703C937.516 140.819 937.83 140.914 938.132 140.99L939.641 141.382C940.134 141.503 940.64 141.667 941.158 141.873C941.676 142.079 942.157 142.351 942.599 142.688C943.042 143.025 943.399 143.442 943.671 143.94C943.948 144.438 944.086 145.035 944.086 145.729C944.086 146.604 943.86 147.381 943.407 148.061C942.959 148.74 942.308 149.276 941.452 149.668C940.602 150.06 939.573 150.257 938.366 150.257C937.209 150.257 936.208 150.073 935.363 149.706C934.517 149.338 933.856 148.818 933.378 148.144C932.9 147.464 932.636 146.66 932.586 145.729H934.925C934.97 146.287 935.151 146.753 935.468 147.125C935.79 147.492 936.2 147.766 936.698 147.947C937.201 148.124 937.752 148.212 938.351 148.212C939.01 148.212 939.596 148.108 940.109 147.902C940.627 147.691 941.035 147.399 941.332 147.027C941.628 146.65 941.777 146.209 941.777 145.706C941.777 145.248 941.646 144.874 941.384 144.582C941.128 144.29 940.778 144.049 940.336 143.857C939.898 143.666 939.402 143.498 938.849 143.352L937.023 142.854C935.785 142.517 934.804 142.021 934.08 141.367C933.36 140.713 933.001 139.848 933.001 138.771C933.001 137.881 933.242 137.104 933.725 136.44C934.208 135.775 934.862 135.26 935.687 134.893C936.512 134.52 937.443 134.334 938.479 134.334C939.526 134.334 940.449 134.518 941.249 134.885C942.054 135.252 942.687 135.758 943.15 136.402C943.613 137.041 943.855 137.775 943.875 138.605H941.626ZM952.555 144.989H954.849L956.464 147.095L957.226 148.03L959.799 151.388H957.414L955.694 149.147L955.105 148.332L952.555 144.989ZM960.297 142.273C960.297 143.923 959.995 145.342 959.392 146.529C958.788 147.711 957.96 148.622 956.909 149.26C955.862 149.894 954.673 150.211 953.34 150.211C952.001 150.211 950.807 149.894 949.755 149.26C948.709 148.622 947.884 147.708 947.28 146.521C946.676 145.334 946.374 143.918 946.374 142.273C946.374 140.623 946.676 139.206 947.28 138.024C947.884 136.837 948.709 135.926 949.755 135.293C950.807 134.654 952.001 134.334 953.34 134.334C954.673 134.334 955.862 134.654 956.909 135.293C957.96 135.926 958.788 136.837 959.392 138.024C959.995 139.206 960.297 140.623 960.297 142.273ZM957.988 142.273C957.988 141.015 957.784 139.956 957.377 139.096C956.974 138.23 956.421 137.576 955.717 137.134C955.017 136.686 954.225 136.462 953.34 136.462C952.449 136.462 951.654 136.686 950.955 137.134C950.256 137.576 949.702 138.23 949.295 139.096C948.892 139.956 948.691 141.015 948.691 142.273C948.691 143.53 948.892 144.592 949.295 145.457C949.702 146.317 950.256 146.971 950.955 147.419C951.654 147.862 952.449 148.083 953.34 148.083C954.225 148.083 955.017 147.862 955.717 147.419C956.421 146.971 956.974 146.317 957.377 145.457C957.784 144.592 957.988 143.53 957.988 142.273ZM963.204 150V134.545H965.536V147.993H972.539V150H963.204Z" fill="#C4C4C4"></path><rect x="910.5" y="100.5" width="84" height="84" rx="15.4375" stroke="#F7F7F7"></rect><rect x="101.75" y="101.5" width="185" height="84" rx="15.4375" fill="#68B682"></rect><path d="M144.867 135.545H147.697L152.617 147.559H152.798L157.718 135.545H160.548V151H158.329V139.817H158.186L153.628 150.977H151.787L147.229 139.809H147.086V151H144.867V135.545ZM167.13 151.257C166.396 151.257 165.731 151.121 165.138 150.849C164.544 150.572 164.074 150.172 163.727 149.649C163.385 149.126 163.214 148.485 163.214 147.725C163.214 147.071 163.339 146.533 163.591 146.11C163.842 145.687 164.182 145.353 164.61 145.106C165.037 144.86 165.515 144.674 166.043 144.548C166.572 144.422 167.11 144.327 167.658 144.261C168.353 144.181 168.916 144.115 169.349 144.065C169.781 144.01 170.096 143.922 170.292 143.801C170.488 143.68 170.586 143.484 170.586 143.212V143.16C170.586 142.501 170.4 141.99 170.028 141.628C169.661 141.265 169.112 141.084 168.383 141.084C167.623 141.084 167.024 141.253 166.587 141.59C166.154 141.922 165.855 142.292 165.689 142.699L163.568 142.216C163.82 141.512 164.187 140.943 164.67 140.511C165.158 140.073 165.719 139.756 166.353 139.56C166.987 139.359 167.653 139.258 168.353 139.258C168.815 139.258 169.306 139.314 169.824 139.424C170.347 139.53 170.835 139.726 171.288 140.013C171.746 140.3 172.121 140.71 172.412 141.243C172.704 141.771 172.85 142.458 172.85 143.303V151H170.647V149.415H170.556C170.41 149.707 170.191 149.994 169.899 150.276C169.608 150.557 169.233 150.791 168.775 150.977C168.317 151.164 167.769 151.257 167.13 151.257ZM167.621 149.445C168.244 149.445 168.778 149.322 169.22 149.076C169.668 148.829 170.008 148.507 170.239 148.11C170.475 147.707 170.594 147.277 170.594 146.819V145.325C170.513 145.406 170.357 145.481 170.126 145.552C169.899 145.617 169.64 145.675 169.349 145.725C169.057 145.771 168.773 145.813 168.496 145.854C168.219 145.889 167.988 145.919 167.802 145.944C167.364 145.999 166.964 146.092 166.602 146.223C166.245 146.354 165.958 146.543 165.742 146.789C165.53 147.031 165.425 147.353 165.425 147.755C165.425 148.314 165.631 148.736 166.043 149.023C166.456 149.305 166.982 149.445 167.621 149.445ZM175.855 151V139.409H178.036V141.25H178.157C178.368 140.627 178.74 140.136 179.274 139.779C179.812 139.417 180.421 139.236 181.1 139.236C181.241 139.236 181.407 139.241 181.598 139.251C181.794 139.261 181.948 139.273 182.058 139.288V141.447C181.968 141.421 181.807 141.394 181.575 141.364C181.344 141.328 181.112 141.311 180.881 141.311C180.348 141.311 179.872 141.424 179.455 141.65C179.042 141.872 178.715 142.181 178.474 142.578C178.232 142.971 178.112 143.419 178.112 143.922V151H175.855ZM186.086 147.068L186.071 144.314H186.463L191.082 139.409H193.783L188.516 144.993H188.161L186.086 147.068ZM184.011 151V135.545H186.267V151H184.011ZM191.331 151L187.18 145.491L188.735 143.914L194.1 151H191.331ZM200.358 151.234C199.216 151.234 198.232 150.99 197.407 150.502C196.587 150.009 195.953 149.317 195.505 148.427C195.063 147.531 194.841 146.482 194.841 145.28C194.841 144.093 195.063 143.046 195.505 142.141C195.953 141.235 196.577 140.528 197.377 140.02C198.182 139.512 199.123 139.258 200.199 139.258C200.853 139.258 201.487 139.366 202.101 139.583C202.715 139.799 203.265 140.139 203.753 140.601C204.241 141.064 204.626 141.665 204.908 142.405C205.19 143.139 205.331 144.032 205.331 145.084V145.884H196.117V144.193H203.12C203.12 143.6 202.999 143.074 202.757 142.616C202.516 142.153 202.176 141.789 201.739 141.522C201.306 141.255 200.798 141.122 200.214 141.122C199.58 141.122 199.027 141.278 198.554 141.59C198.086 141.897 197.724 142.299 197.467 142.797C197.216 143.29 197.09 143.826 197.09 144.405V145.725C197.09 146.5 197.226 147.159 197.498 147.702C197.774 148.246 198.159 148.661 198.652 148.947C199.145 149.229 199.721 149.37 200.38 149.37C200.808 149.37 201.198 149.31 201.55 149.189C201.902 149.063 202.206 148.877 202.463 148.631C202.72 148.384 202.916 148.08 203.052 147.717L205.187 148.102C205.016 148.731 204.709 149.282 204.267 149.755C203.829 150.223 203.278 150.587 202.614 150.849C201.955 151.106 201.203 151.234 200.358 151.234ZM213.245 139.409V141.22H206.913V139.409H213.245ZM208.611 136.632H210.868V147.597C210.868 148.034 210.933 148.364 211.064 148.585C211.195 148.802 211.363 148.95 211.569 149.03C211.781 149.106 212.01 149.144 212.256 149.144C212.437 149.144 212.596 149.131 212.732 149.106C212.867 149.081 212.973 149.061 213.048 149.046L213.456 150.909C213.325 150.96 213.139 151.01 212.898 151.06C212.656 151.116 212.354 151.146 211.992 151.151C211.398 151.161 210.845 151.055 210.332 150.834C209.819 150.613 209.404 150.271 209.087 149.808C208.77 149.345 208.611 148.764 208.611 148.065V136.632ZM215.741 151V139.409H217.997V151H215.741ZM216.88 137.621C216.488 137.621 216.151 137.49 215.869 137.228C215.592 136.962 215.454 136.645 215.454 136.277C215.454 135.905 215.592 135.588 215.869 135.327C216.151 135.06 216.488 134.927 216.88 134.927C217.272 134.927 217.607 135.06 217.884 135.327C218.165 135.588 218.306 135.905 218.306 136.277C218.306 136.645 218.165 136.962 217.884 137.228C217.607 137.49 217.272 137.621 216.88 137.621ZM223.289 144.118V151H221.032V139.409H223.198V141.296H223.341C223.608 140.682 224.026 140.189 224.594 139.817C225.168 139.444 225.889 139.258 226.76 139.258C227.55 139.258 228.241 139.424 228.835 139.756C229.429 140.083 229.889 140.571 230.216 141.22C230.543 141.869 230.706 142.672 230.706 143.627V151H228.45V143.899C228.45 143.059 228.231 142.402 227.794 141.93C227.356 141.452 226.755 141.213 225.99 141.213C225.467 141.213 225.002 141.326 224.594 141.552C224.192 141.779 223.872 142.111 223.636 142.548C223.404 142.981 223.289 143.504 223.289 144.118ZM238.592 155.588C237.672 155.588 236.879 155.467 236.215 155.226C235.556 154.984 235.018 154.665 234.6 154.267C234.183 153.87 233.871 153.435 233.665 152.962L235.604 152.162C235.74 152.383 235.921 152.617 236.147 152.864C236.379 153.115 236.691 153.329 237.083 153.505C237.48 153.681 237.991 153.769 238.615 153.769C239.47 153.769 240.177 153.561 240.735 153.143C241.294 152.731 241.573 152.072 241.573 151.166V148.887H241.43C241.294 149.134 241.098 149.408 240.841 149.71C240.589 150.011 240.242 150.273 239.8 150.494C239.357 150.716 238.781 150.826 238.072 150.826C237.156 150.826 236.331 150.613 235.596 150.185C234.867 149.752 234.288 149.116 233.861 148.276C233.438 147.431 233.227 146.392 233.227 145.159C233.227 143.927 233.436 142.87 233.853 141.99C234.276 141.109 234.854 140.435 235.589 139.968C236.323 139.495 237.156 139.258 238.087 139.258C238.806 139.258 239.387 139.379 239.83 139.62C240.272 139.857 240.617 140.134 240.864 140.45C241.115 140.767 241.309 141.047 241.445 141.288H241.611V139.409H243.822V151.257C243.822 152.253 243.59 153.07 243.127 153.709C242.665 154.348 242.038 154.821 241.248 155.128C240.464 155.435 239.578 155.588 238.592 155.588ZM238.57 148.955C239.219 148.955 239.767 148.804 240.215 148.502C240.667 148.195 241.009 147.758 241.241 147.189C241.477 146.616 241.596 145.929 241.596 145.129C241.596 144.349 241.48 143.663 241.248 143.069C241.017 142.475 240.677 142.013 240.23 141.68C239.782 141.343 239.229 141.175 238.57 141.175C237.89 141.175 237.324 141.351 236.872 141.703C236.419 142.05 236.077 142.523 235.845 143.122C235.619 143.72 235.506 144.39 235.506 145.129C235.506 145.889 235.622 146.555 235.853 147.129C236.084 147.702 236.426 148.15 236.879 148.472C237.337 148.794 237.9 148.955 238.57 148.955Z" fill="white"></path><rect x="101.75" y="101.5" width="185" height="84" rx="15.4375" stroke="#238744"></rect><rect x="404.75" y="101.5" width="84" height="84" rx="15.4375" fill="#FBFBFB"></rect><rect x="404.75" y="101.5" width="84" height="84" rx="15.4375" stroke="#F7F7F7"></rect><rect x="0.5" y="0.5" width="84" height="84" rx="15.4375" fill="#FBFBFB"></rect><path d="M9.16212 50V34.5455H14.6708C15.8732 34.5455 16.8693 34.7643 17.6591 35.202C18.4489 35.6396 19.0401 36.2383 19.4325 36.998C19.8249 37.7526 20.0211 38.6028 20.0211 39.5486C20.0211 40.4994 19.8223 41.3546 19.4249 42.1143C19.0325 42.8689 18.4389 43.4675 17.644 43.9102C16.8542 44.3479 15.8606 44.5668 14.6633 44.5668H10.8751V42.5897H14.452C15.2116 42.5897 15.8279 42.4589 16.3008 42.1973C16.7737 41.9306 17.1208 41.5684 17.3422 41.1106C17.5635 40.6528 17.6742 40.1321 17.6742 39.5486C17.6742 38.965 17.5635 38.4468 17.3422 37.9941C17.1208 37.5413 16.7712 37.1866 16.2932 36.93C15.8204 36.6735 15.1965 36.5452 14.4218 36.5452H11.4939V50H9.16212ZM23.9998 54.3466C23.6627 54.3466 23.3558 54.3189 23.0791 54.2636C22.8024 54.2133 22.5962 54.1579 22.4603 54.0976L23.0037 52.2488C23.4162 52.3594 23.7834 52.4072 24.1054 52.3921C24.4274 52.377 24.7116 52.2563 24.9581 52.0299C25.2097 51.8035 25.431 51.4338 25.6222 50.9206L25.9014 50.1509L21.6605 38.4091H24.0752L27.0107 47.4041H27.1314L30.0669 38.4091H32.4892L27.7125 51.547C27.4911 52.1507 27.2094 52.6613 26.8673 53.0788C26.5252 53.5014 26.1177 53.8184 25.6448 54.0297C25.1719 54.2409 24.6236 54.3466 23.9998 54.3466ZM40.0203 38.4091V40.2202H33.689V38.4091H40.0203ZM35.3869 35.6321H37.6432V46.5967C37.6432 47.0344 37.7086 47.3639 37.8394 47.5852C37.9702 47.8016 38.1388 47.95 38.345 48.0305C38.5563 48.1059 38.7852 48.1436 39.0317 48.1436C39.2128 48.1436 39.3713 48.1311 39.5071 48.1059C39.643 48.0808 39.7486 48.0606 39.8241 48.0455L40.2316 49.9094C40.1008 49.9598 39.9146 50.0101 39.6732 50.0604C39.4317 50.1157 39.1298 50.1459 38.7676 50.1509C38.174 50.161 37.6206 50.0553 37.1075 49.834C36.5943 49.6126 36.1793 49.2705 35.8623 48.8077C35.5454 48.3449 35.3869 47.7638 35.3869 47.0645V35.6321ZM45.0215 43.1179V50H42.7652V34.5455H44.9913V40.2956H45.1347C45.4064 39.6718 45.8214 39.1763 46.3798 38.809C46.9382 38.4418 47.6677 38.2582 48.5682 38.2582C49.3631 38.2582 50.0573 38.4217 50.6509 38.7487C51.2496 39.0757 51.7124 39.5637 52.0394 40.2126C52.3715 40.8566 52.5375 41.6615 52.5375 42.6274V50H50.2812V42.8991C50.2812 42.0489 50.0623 41.3898 49.6247 40.922C49.187 40.4491 48.5783 40.2126 47.7985 40.2126C47.2652 40.2126 46.7873 40.3258 46.3647 40.5522C45.9472 40.7786 45.6176 41.1106 45.3762 41.5483C45.1397 41.9809 45.0215 42.5041 45.0215 43.1179ZM60.4308 50.2339C59.3441 50.2339 58.3958 49.9849 57.5859 49.4869C56.7759 48.9888 56.1471 48.2921 55.6993 47.3966C55.2516 46.5011 55.0277 45.4547 55.0277 44.2574C55.0277 43.055 55.2516 42.0036 55.6993 41.1031C56.1471 40.2026 56.7759 39.5033 57.5859 39.0052C58.3958 38.5072 59.3441 38.2582 60.4308 38.2582C61.5174 38.2582 62.4657 38.5072 63.2757 39.0052C64.0856 39.5033 64.7145 40.2026 65.1622 41.1031C65.6099 42.0036 65.8338 43.055 65.8338 44.2574C65.8338 45.4547 65.6099 46.5011 65.1622 47.3966C64.7145 48.2921 64.0856 48.9888 63.2757 49.4869C62.4657 49.9849 61.5174 50.2339 60.4308 50.2339ZM60.4383 48.3398C61.1426 48.3398 61.7262 48.1537 62.189 47.7814C62.6519 47.4091 62.9939 46.9136 63.2153 46.2948C63.4417 45.676 63.5549 44.9944 63.5549 44.2498C63.5549 43.5103 63.4417 42.8311 63.2153 42.2124C62.9939 41.5885 62.6519 41.088 62.189 40.7107C61.7262 40.3334 61.1426 40.1447 60.4383 40.1447C59.729 40.1447 59.1404 40.3334 58.6725 40.7107C58.2097 41.088 57.8651 41.5885 57.6387 42.2124C57.4173 42.8311 57.3067 43.5103 57.3067 44.2498C57.3067 44.9944 57.4173 45.676 57.6387 46.2948C57.8651 46.9136 58.2097 47.4091 58.6725 47.7814C59.1404 48.1537 59.729 48.3398 60.4383 48.3398ZM70.6087 43.1179V50H68.3524V38.4091H70.5181V40.2956H70.6615C70.9281 39.6819 71.3457 39.1889 71.9141 38.8166C72.4876 38.4443 73.2096 38.2582 74.0799 38.2582C74.8697 38.2582 75.5615 38.4242 76.1551 38.7562C76.7487 39.0832 77.209 39.5712 77.536 40.2202C77.863 40.8691 78.0265 41.6715 78.0265 42.6274V50H75.7702V42.8991C75.7702 42.0589 75.5514 41.4024 75.1137 40.9295C74.676 40.4516 74.0749 40.2126 73.3102 40.2126C72.787 40.2126 72.3216 40.3258 71.9141 40.5522C71.5117 40.7786 71.1922 41.1106 70.9558 41.5483C70.7244 41.9809 70.6087 42.5041 70.6087 43.1179Z" fill="#C4C4C4"></path><rect x="0.5" y="0.5" width="84" height="84" rx="15.4375" stroke="#F7F7F7"></rect><rect x="607.5" y="202.5" width="84" height="84" rx="15.4375" fill="#FBFBFB"></rect><path d="M643.85 252V236.545H649.358C650.556 236.545 651.549 236.752 652.339 237.164C653.134 237.577 653.728 238.148 654.12 238.877C654.512 239.602 654.709 240.439 654.709 241.39C654.709 242.336 654.51 243.168 654.113 243.888C653.72 244.602 653.126 245.158 652.332 245.556C651.542 245.953 650.548 246.152 649.351 246.152H645.178V244.144H649.14C649.894 244.144 650.508 244.036 650.981 243.82C651.459 243.604 651.808 243.289 652.03 242.877C652.251 242.464 652.362 241.969 652.362 241.39C652.362 240.807 652.249 240.301 652.022 239.873C651.801 239.446 651.451 239.119 650.973 238.892C650.5 238.661 649.879 238.545 649.109 238.545H646.182V252H643.85ZM651.479 245.027L655.297 252H652.641L648.898 245.027H651.479Z" fill="#C4C4C4"></path><rect x="607.5" y="202.5" width="84" height="84" rx="15.4375" stroke="#F7F7F7"></rect><rect x="607.5" y="101.5" width="84" height="84" rx="15.4375" fill="#F4FAFE"></rect><path d="M642.537 140.79H640.183C640.092 140.287 639.924 139.844 639.677 139.462C639.431 139.079 639.129 138.755 638.772 138.488C638.414 138.222 638.015 138.021 637.572 137.885C637.134 137.749 636.669 137.681 636.176 137.681C635.285 137.681 634.488 137.905 633.784 138.353C633.084 138.8 632.531 139.457 632.124 140.322C631.721 141.187 631.52 142.244 631.52 143.491C631.52 144.749 631.721 145.811 632.124 146.676C632.531 147.541 633.087 148.195 633.791 148.638C634.496 149.081 635.288 149.302 636.168 149.302C636.656 149.302 637.119 149.237 637.557 149.106C637.999 148.97 638.399 148.771 638.757 148.51C639.114 148.248 639.416 147.929 639.662 147.551C639.914 147.169 640.087 146.731 640.183 146.238L642.537 146.246C642.411 147.005 642.167 147.705 641.805 148.344C641.448 148.978 640.988 149.526 640.424 149.989C639.866 150.447 639.227 150.801 638.508 151.053C637.788 151.304 637.003 151.43 636.153 151.43C634.815 151.43 633.623 151.113 632.576 150.479C631.53 149.84 630.705 148.927 630.101 147.74C629.502 146.553 629.203 145.137 629.203 143.491C629.203 141.841 629.505 140.425 630.109 139.243C630.712 138.056 631.537 137.145 632.584 136.511C633.63 135.872 634.82 135.553 636.153 135.553C636.973 135.553 637.738 135.671 638.447 135.908C639.162 136.139 639.803 136.481 640.371 136.934C640.94 137.382 641.41 137.93 641.783 138.579C642.155 139.223 642.406 139.96 642.537 140.79ZM653.756 139.824C653.676 139.11 653.344 138.556 652.76 138.164C652.177 137.766 651.442 137.568 650.557 137.568C649.923 137.568 649.375 137.668 648.912 137.87C648.449 138.066 648.089 138.337 647.833 138.685C647.581 139.027 647.455 139.417 647.455 139.854C647.455 140.221 647.541 140.538 647.712 140.805C647.888 141.072 648.117 141.296 648.399 141.477C648.685 141.653 648.992 141.801 649.319 141.922C649.646 142.038 649.961 142.133 650.263 142.209L651.772 142.601C652.265 142.722 652.77 142.885 653.289 143.092C653.807 143.298 654.287 143.569 654.73 143.907C655.173 144.244 655.53 144.661 655.801 145.159C656.078 145.657 656.217 146.253 656.217 146.948C656.217 147.823 655.99 148.6 655.537 149.279C655.09 149.959 654.438 150.494 653.583 150.887C652.733 151.279 651.704 151.475 650.497 151.475C649.339 151.475 648.338 151.292 647.493 150.924C646.648 150.557 645.986 150.037 645.509 149.362C645.031 148.683 644.766 147.878 644.716 146.948H647.055C647.101 147.506 647.282 147.971 647.599 148.344C647.921 148.711 648.331 148.985 648.829 149.166C649.332 149.342 649.883 149.43 650.481 149.43C651.14 149.43 651.727 149.327 652.24 149.121C652.758 148.91 653.165 148.618 653.462 148.246C653.759 147.868 653.907 147.428 653.907 146.925C653.907 146.467 653.777 146.092 653.515 145.801C653.258 145.509 652.909 145.267 652.466 145.076C652.028 144.885 651.533 144.716 650.979 144.571L649.153 144.073C647.916 143.735 646.935 143.24 646.21 142.586C645.491 141.932 645.131 141.067 645.131 139.99C645.131 139.1 645.373 138.322 645.856 137.658C646.339 136.994 646.993 136.479 647.818 136.111C648.643 135.739 649.573 135.553 650.61 135.553C651.656 135.553 652.579 135.737 653.379 136.104C654.184 136.471 654.818 136.977 655.281 137.621C655.744 138.259 655.985 138.994 656.005 139.824H653.756ZM660.354 135.764L664.655 148.351H664.829L669.13 135.764H671.65L666.089 151.219H663.395L657.833 135.764H660.354Z" fill="#1A99E0"></path><rect x="607.5" y="101.5" width="84" height="84" rx="15.4375" stroke="#E8F5FC"></rect><rect x="708.25" y="101.5" width="185" height="84" rx="15.4375" fill="#68B682"></rect><path d="M783.096 135.545H785.435V145.71C785.435 146.792 785.181 147.75 784.673 148.585C784.165 149.415 783.45 150.069 782.53 150.547C781.609 151.02 780.53 151.257 779.293 151.257C778.06 151.257 776.983 151.02 776.063 150.547C775.142 150.069 774.428 149.415 773.92 148.585C773.412 147.75 773.157 146.792 773.157 145.71V135.545H775.489V145.521C775.489 146.221 775.643 146.842 775.95 147.385C776.261 147.929 776.702 148.356 777.27 148.668C777.839 148.975 778.513 149.129 779.293 149.129C780.077 149.129 780.754 148.975 781.322 148.668C781.896 148.356 782.334 147.929 782.635 147.385C782.942 146.842 783.096 146.221 783.096 145.521V135.545ZM797.33 142.239L795.285 142.601C795.199 142.34 795.063 142.09 794.877 141.854C794.696 141.618 794.45 141.424 794.138 141.273C793.826 141.122 793.436 141.047 792.968 141.047C792.329 141.047 791.796 141.19 791.368 141.477C790.941 141.758 790.727 142.123 790.727 142.571C790.727 142.958 790.87 143.27 791.157 143.507C791.444 143.743 791.907 143.937 792.545 144.088L794.387 144.51C795.453 144.757 796.248 145.137 796.771 145.65C797.295 146.163 797.556 146.829 797.556 147.65C797.556 148.344 797.355 148.963 796.952 149.506C796.555 150.044 795.999 150.467 795.285 150.774C794.575 151.08 793.753 151.234 792.817 151.234C791.519 151.234 790.46 150.957 789.64 150.404C788.82 149.845 788.317 149.053 788.131 148.027L790.312 147.695C790.448 148.263 790.727 148.693 791.149 148.985C791.572 149.272 792.123 149.415 792.802 149.415C793.542 149.415 794.133 149.262 794.575 148.955C795.018 148.643 795.239 148.263 795.239 147.816C795.239 147.453 795.104 147.149 794.832 146.902C794.565 146.656 794.155 146.47 793.602 146.344L791.64 145.914C790.558 145.667 789.758 145.275 789.24 144.737C788.727 144.198 788.471 143.517 788.471 142.692C788.471 142.007 788.662 141.409 789.044 140.896C789.426 140.383 789.955 139.983 790.629 139.696C791.303 139.404 792.075 139.258 792.945 139.258C794.198 139.258 795.184 139.53 795.904 140.073C796.623 140.611 797.098 141.333 797.33 142.239ZM805.032 151.234C803.89 151.234 802.907 150.99 802.082 150.502C801.262 150.009 800.628 149.317 800.18 148.427C799.738 147.531 799.516 146.482 799.516 145.28C799.516 144.093 799.738 143.046 800.18 142.141C800.628 141.235 801.252 140.528 802.052 140.02C802.857 139.512 803.797 139.258 804.874 139.258C805.528 139.258 806.162 139.366 806.776 139.583C807.389 139.799 807.94 140.139 808.428 140.601C808.916 141.064 809.301 141.665 809.583 142.405C809.865 143.139 810.005 144.032 810.005 145.084V145.884H800.792V144.193H807.794C807.794 143.6 807.674 143.074 807.432 142.616C807.191 142.153 806.851 141.789 806.413 141.522C805.981 141.255 805.473 141.122 804.889 141.122C804.255 141.122 803.702 141.278 803.229 141.59C802.761 141.897 802.399 142.299 802.142 142.797C801.891 143.29 801.765 143.826 801.765 144.405V145.725C801.765 146.5 801.901 147.159 802.172 147.702C802.449 148.246 802.834 148.661 803.327 148.947C803.82 149.229 804.396 149.37 805.055 149.37C805.483 149.37 805.873 149.31 806.225 149.189C806.577 149.063 806.881 148.877 807.138 148.631C807.394 148.384 807.591 148.08 807.726 147.717L809.862 148.102C809.691 148.731 809.384 149.282 808.941 149.755C808.504 150.223 807.953 150.587 807.289 150.849C806.63 151.106 805.878 151.234 805.032 151.234ZM812.509 151V139.409H814.69V141.25H814.81C815.022 140.627 815.394 140.136 815.927 139.779C816.466 139.417 817.074 139.236 817.753 139.236C817.894 139.236 818.06 139.241 818.251 139.251C818.448 139.261 818.601 139.273 818.712 139.288V141.447C818.621 141.421 818.46 141.394 818.229 141.364C817.997 141.328 817.766 141.311 817.535 141.311C817.001 141.311 816.526 141.424 816.108 141.65C815.696 141.872 815.369 142.181 815.127 142.578C814.886 142.971 814.765 143.419 814.765 143.922V151H812.509ZM829.35 142.239L827.305 142.601C827.219 142.34 827.084 142.09 826.897 141.854C826.716 141.618 826.47 141.424 826.158 141.273C825.846 141.122 825.456 141.047 824.988 141.047C824.349 141.047 823.816 141.19 823.389 141.477C822.961 141.758 822.747 142.123 822.747 142.571C822.747 142.958 822.89 143.27 823.177 143.507C823.464 143.743 823.927 143.937 824.566 144.088L826.407 144.51C827.474 144.757 828.268 145.137 828.792 145.65C829.315 146.163 829.576 146.829 829.576 147.65C829.576 148.344 829.375 148.963 828.973 149.506C828.575 150.044 828.019 150.467 827.305 150.774C826.596 151.08 825.773 151.234 824.837 151.234C823.539 151.234 822.48 150.957 821.66 150.404C820.84 149.845 820.337 149.053 820.151 148.027L822.332 147.695C822.468 148.263 822.747 148.693 823.17 148.985C823.592 149.272 824.143 149.415 824.822 149.415C825.562 149.415 826.153 149.262 826.596 148.955C827.038 148.643 827.26 148.263 827.26 147.816C827.26 147.453 827.124 147.149 826.852 146.902C826.586 146.656 826.176 146.47 825.622 146.344L823.66 145.914C822.579 145.667 821.779 145.275 821.261 144.737C820.747 144.198 820.491 143.517 820.491 142.692C820.491 142.007 820.682 141.409 821.064 140.896C821.447 140.383 821.975 139.983 822.649 139.696C823.323 139.404 824.095 139.258 824.966 139.258C826.218 139.258 827.204 139.53 827.924 140.073C828.643 140.611 829.119 141.333 829.35 142.239Z" fill="white"></path><rect x="708.25" y="101.5" width="185" height="84" rx="15.4375" stroke="#238744"></rect><rect x="304.25" y="202.5" width="84" height="84" rx="15.4375" fill="#F4FAFE"></rect><path d="M335.97 240.824C335.889 240.11 335.557 239.556 334.974 239.164C334.39 238.766 333.656 238.568 332.77 238.568C332.136 238.568 331.588 238.668 331.125 238.87C330.662 239.066 330.303 239.337 330.046 239.685C329.794 240.027 329.669 240.417 329.669 240.854C329.669 241.221 329.754 241.538 329.925 241.805C330.101 242.072 330.33 242.296 330.612 242.477C330.899 242.653 331.206 242.801 331.533 242.922C331.86 243.038 332.174 243.133 332.476 243.209L333.985 243.601C334.478 243.722 334.984 243.885 335.502 244.092C336.02 244.298 336.5 244.569 336.943 244.907C337.386 245.244 337.743 245.661 338.015 246.159C338.291 246.657 338.43 247.253 338.43 247.948C338.43 248.823 338.203 249.6 337.751 250.279C337.303 250.959 336.651 251.494 335.796 251.887C334.946 252.279 333.917 252.475 332.71 252.475C331.553 252.475 330.552 252.292 329.706 251.924C328.861 251.557 328.2 251.037 327.722 250.362C327.244 249.683 326.98 248.878 326.929 247.948H329.269C329.314 248.506 329.495 248.971 329.812 249.344C330.134 249.711 330.544 249.985 331.042 250.166C331.545 250.342 332.096 250.43 332.695 250.43C333.354 250.43 333.94 250.327 334.453 250.121C334.971 249.91 335.379 249.618 335.675 249.246C335.972 248.868 336.121 248.428 336.121 247.925C336.121 247.467 335.99 247.092 335.728 246.801C335.472 246.509 335.122 246.267 334.679 246.076C334.242 245.885 333.746 245.716 333.193 245.571L331.367 245.073C330.129 244.735 329.148 244.24 328.424 243.586C327.704 242.932 327.344 242.067 327.344 240.99C327.344 240.1 327.586 239.322 328.069 238.658C328.552 237.994 329.206 237.479 330.031 237.111C330.856 236.739 331.787 236.553 332.823 236.553C333.869 236.553 334.793 236.737 335.592 237.104C336.397 237.471 337.031 237.977 337.494 238.621C337.957 239.259 338.198 239.994 338.218 240.824H335.97ZM346.898 247.208H349.192L350.807 249.313L351.57 250.249L354.143 253.607H351.758L350.038 251.366L349.449 250.551L346.898 247.208ZM354.641 244.491C354.641 246.142 354.339 247.56 353.735 248.748C353.132 249.93 352.304 250.84 351.253 251.479C350.206 252.113 349.016 252.43 347.683 252.43C346.345 252.43 345.15 252.113 344.099 251.479C343.052 250.84 342.227 249.927 341.624 248.74C341.02 247.553 340.718 246.137 340.718 244.491C340.718 242.841 341.02 241.425 341.624 240.243C342.227 239.056 343.052 238.145 344.099 237.511C345.15 236.872 346.345 236.553 347.683 236.553C349.016 236.553 350.206 236.872 351.253 237.511C352.304 238.145 353.132 239.056 353.735 240.243C354.339 241.425 354.641 242.841 354.641 244.491ZM352.332 244.491C352.332 243.234 352.128 242.175 351.72 241.315C351.318 240.449 350.765 239.795 350.06 239.353C349.361 238.905 348.569 238.681 347.683 238.681C346.793 238.681 345.998 238.905 345.299 239.353C344.599 239.795 344.046 240.449 343.639 241.315C343.236 242.175 343.035 243.234 343.035 244.491C343.035 245.749 343.236 246.811 343.639 247.676C344.046 248.536 344.599 249.19 345.299 249.638C345.998 250.081 346.793 250.302 347.683 250.302C348.569 250.302 349.361 250.081 350.06 249.638C350.765 249.19 351.318 248.536 351.72 247.676C352.128 246.811 352.332 245.749 352.332 244.491ZM357.548 252.219V236.764H359.88V250.211H366.883V252.219H357.548Z" fill="#1A99E0"></path><rect x="304.25" y="202.5" width="84" height="84" rx="15.4375" stroke="#E8F5FC"></rect><rect x="102.25" y="202.5" width="84" height="84" rx="15.4375" fill="#FBFBFB"></rect><rect x="102.25" y="202.5" width="84" height="84" rx="15.4375" stroke="#F7F7F7"></rect><rect x="404.75" y="202.5" width="185" height="84" rx="15.4375" fill="#68B682"></rect><path d="M480.412 240.606C480.331 239.891 479.999 239.338 479.416 238.945C478.832 238.548 478.098 238.349 477.212 238.349C476.578 238.349 476.03 238.45 475.567 238.651C475.104 238.847 474.745 239.119 474.488 239.466C474.236 239.808 474.111 240.198 474.111 240.636C474.111 241.003 474.196 241.32 474.367 241.587C474.543 241.853 474.772 242.077 475.054 242.258C475.341 242.434 475.648 242.583 475.975 242.703C476.302 242.819 476.616 242.915 476.918 242.99L478.427 243.383C478.92 243.503 479.426 243.667 479.944 243.873C480.462 244.079 480.942 244.351 481.385 244.688C481.828 245.025 482.185 245.443 482.457 245.941C482.733 246.439 482.872 247.035 482.872 247.729C482.872 248.604 482.645 249.382 482.193 250.061C481.745 250.74 481.093 251.276 480.238 251.668C479.388 252.061 478.359 252.257 477.152 252.257C475.995 252.257 474.994 252.073 474.148 251.706C473.303 251.339 472.642 250.818 472.164 250.144C471.686 249.465 471.422 248.66 471.371 247.729H473.711C473.756 248.288 473.937 248.753 474.254 249.125C474.576 249.492 474.986 249.767 475.484 249.948C475.987 250.124 476.538 250.212 477.137 250.212C477.796 250.212 478.382 250.109 478.895 249.902C479.413 249.691 479.821 249.399 480.117 249.027C480.414 248.65 480.563 248.21 480.563 247.706C480.563 247.249 480.432 246.874 480.17 246.582C479.914 246.29 479.564 246.049 479.121 245.858C478.684 245.666 478.188 245.498 477.635 245.352L475.809 244.854C474.571 244.517 473.59 244.021 472.866 243.367C472.146 242.713 471.786 241.848 471.786 240.772C471.786 239.881 472.028 239.104 472.511 238.44C472.994 237.776 473.648 237.26 474.473 236.893C475.298 236.521 476.229 236.334 477.265 236.334C478.311 236.334 479.235 236.518 480.034 236.885C480.839 237.253 481.473 237.758 481.936 238.402C482.399 239.041 482.64 239.775 482.661 240.606H480.412ZM488.85 252.257C488.116 252.257 487.452 252.121 486.858 251.849C486.264 251.573 485.794 251.173 485.447 250.649C485.105 250.126 484.934 249.485 484.934 248.725C484.934 248.071 485.06 247.533 485.311 247.11C485.563 246.688 485.902 246.353 486.33 246.107C486.757 245.86 487.235 245.674 487.764 245.548C488.292 245.423 488.83 245.327 489.378 245.262C490.073 245.181 490.636 245.116 491.069 245.065C491.501 245.01 491.816 244.922 492.012 244.801C492.208 244.68 492.306 244.484 492.306 244.213V244.16C492.306 243.501 492.12 242.99 491.748 242.628C491.381 242.266 490.832 242.085 490.103 242.085C489.343 242.085 488.745 242.253 488.307 242.59C487.874 242.922 487.575 243.292 487.409 243.699L485.288 243.217C485.54 242.512 485.907 241.944 486.39 241.511C486.878 241.073 487.439 240.756 488.073 240.56C488.707 240.359 489.373 240.258 490.073 240.258C490.536 240.258 491.026 240.314 491.544 240.424C492.067 240.53 492.555 240.726 493.008 241.013C493.466 241.3 493.841 241.71 494.133 242.243C494.424 242.771 494.57 243.458 494.57 244.303V252H492.367V250.416H492.276C492.13 250.707 491.911 250.994 491.62 251.276C491.328 251.558 490.953 251.791 490.495 251.978C490.038 252.164 489.489 252.257 488.85 252.257ZM489.341 250.446C489.965 250.446 490.498 250.322 490.941 250.076C491.388 249.829 491.728 249.507 491.959 249.11C492.196 248.708 492.314 248.277 492.314 247.82V246.326C492.233 246.406 492.077 246.481 491.846 246.552C491.62 246.617 491.361 246.675 491.069 246.725C490.777 246.771 490.493 246.814 490.216 246.854C489.939 246.889 489.708 246.919 489.522 246.944C489.084 247 488.684 247.093 488.322 247.224C487.965 247.354 487.678 247.543 487.462 247.789C487.25 248.031 487.145 248.353 487.145 248.755C487.145 249.314 487.351 249.736 487.764 250.023C488.176 250.305 488.702 250.446 489.341 250.446ZM499.832 236.546V252H497.575V236.546H499.832ZM507.863 252.234C506.721 252.234 505.737 251.99 504.912 251.502C504.092 251.009 503.458 250.317 503.011 249.427C502.568 248.532 502.347 247.483 502.347 246.28C502.347 245.093 502.568 244.047 503.011 243.141C503.458 242.236 504.082 241.529 504.882 241.021C505.687 240.512 506.628 240.258 507.704 240.258C508.358 240.258 508.992 240.367 509.606 240.583C510.22 240.799 510.771 241.139 511.259 241.602C511.747 242.064 512.131 242.666 512.413 243.405C512.695 244.14 512.836 245.033 512.836 246.084V246.884H503.622V245.194H510.625C510.625 244.6 510.504 244.074 510.262 243.616C510.021 243.154 509.681 242.789 509.244 242.522C508.811 242.256 508.303 242.122 507.719 242.122C507.086 242.122 506.532 242.278 506.059 242.59C505.591 242.897 505.229 243.3 504.973 243.798C504.721 244.291 504.595 244.826 504.595 245.405V246.725C504.595 247.5 504.731 248.159 505.003 248.703C505.28 249.246 505.664 249.661 506.157 249.948C506.65 250.229 507.226 250.37 507.885 250.37C508.313 250.37 508.703 250.31 509.055 250.189C509.407 250.063 509.712 249.877 509.968 249.631C510.225 249.384 510.421 249.08 510.557 248.718L512.692 249.103C512.521 249.731 512.214 250.282 511.772 250.755C511.334 251.223 510.783 251.588 510.119 251.849C509.46 252.106 508.708 252.234 507.863 252.234ZM524.025 243.239L521.98 243.601C521.894 243.34 521.758 243.091 521.572 242.854C521.391 242.618 521.145 242.424 520.833 242.273C520.521 242.122 520.131 242.047 519.663 242.047C519.024 242.047 518.491 242.19 518.063 242.477C517.636 242.759 517.422 243.123 517.422 243.571C517.422 243.959 517.565 244.27 517.852 244.507C518.139 244.743 518.602 244.937 519.241 245.088L521.082 245.511C522.148 245.757 522.943 246.137 523.466 246.65C523.99 247.163 524.251 247.83 524.251 248.65C524.251 249.344 524.05 249.963 523.647 250.506C523.25 251.044 522.694 251.467 521.98 251.774C521.27 252.081 520.448 252.234 519.512 252.234C518.214 252.234 517.155 251.957 516.335 251.404C515.515 250.846 515.012 250.053 514.826 249.027L517.007 248.695C517.143 249.264 517.422 249.694 517.844 249.985C518.267 250.272 518.818 250.416 519.497 250.416C520.237 250.416 520.828 250.262 521.27 249.955C521.713 249.643 521.935 249.264 521.935 248.816C521.935 248.454 521.799 248.149 521.527 247.903C521.26 247.656 520.85 247.47 520.297 247.344L518.335 246.914C517.253 246.668 516.453 246.275 515.935 245.737C515.422 245.199 515.166 244.517 515.166 243.692C515.166 243.008 515.357 242.409 515.739 241.896C516.121 241.383 516.65 240.983 517.324 240.696C517.998 240.404 518.77 240.258 519.64 240.258C520.893 240.258 521.879 240.53 522.599 241.073C523.318 241.612 523.793 242.334 524.025 243.239Z" fill="white"></path><rect x="404.75" y="202.5" width="185" height="84" rx="15.4375" stroke="#238744"></rect><rect x="809.25" y="202.5" width="84" height="84" rx="15.4375" fill="#FBFBFB"></rect><rect x="809.25" y="202.5" width="84" height="84" rx="15.4375" stroke="#F7F7F7"></rect><rect x="910.25" y="202.5" width="185" height="84" rx="15.4375" fill="#68B682"></rect><path d="M964.813 252V236.545H974.396V238.553H967.144V243.262H973.71V245.261H967.144V252H964.813ZM977.083 252V240.409H979.339V252H977.083ZM978.222 238.621C977.83 238.621 977.493 238.49 977.211 238.228C976.934 237.962 976.796 237.645 976.796 237.277C976.796 236.905 976.934 236.588 977.211 236.327C977.493 236.06 977.83 235.927 978.222 235.927C978.615 235.927 978.949 236.06 979.226 236.327C979.508 236.588 979.648 236.905 979.648 237.277C979.648 237.645 979.508 237.962 979.226 238.228C978.949 238.49 978.615 238.621 978.222 238.621ZM984.631 245.118V252H982.374V240.409H984.54V242.296H984.684C984.95 241.682 985.368 241.189 985.936 240.817C986.51 240.444 987.232 240.258 988.102 240.258C988.892 240.258 989.584 240.424 990.177 240.756C990.771 241.083 991.231 241.571 991.558 242.22C991.885 242.869 992.049 243.672 992.049 244.627V252H989.792V244.899C989.792 244.059 989.573 243.402 989.136 242.93C988.698 242.452 988.097 242.213 987.332 242.213C986.809 242.213 986.344 242.326 985.936 242.552C985.534 242.779 985.214 243.111 984.978 243.548C984.746 243.981 984.631 244.504 984.631 245.118ZM998.448 252.257C997.713 252.257 997.049 252.121 996.456 251.849C995.862 251.572 995.392 251.172 995.044 250.649C994.702 250.126 994.531 249.485 994.531 248.725C994.531 248.071 994.657 247.533 994.909 247.11C995.16 246.687 995.5 246.353 995.927 246.106C996.355 245.86 996.833 245.674 997.361 245.548C997.889 245.422 998.428 245.327 998.976 245.261C999.67 245.181 1000.23 245.115 1000.67 245.065C1001.1 245.01 1001.41 244.922 1001.61 244.801C1001.81 244.68 1001.9 244.484 1001.9 244.212V244.16C1001.9 243.501 1001.72 242.99 1001.35 242.628C1000.98 242.265 1000.43 242.084 999.7 242.084C998.941 242.084 998.342 242.253 997.904 242.59C997.472 242.922 997.172 243.292 997.006 243.699L994.886 243.216C995.138 242.512 995.505 241.943 995.988 241.511C996.476 241.073 997.037 240.756 997.671 240.56C998.304 240.359 998.971 240.258 999.67 240.258C1000.13 240.258 1000.62 240.314 1001.14 240.424C1001.66 240.53 1002.15 240.726 1002.61 241.013C1003.06 241.3 1003.44 241.71 1003.73 242.243C1004.02 242.771 1004.17 243.458 1004.17 244.303V252H1001.96V250.415H1001.87C1001.73 250.707 1001.51 250.994 1001.22 251.276C1000.93 251.557 1000.55 251.791 1000.09 251.977C999.635 252.164 999.087 252.257 998.448 252.257ZM998.938 250.445C999.562 250.445 1000.1 250.322 1000.54 250.076C1000.99 249.829 1001.33 249.507 1001.56 249.11C1001.79 248.707 1001.91 248.277 1001.91 247.819V246.325C1001.83 246.406 1001.68 246.481 1001.44 246.552C1001.22 246.617 1000.96 246.675 1000.67 246.725C1000.37 246.771 1000.09 246.813 999.814 246.854C999.537 246.889 999.306 246.919 999.119 246.944C998.682 246.999 998.282 247.092 997.92 247.223C997.562 247.354 997.276 247.543 997.059 247.789C996.848 248.031 996.742 248.353 996.742 248.755C996.742 249.314 996.949 249.736 997.361 250.023C997.774 250.305 998.299 250.445 998.938 250.445ZM1009.43 245.118V252H1007.17V240.409H1009.34V242.296H1009.48C1009.75 241.682 1010.17 241.189 1010.73 240.817C1011.31 240.444 1012.03 240.258 1012.9 240.258C1013.69 240.258 1014.38 240.424 1014.98 240.756C1015.57 241.083 1016.03 241.571 1016.36 242.22C1016.68 242.869 1016.85 243.672 1016.85 244.627V252H1014.59V244.899C1014.59 244.059 1014.37 243.402 1013.93 242.93C1013.5 242.452 1012.9 242.213 1012.13 242.213C1011.61 242.213 1011.14 242.326 1010.73 242.552C1010.33 242.779 1010.01 243.111 1009.78 243.548C1009.55 243.981 1009.43 244.504 1009.43 245.118ZM1024.76 252.234C1023.63 252.234 1022.67 251.98 1021.86 251.472C1021.05 250.959 1020.43 250.252 1020 249.351C1019.57 248.451 1019.35 247.419 1019.35 246.257C1019.35 245.08 1019.57 244.041 1020.02 243.141C1020.46 242.235 1021.08 241.528 1021.89 241.02C1022.69 240.512 1023.64 240.258 1024.73 240.258C1025.61 240.258 1026.4 240.422 1027.09 240.749C1027.78 241.071 1028.33 241.523 1028.76 242.107C1029.18 242.691 1029.44 243.372 1029.52 244.152H1027.32C1027.2 243.609 1026.92 243.141 1026.49 242.748C1026.06 242.356 1025.49 242.16 1024.77 242.16C1024.14 242.16 1023.59 242.326 1023.12 242.658C1022.65 242.985 1022.29 243.453 1022.02 244.061C1021.76 244.665 1021.63 245.379 1021.63 246.205C1021.63 247.05 1021.76 247.779 1022.02 248.393C1022.27 249.007 1022.64 249.482 1023.1 249.819C1023.58 250.156 1024.13 250.325 1024.77 250.325C1025.2 250.325 1025.59 250.247 1025.93 250.091C1026.28 249.93 1026.58 249.701 1026.82 249.404C1027.06 249.107 1027.23 248.75 1027.32 248.333H1029.52C1029.44 249.082 1029.19 249.751 1028.79 250.34C1028.38 250.928 1027.83 251.391 1027.15 251.728C1026.47 252.065 1025.67 252.234 1024.76 252.234ZM1036.93 252.234C1035.78 252.234 1034.8 251.99 1033.98 251.502C1033.16 251.009 1032.52 250.317 1032.07 249.427C1031.63 248.531 1031.41 247.482 1031.41 246.28C1031.41 245.093 1031.63 244.046 1032.07 243.141C1032.52 242.235 1033.15 241.528 1033.94 241.02C1034.75 240.512 1035.69 240.258 1036.77 240.258C1037.42 240.258 1038.06 240.366 1038.67 240.583C1039.28 240.799 1039.83 241.139 1040.32 241.601C1040.81 242.064 1041.19 242.665 1041.48 243.405C1041.76 244.139 1041.9 245.032 1041.9 246.084V246.884H1032.68V245.193H1039.69C1039.69 244.6 1039.57 244.074 1039.33 243.616C1039.08 243.153 1038.74 242.789 1038.31 242.522C1037.87 242.255 1037.37 242.122 1036.78 242.122C1036.15 242.122 1035.6 242.278 1035.12 242.59C1034.65 242.897 1034.29 243.299 1034.04 243.797C1033.78 244.29 1033.66 244.826 1033.66 245.405V246.725C1033.66 247.5 1033.79 248.159 1034.07 248.702C1034.34 249.246 1034.73 249.661 1035.22 249.947C1035.71 250.229 1036.29 250.37 1036.95 250.37C1037.38 250.37 1037.77 250.31 1038.12 250.189C1038.47 250.063 1038.77 249.877 1039.03 249.631C1039.29 249.384 1039.48 249.08 1039.62 248.717L1041.76 249.102C1041.58 249.731 1041.28 250.282 1040.83 250.755C1040.4 251.223 1039.85 251.587 1039.18 251.849C1038.52 252.106 1037.77 252.234 1036.93 252.234Z" fill="white"></path><rect x="910.25" y="202.5" width="185" height="84" rx="15.4375" stroke="#238744"></rect></svg>