<svg xmlns="http://www.w3.org/2000/svg" width="539" height="390" viewBox="0 0 539 390" fill="none"><g clip-path="url(#clip0_3072_3118)"><g clip-path="url(#clip1_3072_3118)"><path d="M1 -666.972H1634.59V388.999H13.5C6.59644 388.999 1 383.403 1 376.499V-666.972Z" fill="#FBFBFB"></path><g clip-path="url(#clip2_3072_3118)"><path d="M51.2734 45.3984C51.2005 44.7161 50.8932 44.1849 50.3516 43.8047C49.8151 43.4245 49.1172 43.2344 48.2578 43.2344C47.6536 43.2344 47.1354 43.3255 46.7031 43.5078C46.2708 43.6901 45.9401 43.9375 45.7109 44.25C45.4818 44.5625 45.3646 44.9193 45.3594 45.3203C45.3594 45.6536 45.4349 45.9427 45.5859 46.1875C45.7422 46.4323 45.9531 46.6406 46.2188 46.8125C46.4844 46.9792 46.7786 47.1198 47.1016 47.2344C47.4245 47.349 47.75 47.4453 48.0781 47.5234L49.5781 47.8984C50.1823 48.0391 50.763 48.2292 51.3203 48.4687C51.8828 48.7083 52.3854 49.0104 52.8281 49.375C53.276 49.7396 53.6302 50.1797 53.8906 50.6953C54.151 51.2109 54.2813 51.8151 54.2813 52.5078C54.2813 53.4453 54.0417 54.2708 53.5625 54.9844C53.0833 55.6927 52.3906 56.2474 51.4844 56.6484C50.5833 57.0443 49.4922 57.2422 48.2109 57.2422C46.9661 57.2422 45.8854 57.0495 44.9688 56.6641C44.0573 56.2786 43.3438 55.7161 42.8281 54.9766C42.3177 54.237 42.0417 53.3359 42 52.2734H44.8516C44.8932 52.8307 45.0651 53.2943 45.3672 53.6641C45.6693 54.0339 46.0625 54.3099 46.5469 54.4922C47.0365 54.6745 47.5833 54.7656 48.1875 54.7656C48.8177 54.7656 49.3698 54.6719 49.8438 54.4844C50.3229 54.2917 50.6979 54.026 50.9688 53.6875C51.2396 53.3437 51.3776 52.9427 51.3828 52.4844C51.3776 52.0677 51.2552 51.724 51.0156 51.4531C50.776 51.1771 50.4401 50.9479 50.0078 50.7656C49.5807 50.5781 49.0807 50.4115 48.5078 50.2656L46.6875 49.7969C45.3698 49.4583 44.3281 48.9453 43.5625 48.2578C42.8021 47.5651 42.4219 46.6458 42.4219 45.5C42.4219 44.5573 42.6771 43.7318 43.1875 43.0234C43.7031 42.3151 44.4036 41.7656 45.2891 41.375C46.1745 40.9792 47.1771 40.7812 48.2969 40.7812C49.4323 40.7812 50.4271 40.9792 51.2813 41.375C52.1406 41.7656 52.8151 42.3099 53.3047 43.0078C53.7943 43.7005 54.0469 44.4974 54.0625 45.3984H51.2734ZM60.1934 57.2422C59.4329 57.2422 58.748 57.1068 58.1387 56.8359C57.5345 56.5599 57.0553 56.1536 56.7012 55.6172C56.3522 55.0807 56.1777 54.4193 56.1777 53.6328C56.1777 52.9557 56.3027 52.3958 56.5527 51.9531C56.8027 51.5104 57.1439 51.1562 57.5762 50.8906C58.0085 50.625 58.4954 50.4245 59.0371 50.2891C59.584 50.1484 60.1491 50.0469 60.7324 49.9844C61.4355 49.9115 62.0059 49.8464 62.4434 49.7891C62.8809 49.7266 63.1986 49.6328 63.3965 49.5078C63.5996 49.3776 63.7012 49.1771 63.7012 48.9062V48.8594C63.7012 48.2708 63.5267 47.8151 63.1777 47.4922C62.8288 47.1693 62.3262 47.0078 61.6699 47.0078C60.9772 47.0078 60.4277 47.1589 60.0215 47.4609C59.6204 47.763 59.3496 48.1198 59.209 48.5312L56.5684 48.1562C56.7767 47.4271 57.1204 46.8177 57.5996 46.3281C58.0788 45.8333 58.6647 45.4635 59.3574 45.2187C60.0501 44.9688 60.8158 44.8438 61.6543 44.8438C62.2324 44.8438 62.8079 44.9115 63.3809 45.0469C63.9538 45.1823 64.4772 45.4062 64.9512 45.7187C65.4251 46.026 65.8053 46.4453 66.0918 46.9766C66.3835 47.5078 66.5293 48.1719 66.5293 48.9687V57H63.8105V55.3516H63.7168C63.5449 55.6849 63.3027 55.9974 62.9902 56.2891C62.6829 56.5755 62.2949 56.8073 61.8262 56.9844C61.3626 57.1563 60.8184 57.2422 60.1934 57.2422ZM60.9277 55.1641C61.4954 55.1641 61.9876 55.0521 62.4043 54.8281C62.821 54.599 63.1413 54.2969 63.3652 53.9219C63.5944 53.5469 63.709 53.138 63.709 52.6953V51.2812C63.6204 51.3542 63.4694 51.4219 63.2559 51.4844C63.0475 51.5469 62.8132 51.6016 62.5527 51.6484C62.2923 51.6953 62.0345 51.737 61.7793 51.7734C61.5241 51.8099 61.3027 51.8411 61.1152 51.8672C60.6934 51.9245 60.3158 52.0182 59.9824 52.1484C59.6491 52.2786 59.3861 52.4609 59.1934 52.6953C59.0007 52.9245 58.9043 53.2214 58.9043 53.5859C58.9043 54.1068 59.0944 54.5 59.4746 54.7656C59.8548 55.0312 60.3392 55.1641 60.9277 55.1641ZM72.2012 41V57H69.373V41H72.2012ZM80.4219 57.2344C79.2188 57.2344 78.1797 56.9844 77.3047 56.4844C76.4349 55.9792 75.7656 55.2656 75.2969 54.3437C74.8281 53.4167 74.5938 52.3255 74.5938 51.0703C74.5938 49.8359 74.8281 48.7526 75.2969 47.8203C75.7708 46.8828 76.4323 46.1536 77.2813 45.6328C78.1302 45.1068 79.1276 44.8438 80.2734 44.8438C81.013 44.8438 81.7109 44.9635 82.3672 45.2031C83.0286 45.4375 83.612 45.8021 84.1172 46.2969C84.6276 46.7917 85.0286 47.4219 85.3203 48.1875C85.612 48.9479 85.7578 49.8542 85.7578 50.9062V51.7734H75.9219V49.8672H83.0469C83.0417 49.3255 82.9245 48.8437 82.6953 48.4219C82.4661 47.9948 82.1458 47.6589 81.7344 47.4141C81.3281 47.1693 80.8542 47.0469 80.3125 47.0469C79.7344 47.0469 79.2266 47.1875 78.7891 47.4687C78.3516 47.7448 78.0104 48.1094 77.7656 48.5625C77.526 49.0104 77.4036 49.5026 77.3984 50.0391V51.7031C77.3984 52.401 77.526 53 77.7812 53.5C78.0365 53.9948 78.3932 54.375 78.8516 54.6406C79.3099 54.901 79.8464 55.0312 80.4609 55.0312C80.8724 55.0312 81.2448 54.974 81.5781 54.8594C81.9115 54.7396 82.2005 54.5651 82.4453 54.3359C82.6901 54.1068 82.875 53.8229 83 53.4844L85.6406 53.7812C85.474 54.4792 85.1563 55.0885 84.6875 55.6094C84.224 56.125 83.6302 56.526 82.9063 56.8125C82.1823 57.0937 81.3542 57.2344 80.4219 57.2344ZM97.6348 48.1719L95.0566 48.4531C94.9837 48.1927 94.8561 47.9479 94.6738 47.7188C94.4967 47.4896 94.2572 47.3047 93.9551 47.1641C93.653 47.0234 93.2832 46.9531 92.8457 46.9531C92.2572 46.9531 91.7624 47.0807 91.3613 47.3359C90.9655 47.5911 90.7702 47.9219 90.7754 48.3281C90.7702 48.6771 90.8978 48.9609 91.1582 49.1797C91.4238 49.3984 91.8613 49.5781 92.4707 49.7188L94.5176 50.1562C95.653 50.401 96.4967 50.7891 97.0488 51.3203C97.6061 51.8516 97.8874 52.5469 97.8926 53.4062C97.8874 54.1615 97.666 54.8281 97.2285 55.4062C96.7962 55.9792 96.1947 56.4271 95.4238 56.75C94.653 57.0729 93.7676 57.2344 92.7676 57.2344C91.2988 57.2344 90.1165 56.9271 89.2207 56.3125C88.3249 55.6927 87.791 54.8307 87.6191 53.7266L90.377 53.4609C90.502 54.0026 90.7676 54.4115 91.1738 54.6875C91.5801 54.9635 92.1087 55.1016 92.7598 55.1016C93.4316 55.1016 93.9707 54.9635 94.377 54.6875C94.7884 54.4115 94.9941 54.0703 94.9941 53.6641C94.9941 53.3203 94.8613 53.0365 94.5957 52.8125C94.3353 52.5885 93.929 52.4167 93.377 52.2969L91.3301 51.8672C90.179 51.6276 89.3275 51.224 88.7754 50.6562C88.2233 50.0833 87.9499 49.3594 87.9551 48.4844C87.9499 47.7448 88.1504 47.1042 88.5566 46.5625C88.9681 46.0156 89.5384 45.5937 90.2676 45.2969C91.002 44.9948 91.8483 44.8438 92.8066 44.8438C94.2129 44.8438 95.3197 45.1432 96.127 45.7422C96.9395 46.3411 97.4421 47.151 97.6348 48.1719ZM105.807 57V41H108.635V46.9844H108.752C108.898 46.6927 109.104 46.3828 109.369 46.0547C109.635 45.7214 109.994 45.4375 110.447 45.2031C110.9 44.9635 111.479 44.8438 112.182 44.8438C113.109 44.8438 113.945 45.0807 114.689 45.5547C115.439 46.0234 116.033 46.7187 116.471 47.6406C116.913 48.5573 117.135 49.6823 117.135 51.0156C117.135 52.3333 116.919 53.4531 116.486 54.375C116.054 55.2969 115.465 56 114.721 56.4844C113.976 56.9688 113.132 57.2109 112.189 57.2109C111.502 57.2109 110.932 57.0964 110.479 56.8672C110.025 56.638 109.661 56.362 109.385 56.0391C109.114 55.7109 108.903 55.401 108.752 55.1094H108.588V57H105.807ZM108.58 51C108.58 51.776 108.689 52.4557 108.908 53.0391C109.132 53.6224 109.452 54.0781 109.869 54.4062C110.291 54.7292 110.801 54.8906 111.4 54.8906C112.025 54.8906 112.549 54.724 112.971 54.3906C113.393 54.0521 113.71 53.5911 113.924 53.0078C114.143 52.4193 114.252 51.75 114.252 51C114.252 50.2552 114.145 49.5937 113.932 49.0156C113.718 48.4375 113.4 47.9844 112.979 47.6562C112.557 47.3281 112.031 47.1641 111.4 47.1641C110.796 47.1641 110.283 47.3229 109.861 47.6406C109.439 47.9583 109.119 48.4036 108.9 48.9766C108.687 49.5495 108.58 50.224 108.58 51ZM120.889 61.5C120.503 61.5 120.146 61.4688 119.818 61.4063C119.495 61.349 119.238 61.2813 119.045 61.2031L119.701 59C120.113 59.1198 120.48 59.1771 120.803 59.1719C121.126 59.1667 121.41 59.0651 121.654 58.8672C121.904 58.6745 122.115 58.3516 122.287 57.8984L122.529 57.25L118.178 45H121.178L123.943 54.0625H124.068L126.842 45H129.85L125.045 58.4531C124.821 59.0885 124.524 59.6328 124.154 60.0859C123.785 60.5443 123.331 60.8932 122.795 61.1328C122.264 61.3776 121.628 61.5 120.889 61.5ZM137.264 61.5V45H140.045V46.9844H140.209C140.355 46.6927 140.561 46.3828 140.826 46.0547C141.092 45.7214 141.451 45.4375 141.904 45.2031C142.357 44.9635 142.936 44.8438 143.639 44.8438C144.566 44.8438 145.402 45.0807 146.146 45.5547C146.896 46.0234 147.49 46.7187 147.928 47.6406C148.37 48.5573 148.592 49.6823 148.592 51.0156C148.592 52.3333 148.376 53.4531 147.943 54.375C147.511 55.2969 146.923 56 146.178 56.4844C145.433 56.9688 144.589 57.2109 143.646 57.2109C142.959 57.2109 142.389 57.0964 141.936 56.8672C141.482 56.638 141.118 56.362 140.842 56.0391C140.571 55.7109 140.36 55.401 140.209 55.1094H140.092V61.5H137.264ZM140.037 51C140.037 51.776 140.146 52.4557 140.365 53.0391C140.589 53.6224 140.91 54.0781 141.326 54.4062C141.748 54.7292 142.258 54.8906 142.857 54.8906C143.482 54.8906 144.006 54.724 144.428 54.3906C144.85 54.0521 145.167 53.5911 145.381 53.0078C145.6 52.4193 145.709 51.75 145.709 51C145.709 50.2552 145.602 49.5937 145.389 49.0156C145.175 48.4375 144.857 47.9844 144.436 47.6562C144.014 47.3281 143.488 47.1641 142.857 47.1641C142.253 47.1641 141.74 47.3229 141.318 47.6406C140.896 47.9583 140.576 48.4036 140.357 48.9766C140.144 49.5495 140.037 50.224 140.037 51ZM151.014 57V45H153.756V47H153.881C154.1 46.3073 154.475 45.7734 155.006 45.3984C155.542 45.0182 156.154 44.8281 156.842 44.8281C156.998 44.8281 157.173 44.8359 157.365 44.8516C157.563 44.862 157.727 44.8802 157.857 44.9062V47.5078C157.738 47.4661 157.548 47.4297 157.287 47.3984C157.032 47.362 156.785 47.3437 156.545 47.3437C156.029 47.3437 155.566 47.4557 155.154 47.6797C154.748 47.8984 154.428 48.2031 154.193 48.5937C153.959 48.9844 153.842 49.4349 153.842 49.9453V57H151.014ZM164.477 57.2344C163.305 57.2344 162.289 56.9766 161.43 56.4609C160.57 55.9453 159.904 55.224 159.43 54.2969C158.961 53.3698 158.727 52.2865 158.727 51.0469C158.727 49.8073 158.961 48.7214 159.43 47.7891C159.904 46.8568 160.57 46.1328 161.43 45.6172C162.289 45.1016 163.305 44.8438 164.477 44.8438C165.648 44.8438 166.664 45.1016 167.523 45.6172C168.383 46.1328 169.047 46.8568 169.516 47.7891C169.99 48.7214 170.227 49.8073 170.227 51.0469C170.227 52.2865 169.99 53.3698 169.516 54.2969C169.047 55.224 168.383 55.9453 167.523 56.4609C166.664 56.9766 165.648 57.2344 164.477 57.2344ZM164.492 54.9687C165.128 54.9687 165.659 54.7943 166.086 54.4453C166.513 54.0911 166.831 53.6172 167.039 53.0234C167.253 52.4297 167.359 51.7682 167.359 51.0391C167.359 50.3047 167.253 49.6406 167.039 49.0469C166.831 48.4479 166.513 47.9714 166.086 47.6172C165.659 47.263 165.128 47.0859 164.492 47.0859C163.841 47.0859 163.299 47.263 162.867 47.6172C162.44 47.9714 162.12 48.4479 161.906 49.0469C161.698 49.6406 161.594 50.3047 161.594 51.0391C161.594 51.7682 161.698 52.4297 161.906 53.0234C162.12 53.6172 162.44 54.0911 162.867 54.4453C163.299 54.7943 163.841 54.9687 164.492 54.9687ZM177.08 57.2109C176.137 57.2109 175.294 56.9688 174.549 56.4844C173.804 56 173.215 55.2969 172.783 54.375C172.351 53.4531 172.135 52.3333 172.135 51.0156C172.135 49.6823 172.354 48.5573 172.791 47.6406C173.234 46.7187 173.83 46.0234 174.58 45.5547C175.33 45.0807 176.166 44.8438 177.088 44.8438C177.791 44.8438 178.369 44.9635 178.822 45.2031C179.275 45.4375 179.635 45.7214 179.9 46.0547C180.166 46.3828 180.372 46.6927 180.518 46.9844H180.635V41H183.471V57H180.689V55.1094H180.518C180.372 55.401 180.161 55.7109 179.885 56.0391C179.609 56.362 179.244 56.638 178.791 56.8672C178.338 57.0964 177.768 57.2109 177.08 57.2109ZM177.869 54.8906C178.468 54.8906 178.979 54.7292 179.4 54.4062C179.822 54.0781 180.143 53.6224 180.361 53.0391C180.58 52.4557 180.689 51.776 180.689 51C180.689 50.224 180.58 49.5495 180.361 48.9766C180.148 48.4036 179.83 47.9583 179.408 47.6406C178.992 47.3229 178.479 47.1641 177.869 47.1641C177.239 47.1641 176.713 47.3281 176.291 47.6562C175.869 47.9844 175.551 48.4375 175.338 49.0156C175.124 49.5937 175.018 50.2552 175.018 51C175.018 51.75 175.124 52.4193 175.338 53.0078C175.557 53.5911 175.877 54.0521 176.299 54.3906C176.726 54.724 177.249 54.8906 177.869 54.8906ZM194.133 51.9531V45H196.961V57H194.219V54.8672H194.094C193.823 55.5391 193.378 56.0885 192.758 56.5156C192.143 56.9427 191.385 57.1563 190.484 57.1563C189.698 57.1563 189.003 56.9818 188.398 56.6328C187.799 56.2786 187.331 55.7656 186.992 55.0938C186.654 54.4167 186.484 53.599 186.484 52.6406V45H189.313V52.2031C189.313 52.9635 189.521 53.5677 189.938 54.0156C190.354 54.4635 190.901 54.6875 191.578 54.6875C191.995 54.6875 192.398 54.5859 192.789 54.3828C193.18 54.1797 193.5 53.8776 193.75 53.4766C194.005 53.0703 194.133 52.5625 194.133 51.9531ZM205.104 57.2344C203.906 57.2344 202.877 56.9714 202.018 56.4453C201.163 55.9193 200.505 55.1927 200.041 54.2656C199.583 53.3333 199.354 52.2604 199.354 51.0469C199.354 49.8281 199.588 48.7526 200.057 47.8203C200.525 46.8828 201.187 46.1536 202.041 45.6328C202.9 45.1068 203.916 44.8438 205.088 44.8438C206.062 44.8438 206.924 45.0234 207.674 45.3828C208.429 45.737 209.031 46.2396 209.479 46.8906C209.926 47.5365 210.182 48.2917 210.244 49.1562H207.541C207.432 48.5781 207.171 48.0964 206.76 47.7109C206.354 47.3203 205.809 47.125 205.127 47.125C204.549 47.125 204.041 47.2812 203.604 47.5937C203.166 47.901 202.825 48.3437 202.58 48.9219C202.34 49.5 202.221 50.1927 202.221 51C202.221 51.8177 202.34 52.5208 202.58 53.1094C202.82 53.6927 203.156 54.1432 203.588 54.4609C204.025 54.7734 204.538 54.9297 205.127 54.9297C205.544 54.9297 205.916 54.8516 206.244 54.6953C206.577 54.5339 206.856 54.3021 207.08 54C207.304 53.6979 207.458 53.3307 207.541 52.8984H210.244C210.176 53.7474 209.926 54.5 209.494 55.1562C209.062 55.8073 208.473 56.3177 207.729 56.6875C206.984 57.0521 206.109 57.2344 205.104 57.2344ZM218.559 45V47.1875H211.66V45H218.559ZM213.363 42.125H216.191V53.3906C216.191 53.7708 216.249 54.0625 216.363 54.2656C216.483 54.4635 216.639 54.599 216.832 54.6719C217.025 54.7448 217.238 54.7812 217.473 54.7812C217.65 54.7812 217.811 54.7682 217.957 54.7422C218.108 54.7161 218.223 54.6927 218.301 54.6719L218.777 56.8828C218.626 56.9349 218.41 56.9922 218.129 57.0547C217.853 57.1172 217.514 57.1536 217.113 57.1641C216.405 57.1849 215.767 57.0781 215.199 56.8437C214.632 56.6042 214.181 56.2344 213.848 55.7344C213.52 55.2344 213.358 54.6094 213.363 53.8594V42.125ZM228.857 57L225.467 45H228.35L230.459 53.4375H230.568L232.725 45H235.576L237.732 53.3906H237.85L239.928 45H242.818L239.42 57H236.475L234.225 48.8906H234.061L231.811 57H228.857ZM244.793 57V45H247.621V57H244.793ZM246.215 43.2969C245.767 43.2969 245.382 43.1484 245.059 42.8516C244.736 42.5495 244.574 42.1875 244.574 41.7656C244.574 41.3385 244.736 40.9766 245.059 40.6797C245.382 40.3776 245.767 40.2266 246.215 40.2266C246.668 40.2266 247.053 40.3776 247.371 40.6797C247.694 40.9766 247.855 41.3385 247.855 41.7656C247.855 42.1875 247.694 42.5495 247.371 42.8516C247.053 43.1484 246.668 43.2969 246.215 43.2969ZM256.521 45V47.1875H249.623V45H256.521ZM251.326 42.125H254.154V53.3906C254.154 53.7708 254.212 54.0625 254.326 54.2656C254.446 54.4635 254.602 54.599 254.795 54.6719C254.988 54.7448 255.201 54.7812 255.436 54.7812C255.613 54.7812 255.774 54.7682 255.92 54.7422C256.071 54.7161 256.186 54.6927 256.264 54.6719L256.74 56.8828C256.589 56.9349 256.373 56.9922 256.092 57.0547C255.816 57.1172 255.477 57.1536 255.076 57.1641C254.368 57.1849 253.73 57.0781 253.162 56.8437C252.594 56.6042 252.144 56.2344 251.811 55.7344C251.482 55.2344 251.321 54.6094 251.326 53.8594V42.125ZM261.973 49.9687V57H259.145V41H261.91V47.0391H262.051C262.332 46.362 262.767 45.8281 263.355 45.4375C263.949 45.0417 264.704 44.8438 265.621 44.8438C266.454 44.8438 267.181 45.0182 267.801 45.3672C268.421 45.7161 268.9 46.2266 269.238 46.8984C269.582 47.5703 269.754 48.3906 269.754 49.3594V57H266.926V49.7969C266.926 48.9896 266.717 48.362 266.301 47.9141C265.889 47.4609 265.311 47.2344 264.566 47.2344C264.066 47.2344 263.618 47.3437 263.223 47.5625C262.832 47.776 262.525 48.0859 262.301 48.4922C262.082 48.8984 261.973 49.3906 261.973 49.9687ZM278.219 57V41H281.047V46.9844H281.164C281.31 46.6927 281.516 46.3828 281.781 46.0547C282.047 45.7214 282.406 45.4375 282.859 45.2031C283.313 44.9635 283.891 44.8438 284.594 44.8438C285.521 44.8438 286.357 45.0807 287.102 45.5547C287.852 46.0234 288.445 46.7187 288.883 47.6406C289.326 48.5573 289.547 49.6823 289.547 51.0156C289.547 52.3333 289.331 53.4531 288.898 54.375C288.466 55.2969 287.878 56 287.133 56.4844C286.388 56.9688 285.544 57.2109 284.602 57.2109C283.914 57.2109 283.344 57.0964 282.891 56.8672C282.438 56.638 282.073 56.362 281.797 56.0391C281.526 55.7109 281.315 55.401 281.164 55.1094H281V57H278.219ZM280.992 51C280.992 51.776 281.102 52.4557 281.32 53.0391C281.544 53.6224 281.865 54.0781 282.281 54.4062C282.703 54.7292 283.214 54.8906 283.813 54.8906C284.438 54.8906 284.961 54.724 285.383 54.3906C285.805 54.0521 286.122 53.5911 286.336 53.0078C286.555 52.4193 286.664 51.75 286.664 51C286.664 50.2552 286.557 49.5937 286.344 49.0156C286.13 48.4375 285.813 47.9844 285.391 47.6562C284.969 47.3281 284.443 47.1641 283.813 47.1641C283.208 47.1641 282.695 47.3229 282.273 47.6406C281.852 47.9583 281.531 48.4036 281.313 48.9766C281.099 49.5495 280.992 50.224 280.992 51ZM295.404 57.2422C294.644 57.2422 293.959 57.1068 293.35 56.8359C292.745 56.5599 292.266 56.1536 291.912 55.6172C291.563 55.0807 291.389 54.4193 291.389 53.6328C291.389 52.9557 291.514 52.3958 291.764 51.9531C292.014 51.5104 292.355 51.1562 292.787 50.8906C293.219 50.625 293.706 50.4245 294.248 50.2891C294.795 50.1484 295.36 50.0469 295.943 49.9844C296.646 49.9115 297.217 49.8464 297.654 49.7891C298.092 49.7266 298.41 49.6328 298.607 49.5078C298.811 49.3776 298.912 49.1771 298.912 48.9062V48.8594C298.912 48.2708 298.738 47.8151 298.389 47.4922C298.04 47.1693 297.537 47.0078 296.881 47.0078C296.188 47.0078 295.639 47.1589 295.232 47.4609C294.831 47.763 294.561 48.1198 294.42 48.5312L291.779 48.1562C291.988 47.4271 292.331 46.8177 292.811 46.3281C293.29 45.8333 293.876 45.4635 294.568 45.2187C295.261 44.9688 296.027 44.8438 296.865 44.8438C297.443 44.8438 298.019 44.9115 298.592 45.0469C299.165 45.1823 299.688 45.4062 300.162 45.7187C300.636 46.026 301.016 46.4453 301.303 46.9766C301.594 47.5078 301.74 48.1719 301.74 48.9687V57H299.021V55.3516H298.928C298.756 55.6849 298.514 55.9974 298.201 56.2891C297.894 56.5755 297.506 56.8073 297.037 56.9844C296.574 57.1563 296.029 57.2422 295.404 57.2422ZM296.139 55.1641C296.706 55.1641 297.199 55.0521 297.615 54.8281C298.032 54.599 298.352 54.2969 298.576 53.9219C298.805 53.5469 298.92 53.138 298.92 52.6953V51.2812C298.831 51.3542 298.68 51.4219 298.467 51.4844C298.258 51.5469 298.024 51.6016 297.764 51.6484C297.503 51.6953 297.245 51.737 296.99 51.7734C296.735 51.8099 296.514 51.8411 296.326 51.8672C295.904 51.9245 295.527 52.0182 295.193 52.1484C294.86 52.2786 294.597 52.4609 294.404 52.6953C294.212 52.9245 294.115 53.2214 294.115 53.5859C294.115 54.1068 294.305 54.5 294.686 54.7656C295.066 55.0312 295.55 55.1641 296.139 55.1641ZM314.068 48.1719L311.49 48.4531C311.417 48.1927 311.29 47.9479 311.107 47.7188C310.93 47.4896 310.691 47.3047 310.389 47.1641C310.087 47.0234 309.717 46.9531 309.279 46.9531C308.691 46.9531 308.196 47.0807 307.795 47.3359C307.399 47.5911 307.204 47.9219 307.209 48.3281C307.204 48.6771 307.331 48.9609 307.592 49.1797C307.857 49.3984 308.295 49.5781 308.904 49.7188L310.951 50.1562C312.087 50.401 312.93 50.7891 313.482 51.3203C314.04 51.8516 314.321 52.5469 314.326 53.4062C314.321 54.1615 314.1 54.8281 313.662 55.4062C313.23 55.9792 312.628 56.4271 311.857 56.75C311.087 57.0729 310.201 57.2344 309.201 57.2344C307.732 57.2344 306.55 56.9271 305.654 56.3125C304.758 55.6927 304.225 54.8307 304.053 53.7266L306.811 53.4609C306.936 54.0026 307.201 54.4115 307.607 54.6875C308.014 54.9635 308.542 55.1016 309.193 55.1016C309.865 55.1016 310.404 54.9635 310.811 54.6875C311.222 54.4115 311.428 54.0703 311.428 53.6641C311.428 53.3203 311.295 53.0365 311.029 52.8125C310.769 52.5885 310.363 52.4167 309.811 52.2969L307.764 51.8672C306.613 51.6276 305.761 51.224 305.209 50.6562C304.657 50.0833 304.383 49.3594 304.389 48.4844C304.383 47.7448 304.584 47.1042 304.99 46.5625C305.402 46.0156 305.972 45.5937 306.701 45.2969C307.436 44.9948 308.282 44.8438 309.24 44.8438C310.646 44.8438 311.753 45.1432 312.561 45.7422C313.373 46.3411 313.876 47.151 314.068 48.1719ZM321.971 57.2344C320.768 57.2344 319.729 56.9844 318.854 56.4844C317.984 55.9792 317.314 55.2656 316.846 54.3437C316.377 53.4167 316.143 52.3255 316.143 51.0703C316.143 49.8359 316.377 48.7526 316.846 47.8203C317.32 46.8828 317.981 46.1536 318.83 45.6328C319.679 45.1068 320.676 44.8438 321.822 44.8438C322.562 44.8438 323.26 44.9635 323.916 45.2031C324.577 45.4375 325.161 45.8021 325.666 46.2969C326.176 46.7917 326.577 47.4219 326.869 48.1875C327.161 48.9479 327.307 49.8542 327.307 50.9062V51.7734H317.471V49.8672H324.596C324.59 49.3255 324.473 48.8437 324.244 48.4219C324.015 47.9948 323.695 47.6589 323.283 47.4141C322.877 47.1693 322.403 47.0469 321.861 47.0469C321.283 47.0469 320.775 47.1875 320.338 47.4687C319.9 47.7448 319.559 48.1094 319.314 48.5625C319.075 49.0104 318.952 49.5026 318.947 50.0391V51.7031C318.947 52.401 319.075 53 319.33 53.5C319.585 53.9948 319.942 54.375 320.4 54.6406C320.859 54.901 321.395 55.0312 322.01 55.0312C322.421 55.0312 322.794 54.974 323.127 54.8594C323.46 54.7396 323.749 54.5651 323.994 54.3359C324.239 54.1068 324.424 53.8229 324.549 53.4844L327.189 53.7812C327.023 54.4792 326.705 55.0885 326.236 55.6094C325.773 56.125 325.179 56.526 324.455 56.8125C323.731 57.0937 322.903 57.2344 321.971 57.2344ZM332.527 41V57H329.699V41H332.527ZM335.436 57V45H338.264V57H335.436ZM336.857 43.2969C336.41 43.2969 336.024 43.1484 335.701 42.8516C335.378 42.5495 335.217 42.1875 335.217 41.7656C335.217 41.3385 335.378 40.9766 335.701 40.6797C336.024 40.3776 336.41 40.2266 336.857 40.2266C337.311 40.2266 337.696 40.3776 338.014 40.6797C338.337 40.9766 338.498 41.3385 338.498 41.7656C338.498 42.1875 338.337 42.5495 338.014 42.8516C337.696 43.1484 337.311 43.2969 336.857 43.2969ZM344 49.9687V57H341.172V45H343.875V47.0391H344.016C344.292 46.3672 344.732 45.8333 345.336 45.4375C345.945 45.0417 346.698 44.8438 347.594 44.8438C348.422 44.8438 349.143 45.0208 349.758 45.375C350.378 45.7292 350.857 46.2422 351.195 46.9141C351.539 47.5859 351.708 48.401 351.703 49.3594V57H348.875V49.7969C348.875 48.9948 348.667 48.3672 348.25 47.9141C347.839 47.4609 347.268 47.2344 346.539 47.2344C346.044 47.2344 345.604 47.3437 345.219 47.5625C344.839 47.776 344.539 48.0859 344.32 48.4922C344.107 48.8984 344 49.3906 344 49.9687ZM359.891 57.2344C358.688 57.2344 357.648 56.9844 356.773 56.4844C355.904 55.9792 355.234 55.2656 354.766 54.3437C354.297 53.4167 354.063 52.3255 354.063 51.0703C354.063 49.8359 354.297 48.7526 354.766 47.8203C355.24 46.8828 355.901 46.1536 356.75 45.6328C357.599 45.1068 358.596 44.8438 359.742 44.8438C360.482 44.8438 361.18 44.9635 361.836 45.2031C362.497 45.4375 363.081 45.8021 363.586 46.2969C364.096 46.7917 364.497 47.4219 364.789 48.1875C365.081 48.9479 365.227 49.8542 365.227 50.9062V51.7734H355.391V49.8672H362.516C362.51 49.3255 362.393 48.8437 362.164 48.4219C361.935 47.9948 361.615 47.6589 361.203 47.4141C360.797 47.1693 360.323 47.0469 359.781 47.0469C359.203 47.0469 358.695 47.1875 358.258 47.4687C357.82 47.7448 357.479 48.1094 357.234 48.5625C356.995 49.0104 356.872 49.5026 356.867 50.0391V51.7031C356.867 52.401 356.995 53 357.25 53.5C357.505 53.9948 357.862 54.375 358.32 54.6406C358.779 54.901 359.315 55.0312 359.93 55.0312C360.341 55.0312 360.714 54.974 361.047 54.8594C361.38 54.7396 361.669 54.5651 361.914 54.3359C362.159 54.1068 362.344 53.8229 362.469 53.4844L365.109 53.7812C364.943 54.4792 364.625 55.0885 364.156 55.6094C363.693 56.125 363.099 56.526 362.375 56.8125C361.651 57.0937 360.823 57.2344 359.891 57.2344Z" fill="#3A3A3A"></path><path d="M45.9602 115.159C45.2481 115.159 44.608 115.023 44.0398 114.75C43.4754 114.473 43.0246 114.095 42.6875 113.614C42.3504 113.133 42.1705 112.583 42.1477 111.966H43.8523C43.8939 112.466 44.1155 112.877 44.517 113.199C44.9186 113.521 45.3996 113.682 45.9602 113.682C46.4072 113.682 46.803 113.58 47.1477 113.375C47.4962 113.167 47.7689 112.881 47.9659 112.517C48.1667 112.153 48.267 111.739 48.267 111.273C48.267 110.799 48.1648 110.377 47.9602 110.006C47.7557 109.634 47.4735 109.343 47.1136 109.131C46.7576 108.919 46.3485 108.811 45.8864 108.807C45.5341 108.807 45.1799 108.867 44.8239 108.989C44.4678 109.11 44.1799 109.269 43.9602 109.466L42.3523 109.227L43.0057 103.364H49.4034V104.869H44.4659L44.0966 108.125H44.1648C44.392 107.905 44.6932 107.722 45.0682 107.574C45.447 107.426 45.8523 107.352 46.2841 107.352C46.9924 107.352 47.6231 107.521 48.1761 107.858C48.733 108.195 49.1705 108.655 49.4886 109.239C49.8106 109.818 49.9697 110.485 49.9659 111.239C49.9697 111.992 49.7992 112.665 49.4545 113.256C49.1136 113.847 48.6402 114.312 48.0341 114.653C47.4318 114.991 46.7405 115.159 45.9602 115.159ZM56.0923 115.193C55.1946 115.189 54.4276 114.953 53.7912 114.483C53.1548 114.013 52.6681 113.33 52.331 112.432C51.9938 111.534 51.8253 110.453 51.8253 109.188C51.8253 107.926 51.9938 106.848 52.331 105.955C52.6719 105.061 53.1605 104.379 53.7969 103.909C54.437 103.439 55.2022 103.205 56.0923 103.205C56.9825 103.205 57.7457 103.441 58.3821 103.915C59.0185 104.384 59.5052 105.066 59.8423 105.96C60.1832 106.85 60.3537 107.926 60.3537 109.188C60.3537 110.456 60.1851 111.54 59.848 112.438C59.5109 113.331 59.0241 114.015 58.3878 114.489C57.7514 114.958 56.9863 115.193 56.0923 115.193ZM56.0923 113.676C56.8802 113.676 57.4957 113.292 57.9389 112.523C58.3859 111.754 58.6094 110.642 58.6094 109.188C58.6094 108.222 58.5071 107.405 58.3026 106.739C58.1018 106.068 57.812 105.561 57.4332 105.216C57.0582 104.867 56.6113 104.693 56.0923 104.693C55.3082 104.693 54.6927 105.08 54.2457 105.852C53.7988 106.625 53.5734 107.737 53.5696 109.188C53.5696 110.157 53.67 110.977 53.8707 111.648C54.0753 112.314 54.3651 112.82 54.7401 113.165C55.1151 113.506 55.5658 113.676 56.0923 113.676ZM66.4205 115.193C65.5227 115.189 64.7557 114.953 64.1193 114.483C63.483 114.013 62.9962 113.33 62.6591 112.432C62.322 111.534 62.1534 110.453 62.1534 109.188C62.1534 107.926 62.322 106.848 62.6591 105.955C63 105.061 63.4886 104.379 64.125 103.909C64.7652 103.439 65.5303 103.205 66.4205 103.205C67.3106 103.205 68.0739 103.441 68.7102 103.915C69.3466 104.384 69.8333 105.066 70.1705 105.96C70.5114 106.85 70.6818 107.926 70.6818 109.188C70.6818 110.456 70.5133 111.54 70.1761 112.438C69.839 113.331 69.3523 114.015 68.7159 114.489C68.0795 114.958 67.3144 115.193 66.4205 115.193ZM66.4205 113.676C67.2083 113.676 67.8239 113.292 68.267 112.523C68.714 111.754 68.9375 110.642 68.9375 109.188C68.9375 108.222 68.8352 107.405 68.6307 106.739C68.4299 106.068 68.1402 105.561 67.7614 105.216C67.3864 104.867 66.9394 104.693 66.4205 104.693C65.6364 104.693 65.0208 105.08 64.5739 105.852C64.1269 106.625 63.9015 107.737 63.8977 109.188C63.8977 110.157 63.9981 110.977 64.1989 111.648C64.4034 112.314 64.6932 112.82 65.0682 113.165C65.4432 113.506 65.8939 113.676 66.4205 113.676ZM76.7486 115.193C75.8509 115.189 75.0838 114.953 74.4474 114.483C73.8111 114.013 73.3243 113.33 72.9872 112.432C72.6501 111.534 72.4815 110.453 72.4815 109.188C72.4815 107.926 72.6501 106.848 72.9872 105.955C73.3281 105.061 73.8168 104.379 74.4531 103.909C75.0933 103.439 75.8584 103.205 76.7486 103.205C77.6387 103.205 78.402 103.441 79.0384 103.915C79.6747 104.384 80.1615 105.066 80.4986 105.96C80.8395 106.85 81.0099 107.926 81.0099 109.188C81.0099 110.456 80.8414 111.54 80.5043 112.438C80.1671 113.331 79.6804 114.015 79.044 114.489C78.4077 114.958 77.6425 115.193 76.7486 115.193ZM76.7486 113.676C77.5365 113.676 78.152 113.292 78.5952 112.523C79.0421 111.754 79.2656 110.642 79.2656 109.188C79.2656 108.222 79.1634 107.405 78.9588 106.739C78.758 106.068 78.4683 105.561 78.0895 105.216C77.7145 104.867 77.2675 104.693 76.7486 104.693C75.9645 104.693 75.349 105.08 74.902 105.852C74.455 106.625 74.2296 107.737 74.2259 109.188C74.2259 110.157 74.3262 110.977 74.527 111.648C74.7315 112.314 75.0213 112.82 75.3963 113.165C75.7713 113.506 76.2221 113.676 76.7486 113.676ZM87.0767 115.193C86.179 115.189 85.4119 114.953 84.7756 114.483C84.1392 114.013 83.6525 113.33 83.3153 112.432C82.9782 111.534 82.8097 110.453 82.8097 109.188C82.8097 107.926 82.9782 106.848 83.3153 105.955C83.6563 105.061 84.1449 104.379 84.7812 103.909C85.4214 103.439 86.1866 103.205 87.0767 103.205C87.9669 103.205 88.7301 103.441 89.3665 103.915C90.0028 104.384 90.4896 105.066 90.8267 105.96C91.1676 106.85 91.3381 107.926 91.3381 109.188C91.3381 110.456 91.1695 111.54 90.8324 112.438C90.4953 113.331 90.0085 114.015 89.3722 114.489C88.7358 114.958 87.9706 115.193 87.0767 115.193ZM87.0767 113.676C87.8646 113.676 88.4801 113.292 88.9233 112.523C89.3703 111.754 89.5938 110.642 89.5938 109.188C89.5938 108.222 89.4915 107.405 89.2869 106.739C89.0862 106.068 88.7964 105.561 88.4176 105.216C88.0426 104.867 87.5956 104.693 87.0767 104.693C86.2926 104.693 85.6771 105.08 85.2301 105.852C84.7831 106.625 84.5578 107.737 84.554 109.188C84.554 110.157 84.6544 110.977 84.8551 111.648C85.0597 112.314 85.3494 112.82 85.7244 113.165C86.0994 113.506 86.5502 113.676 87.0767 113.676ZM97.4048 115.193C96.5071 115.189 95.7401 114.953 95.1037 114.483C94.4673 114.013 93.9806 113.33 93.6435 112.432C93.3063 111.534 93.1378 110.453 93.1378 109.188C93.1378 107.926 93.3063 106.848 93.6435 105.955C93.9844 105.061 94.473 104.379 95.1094 103.909C95.7495 103.439 96.5147 103.205 97.4048 103.205C98.295 103.205 99.0582 103.441 99.6946 103.915C100.331 104.384 100.818 105.066 101.155 105.96C101.496 106.85 101.666 107.926 101.666 109.188C101.666 110.456 101.498 111.54 101.161 112.438C100.823 113.331 100.337 114.015 99.7003 114.489C99.0639 114.958 98.2988 115.193 97.4048 115.193ZM97.4048 113.676C98.1927 113.676 98.8082 113.292 99.2514 112.523C99.6984 111.754 99.9219 110.642 99.9219 109.188C99.9219 108.222 99.8196 107.405 99.6151 106.739C99.4143 106.068 99.1245 105.561 98.7457 105.216C98.3707 104.867 97.9238 104.693 97.4048 104.693C96.6207 104.693 96.0052 105.08 95.5582 105.852C95.1113 106.625 94.8859 107.737 94.8821 109.188C94.8821 110.157 94.9825 110.977 95.1832 111.648C95.3878 112.314 95.6776 112.82 96.0526 113.165C96.4276 113.506 96.8783 113.676 97.4048 113.676Z" fill="#3A3A3A"></path><rect x="41" y="270" width="45.4545" height="9.09091" rx="4.54545" fill="#F1F1F1"></rect><rect x="41" y="190" width="45.4545" height="9.09091" rx="4.54545" fill="#EBEBEB"></rect><rect x="41" y="347" width="45.4545" height="9.09091" rx="4.54545" fill="#F1F1F1"></rect><rect x="140" y="104" width="29" height="311" rx="10" fill="#D8D8D8"></rect><rect x="206" y="192" width="29" height="223" rx="10" fill="#EBEBEB"></rect><rect x="173" y="209" width="29" height="199" rx="10" fill="#D8D8D8"></rect><rect x="239" y="163" width="29" height="273" rx="10" fill="#EBEBEB"></rect><rect x="371" y="284" width="29" height="117" rx="10" fill="#F7F7F7"></rect><rect x="272" y="238" width="29" height="223" rx="10" fill="#F1F1F1"></rect><rect x="404" y="185" width="29" height="223" rx="10" fill="#F7F7F7"></rect><rect x="305" y="199" width="29" height="223" rx="10" fill="#F1F1F1"></rect><rect x="437" y="304" width="29" height="92" rx="10" fill="#F7F7F7"></rect><rect x="338" y="262" width="29" height="199" rx="10" fill="#F7F7F7"></rect><rect x="470" y="254" width="29" height="154" rx="10" fill="#F7F7F7"></rect></g></g><rect x="0.682554" y="-733.318" width="1634.22" height="1122.63" rx="13.0153" stroke="#D8D8D8" stroke-width="0.634893"></rect></g><defs><clipPath id="clip0_3072_3118"><path d="M0 0H519C530.046 0 539 8.95431 539 20V390H0V0Z" fill="white"></path></clipPath><clipPath id="clip1_3072_3118"><path d="M1 -666.972H1634.59V388.999H13.5C6.59644 388.999 1 383.403 1 376.499V-666.972Z" fill="white"></path></clipPath><clipPath id="clip2_3072_3118"><rect x="1" y="-666.972" width="1633.59" height="1055.97" rx="9.45364" fill="white"></rect></clipPath></defs></svg>