<svg xmlns="http://www.w3.org/2000/svg" width="539" height="314" viewBox="0 0 539 314" fill="none"><g clip-path="url(#clip0_3069_2876)"><path d="M1 -742.971H1634.59V313H14.4499C7.0217 313 1 306.978 1 299.55V-742.971Z" fill="#FBFBFB"></path><g clip-path="url(#clip1_3069_2876)"><path d="M58.283 63.4925H52.291V45.8103H58.4038C60.1594 45.8103 61.6675 46.1643 62.9279 46.8722C64.1943 47.5745 65.167 48.5847 65.8462 49.9027C66.5253 51.2209 66.865 52.798 66.865 54.6342C66.865 56.476 66.5225 58.0589 65.8375 59.3828C65.1584 60.7066 64.177 61.7225 62.8934 62.4305C61.6156 63.1384 60.0787 63.4925 58.283 63.4925ZM55.4941 60.7211H58.1275C59.3592 60.7211 60.3867 60.4966 61.2098 60.0476C62.033 59.5928 62.6516 58.9165 63.0661 58.0185C63.4805 57.1149 63.6877 55.9868 63.6877 54.6342C63.6877 53.2814 63.4805 52.1591 63.0661 51.2669C62.6516 50.369 62.0386 49.6984 61.2271 49.2552C60.4213 48.8062 59.4197 48.5817 58.2224 48.5817H55.4941V60.7211ZM73.5865 63.7602C72.7461 63.7602 71.9891 63.6105 71.3158 63.3112C70.648 63.0061 70.1185 62.5571 69.7271 61.9643C69.3415 61.3714 69.1487 60.6404 69.1487 59.7712C69.1487 59.0231 69.2867 58.4043 69.5631 57.9149C69.8393 57.4257 70.2163 57.0344 70.6941 56.7408C71.1718 56.4472 71.7101 56.2256 72.3087 56.0759C72.913 55.9206 73.5376 55.8083 74.1822 55.7392C74.9592 55.6587 75.5895 55.5867 76.073 55.5233C76.5565 55.4543 76.9077 55.3507 77.1263 55.2125C77.3508 55.0687 77.4631 54.847 77.4631 54.5477V54.496C77.4631 53.8456 77.2702 53.3419 76.8846 52.9851C76.4989 52.6282 75.9435 52.4498 75.2183 52.4498C74.4527 52.4498 73.8454 52.6167 73.3965 52.9505C72.9533 53.2844 72.654 53.6787 72.4986 54.1333L69.5804 53.7189C69.8106 52.9131 70.1905 52.2396 70.72 51.6986C71.2496 51.1517 71.8972 50.7431 72.6626 50.4726C73.4282 50.1962 74.2743 50.0582 75.201 50.0582C75.8399 50.0582 76.476 50.133 77.109 50.2827C77.7423 50.4323 78.3206 50.6798 78.8445 51.0252C79.3683 51.3647 79.7885 51.828 80.1051 52.4152C80.4274 53.0024 80.5885 53.7362 80.5885 54.6169V63.4925H77.584V61.6707H77.4804C77.2904 62.0391 77.0227 62.3845 76.6774 62.7068C76.3378 63.0234 75.9089 63.2795 75.3909 63.4752C74.8786 63.6651 74.2771 63.7602 73.5865 63.7602ZM74.398 61.4635C75.0254 61.4635 75.5694 61.3397 76.0298 61.0922C76.4903 60.839 76.8443 60.5052 77.0918 60.0907C77.345 59.6763 77.4717 59.2245 77.4717 58.7352V57.1724C77.3739 57.2531 77.207 57.3279 76.971 57.3969C76.7407 57.4661 76.4816 57.5265 76.1939 57.5782C75.9061 57.6301 75.6212 57.6761 75.3392 57.7164C75.0572 57.7568 74.8124 57.7912 74.6052 57.82C74.1391 57.8833 73.7217 57.9869 73.3534 58.1308C72.985 58.2748 72.6943 58.4762 72.4813 58.7352C72.2683 58.9885 72.1619 59.3166 72.1619 59.7195C72.1619 60.295 72.3719 60.7296 72.7921 61.0232C73.2124 61.3167 73.7476 61.4635 74.398 61.4635ZM90.3534 50.2308V52.6483H82.7297V50.2308H90.3534ZM84.6119 47.0535H87.7373V59.5037C87.7373 59.9239 87.8007 60.2461 87.9274 60.4706C88.0598 60.6893 88.2324 60.839 88.4454 60.9196C88.6584 61.0001 88.8944 61.0405 89.1533 61.0405C89.349 61.0405 89.5274 61.026 89.6886 60.9973C89.8555 60.9685 89.9822 60.9426 90.0686 60.9196L90.5952 63.3629C90.4282 63.4205 90.1894 63.4838 89.8786 63.5528C89.5735 63.622 89.1994 63.6623 88.7562 63.6737C87.9734 63.6968 87.2682 63.5788 86.6408 63.3198C86.0135 63.055 85.5155 62.6464 85.1472 62.0938C84.7847 61.5412 84.6062 60.8505 84.6119 60.0217V47.0535ZM96.7835 63.7602C95.9431 63.7602 95.1863 63.6105 94.5128 63.3112C93.8452 63.0061 93.3155 62.5571 92.9242 61.9643C92.5385 61.3714 92.3457 60.6404 92.3457 59.7712C92.3457 59.0231 92.4839 58.4043 92.7601 57.9149C93.0365 57.4257 93.4135 57.0344 93.8912 56.7408C94.369 56.4472 94.9071 56.2256 95.5057 56.0759C96.1101 55.9206 96.7346 55.8083 97.3793 55.7392C98.1563 55.6587 98.7867 55.5867 99.2701 55.5233C99.7536 55.4543 100.105 55.3507 100.323 55.2125C100.548 55.0687 100.66 54.847 100.66 54.5477V54.496C100.66 53.8456 100.467 53.3419 100.082 52.9851C99.6961 52.6282 99.1405 52.4498 98.4153 52.4498C97.6498 52.4498 97.0426 52.6167 96.5936 52.9505C96.1504 53.2844 95.8511 53.6787 95.6957 54.1333L92.7774 53.7189C93.0076 52.9131 93.3875 52.2396 93.917 51.6986C94.4466 51.1517 95.0942 50.7431 95.8598 50.4726C96.6252 50.1962 97.4713 50.0582 98.3981 50.0582C99.0369 50.0582 99.673 50.133 100.306 50.2827C100.939 50.4323 101.518 50.6798 102.042 51.0252C102.565 51.3647 102.986 51.828 103.302 52.4152C103.624 53.0024 103.786 53.7362 103.786 54.6169V63.4925H100.781V61.6707H100.677C100.487 62.0391 100.22 62.3845 99.8745 62.7068C99.5348 63.0234 99.1061 63.2795 98.588 63.4752C98.0758 63.6651 97.4743 63.7602 96.7835 63.7602ZM97.5952 61.4635C98.2225 61.4635 98.7664 61.3397 99.227 61.0922C99.6875 60.839 100.041 60.5052 100.289 60.0907C100.542 59.6763 100.669 59.2245 100.669 58.7352V57.1724C100.571 57.2531 100.404 57.3279 100.168 57.3969C99.9377 57.4661 99.6788 57.5265 99.391 57.5782C99.1031 57.6301 98.8183 57.6761 98.5362 57.7164C98.2542 57.7568 98.0096 57.7912 97.8024 57.82C97.3361 57.8833 96.9187 57.9869 96.5504 58.1308C96.1821 58.2748 95.8914 58.4762 95.6784 58.7352C95.4654 58.9885 95.3589 59.3166 95.3589 59.7195C95.3589 60.295 95.5691 60.7296 95.9892 61.0232C96.4094 61.3167 96.9447 61.4635 97.5952 61.4635ZM115.368 63.4925H111.949L118.174 45.8103H122.128L128.362 63.4925H124.943L120.22 49.4366H120.082L115.368 63.4925ZM115.48 56.5595H124.805V59.1323H115.48V56.5595ZM133.678 55.722V63.4925H130.553V50.2308H133.54V52.4842H133.696C134.001 51.7417 134.487 51.1517 135.155 50.7144C135.828 50.2769 136.66 50.0582 137.65 50.0582C138.565 50.0582 139.362 50.2539 140.041 50.6452C140.726 51.0367 141.256 51.6037 141.63 52.3462C142.01 53.0887 142.197 53.9895 142.191 55.0486V63.4925H139.066V55.532C139.066 54.6456 138.836 53.9521 138.375 53.4513C137.92 52.9505 137.29 52.7001 136.484 52.7001C135.937 52.7001 135.451 52.821 135.025 53.0627C134.605 53.2987 134.274 53.6412 134.032 54.0902C133.796 54.5391 133.678 55.083 133.678 55.722ZM149.185 63.7602C148.345 63.7602 147.587 63.6105 146.914 63.3112C146.246 63.0061 145.716 62.5571 145.326 61.9643C144.94 61.3714 144.747 60.6404 144.747 59.7712C144.747 59.0231 144.885 58.4043 145.161 57.9149C145.438 57.4257 145.815 57.0344 146.293 56.7408C146.77 56.4472 147.309 56.2256 147.907 56.0759C148.511 55.9206 149.136 55.8083 149.78 55.7392C150.557 55.6587 151.188 55.5867 151.671 55.5233C152.155 55.4543 152.506 55.3507 152.725 55.2125C152.949 55.0687 153.061 54.847 153.061 54.5477V54.496C153.061 53.8456 152.868 53.3419 152.483 52.9851C152.097 52.6282 151.542 52.4498 150.816 52.4498C150.051 52.4498 149.444 52.6167 148.994 52.9505C148.551 53.2844 148.253 53.6787 148.097 54.1333L145.179 53.7189C145.408 52.9131 145.789 52.2396 146.319 51.6986C146.848 51.1517 147.495 50.7431 148.261 50.4726C149.027 50.1962 149.872 50.0582 150.799 50.0582C151.438 50.0582 152.074 50.133 152.707 50.2827C153.341 50.4323 153.919 50.6798 154.443 51.0252C154.966 51.3647 155.387 51.828 155.703 52.4152C156.026 53.0024 156.187 53.7362 156.187 54.6169V63.4925H153.182V61.6707H153.079C152.888 62.0391 152.621 62.3845 152.275 62.7068C151.936 63.0234 151.507 63.2795 150.989 63.4752C150.477 63.6651 149.875 63.7602 149.185 63.7602ZM149.997 61.4635C150.623 61.4635 151.168 61.3397 151.628 61.0922C152.089 60.839 152.443 60.5052 152.69 60.0907C152.944 59.6763 153.069 59.2245 153.069 58.7352V57.1724C152.972 57.2531 152.805 57.3279 152.57 57.3969C152.339 57.4661 152.079 57.5265 151.792 57.5782C151.504 57.6301 151.219 57.6761 150.938 57.7164C150.656 57.7568 150.411 57.7912 150.203 57.82C149.737 57.8833 149.32 57.9869 148.951 58.1308C148.584 58.2748 148.292 58.4762 148.08 58.7352C147.866 58.9885 147.76 59.3166 147.76 59.7195C147.76 60.295 147.971 60.7296 148.391 61.0232C148.811 61.3167 149.346 61.4635 149.997 61.4635ZM162.454 45.8103V63.4925H159.33V45.8103H162.454ZM167.611 68.4656C167.186 68.4656 166.791 68.4311 166.428 68.362C166.072 68.2986 165.787 68.2238 165.574 68.1375L166.3 65.7028C166.754 65.8352 167.16 65.8985 167.517 65.8927C167.873 65.8869 168.187 65.7746 168.458 65.556C168.734 65.343 168.967 64.9861 169.157 64.4854L169.424 63.7687L164.615 50.2308H167.931L170.987 60.2461H171.126L174.191 50.2308H177.515L172.205 65.0983C171.957 65.8006 171.63 66.4021 171.22 66.9029C170.811 67.4094 170.311 67.7951 169.718 68.0598C169.131 68.3304 168.429 68.4656 167.611 68.4656ZM190.159 53.7362L187.31 54.047C187.229 53.7592 187.089 53.4888 186.886 53.2354C186.692 52.9822 186.426 52.7779 186.092 52.6224C185.758 52.4671 185.35 52.3893 184.867 52.3893C184.216 52.3893 183.669 52.5303 183.226 52.8123C182.788 53.0943 182.572 53.4598 182.579 53.9088C182.572 54.2945 182.714 54.6082 183.001 54.85C183.295 55.0917 183.778 55.2903 184.452 55.4457L186.715 55.9292C187.969 56.1998 188.901 56.6285 189.512 57.2157C190.128 57.8027 190.439 58.5711 190.444 59.5209C190.439 60.3556 190.194 61.0922 189.711 61.7311C189.232 62.3643 188.568 62.8593 187.715 63.2163C186.863 63.5731 185.885 63.7515 184.78 63.7515C183.157 63.7515 181.851 63.4118 180.861 62.7327C179.87 62.0477 179.28 61.0951 179.09 59.8748L182.138 59.5813C182.276 60.18 182.569 60.6318 183.019 60.9369C183.467 61.2419 184.052 61.3944 184.771 61.3944C185.514 61.3944 186.109 61.2419 186.558 60.9369C187.013 60.6318 187.24 60.2548 187.24 59.8058C187.24 59.4259 187.094 59.1122 186.8 58.8648C186.512 58.6172 186.064 58.4273 185.453 58.2949L183.192 57.82C181.92 57.5552 180.978 57.1091 180.368 56.4818C179.758 55.8486 179.456 55.0486 179.461 54.0816C179.456 53.2643 179.677 52.5562 180.126 51.9576C180.581 51.3533 181.212 50.887 182.017 50.5589C182.829 50.2251 183.765 50.0582 184.824 50.0582C186.377 50.0582 187.601 50.3891 188.492 51.0511C189.39 51.713 189.946 52.6081 190.159 53.7362ZM193.021 63.4925V50.2308H196.147V63.4925H193.021ZM194.592 48.3487C194.098 48.3487 193.671 48.1846 193.314 47.8565C192.958 47.5226 192.779 47.1227 192.779 46.6564C192.779 46.1845 192.958 45.7844 193.314 45.4563C193.671 45.1225 194.098 44.9556 194.592 44.9556C195.093 44.9556 195.519 45.1225 195.87 45.4563C196.228 45.7844 196.406 46.1845 196.406 46.6564C196.406 47.1227 196.228 47.5226 195.87 47.8565C195.519 48.1846 195.093 48.3487 194.592 48.3487ZM209.842 53.7362L206.993 54.047C206.912 53.7592 206.771 53.4888 206.57 53.2354C206.374 52.9822 206.11 52.7779 205.776 52.6224C205.441 52.4671 205.033 52.3893 204.55 52.3893C203.898 52.3893 203.353 52.5303 202.908 52.8123C202.472 53.0943 202.256 53.4598 202.261 53.9088C202.256 54.2945 202.396 54.6082 202.684 54.85C202.979 55.0917 203.462 55.2903 204.135 55.4457L206.397 55.9292C207.652 56.1998 208.584 56.6285 209.195 57.2157C209.811 57.8027 210.121 58.5711 210.127 59.5209C210.121 60.3556 209.877 61.0922 209.393 61.7311C208.915 62.3643 208.251 62.8593 207.398 63.2163C206.547 63.5731 205.568 63.7515 204.463 63.7515C202.84 63.7515 201.533 63.4118 200.543 62.7327C199.553 62.0477 198.963 61.0951 198.774 59.8748L201.821 59.5813C201.959 60.18 202.253 60.6318 202.702 60.9369C203.15 61.2419 203.735 61.3944 204.455 61.3944C205.197 61.3944 205.792 61.2419 206.242 60.9369C206.696 60.6318 206.924 60.2548 206.924 59.8058C206.924 59.4259 206.777 59.1122 206.484 58.8648C206.196 58.6172 205.746 58.4273 205.137 58.2949L202.875 57.82C201.602 57.5552 200.661 57.1091 200.052 56.4818C199.441 55.8486 199.139 55.0486 199.144 54.0816C199.139 53.2643 199.36 52.5562 199.81 51.9576C200.264 51.3533 200.894 50.887 201.701 50.5589C202.511 50.2251 203.447 50.0582 204.506 50.0582C206.061 50.0582 207.283 50.3891 208.176 51.0511C209.073 51.713 209.63 52.6081 209.842 53.7362Z" fill="#3A3A3A"></path><path d="M114.636 82.7837H55.5454C53.0351 82.7837 51 84.8188 51 87.3291V87.3292C51 89.8395 53.0351 91.8746 55.5454 91.8746H114.636C117.147 91.8746 119.182 89.8395 119.182 87.3291C119.182 84.8188 117.147 82.7837 114.636 82.7837Z" fill="#EBEBEB"></path><path d="M315.773 98.8745H55.5454C53.0351 98.8745 51 100.91 51 103.42C51 105.93 53.0351 107.965 55.5454 107.965H315.773C318.283 107.965 320.318 105.93 320.318 103.42C320.318 100.91 318.283 98.8745 315.773 98.8745Z" fill="#EBEBEB"></path><path d="M51 130.784L51 322.784C51 323.888 51.8954 324.784 53 324.784H97C98.1046 324.784 99 323.888 99 322.784L99 130.784C99 129.679 98.1046 128.784 97 128.784H53C51.8954 128.784 51 129.679 51 130.784Z" fill="#F1F1F1"></path><path d="M271 195.784V313.784C271 314.888 271.895 315.784 273 315.784H317C318.105 315.784 319 314.888 319 313.784V195.784C319 194.679 318.105 193.784 317 193.784H273C271.895 193.784 271 194.679 271 195.784Z" fill="#F1F1F1"></path><path d="M381 220.393V322.174C381 323.615 381.895 324.784 383 324.784H427C428.105 324.784 429 323.615 429 322.174V220.393C429 218.952 428.105 217.784 427 217.784H383C381.895 217.784 381 218.952 381 220.393Z" fill="#F1F1F1"></path><path d="M161 157.784V322.784C161 323.888 161.895 324.784 163 324.784H207C208.105 324.784 209 323.888 209 322.784V157.784C209 156.679 208.105 155.784 207 155.784H163C161.895 155.784 161 156.679 161 157.784Z" fill="#F1F1F1"></path><path d="M99 182.784L99 374.784C99 375.888 99.8954 376.784 101 376.784H145C146.105 376.784 147 375.888 147 374.784V182.784C147 181.679 146.105 180.784 145 180.784H101C99.8954 180.784 99 181.679 99 182.784Z" fill="#EBEBEB"></path><path d="M319 173.784V365.784C319 366.888 319.895 367.784 321 367.784H365C366.105 367.784 367 366.888 367 365.784V173.784C367 172.679 366.105 171.784 365 171.784H321C319.895 171.784 319 172.679 319 173.784Z" fill="#EBEBEB"></path><path d="M429 164.784V349.784C429 350.888 429.895 351.784 431 351.784H475C476.105 351.784 477 350.888 477 349.784V164.784C477 163.679 476.105 162.784 475 162.784H431C429.895 162.784 429 163.679 429 164.784Z" fill="#EBEBEB"></path><path d="M209 145.784V374.784C209 375.888 209.895 376.784 211 376.784H255C256.105 376.784 257 375.888 257 374.784V145.784C257 144.679 256.105 143.784 255 143.784H211C209.895 143.784 209 144.679 209 145.784Z" fill="#EBEBEB"></path></g></g><rect x="0.682554" y="-809.317" width="1634.22" height="1122.63" rx="13.0153" stroke="#D8D8D8" stroke-width="0.634893"></rect><defs><clipPath id="clip0_3069_2876"><path d="M1 -742.971H1634.59V313H14.4499C7.0217 313 1 306.978 1 299.55V-742.971Z" fill="white"></path></clipPath><clipPath id="clip1_3069_2876"><rect x="1" y="-742.971" width="1633.59" height="1055.97" rx="9.45364" fill="white"></rect></clipPath></defs></svg>