<svg xmlns="http://www.w3.org/2000/svg" width="548" height="308" viewBox="0 0 548 308" fill="none"><path d="M0.5 0.5H1046C1051.25 0.5 1055.5 4.75329 1055.5 10V298C1055.5 303.247 1051.25 307.5 1046 307.5H13C6.09646 307.5 0.5 301.904 0.5 295V0.5Z" fill="white"></path><g clip-path="url(#clip0_2845_2404)"><rect x="20" y="20.0005" width="977.273" height="161.364" rx="4.54545" fill="white"></rect><rect x="37.0459" y="80.2278" width="68.1818" height="9.09091" rx="4.54545" fill="#EBEBEB"></rect><rect x="68.8638" y="99.5459" width="68.1818" height="9.09091" rx="4.54545" fill="#EBEBEB"></rect><rect x="52.9546" y="138.182" width="45.4545" height="9.09091" rx="4.54545" fill="#EBEBEB"></rect><rect x="37.0459" y="157.5" width="20.4545" height="9.09091" rx="4.54545" fill="#EBEBEB"></rect><rect x="68.8638" y="118.864" width="269.318" height="9.09091" rx="4.54545" fill="#EBEBEB"></rect><rect width="977.273" height="45.4545" transform="translate(20 20.0005)" fill="#FBFBFB"></rect><rect x="38.1821" y="38.1824" width="68.1818" height="9.09091" rx="4.54545" fill="#EBEBEB"></rect><g clip-path="url(#clip1_2845_2404)"><path d="M116.785 40.4551H123.215C123.329 40.4556 123.44 40.4912 123.534 40.5575C123.628 40.6237 123.702 40.7176 123.745 40.8273C123.788 40.9369 123.799 41.0575 123.776 41.1736C123.753 41.2897 123.698 41.3963 123.618 41.4797L120.408 44.8233C120.355 44.8795 120.291 44.924 120.221 44.9545C120.151 44.9849 120.076 45.0005 120 45.0005C119.924 45.0005 119.849 44.9849 119.779 44.9545C119.709 44.924 119.645 44.8795 119.591 44.8233L116.382 41.4797C116.301 41.3963 116.246 41.2897 116.223 41.1736C116.201 41.0575 116.212 40.9369 116.255 40.8273C116.298 40.7176 116.371 40.6237 116.466 40.5575C116.56 40.4912 116.671 40.4556 116.785 40.4551Z" fill="#3A3A3A"></path></g></g><rect x="20.5682" y="20.5687" width="976.136" height="160.227" rx="3.97727" stroke="#EBEBEB" stroke-width="1.13636"></rect><path d="M23.7811 203.781C24.9001 202.662 26.4177 202.033 28.0002 202.033C29.5826 202.033 31.1003 202.662 32.2192 203.781C33.3382 204.9 33.9668 206.417 33.9668 208C33.9668 209.582 33.3382 211.1 32.2192 212.219C31.1003 213.338 29.5826 213.967 28.0002 213.967C26.4177 213.967 24.9001 213.338 23.7811 212.219C22.6621 211.1 22.0335 209.582 22.0335 208C22.0335 206.417 22.6621 204.9 23.7811 203.781Z" stroke="#E22222" stroke-width="1.4" stroke-linecap="round" stroke-linejoin="round"></path><path d="M29.8862 206.115L26.115 209.886" stroke="#E22222" stroke-width="1.4" stroke-linecap="round" stroke-linejoin="round"></path><path d="M26.1157 206.115L29.887 209.886" stroke="#E22222" stroke-width="1.4" stroke-linecap="round" stroke-linejoin="round"></path><rect x="40" y="203.455" width="45.4545" height="9.09091" rx="4.54545" fill="#F6BDBD"></rect><rect x="20.5" y="224.5" width="60.4545" height="23" rx="3.5" fill="white"></rect><rect x="28" y="231.455" width="45.4545" height="9.09091" rx="4.54545" fill="#EBEBEB"></rect><rect x="20.5" y="224.5" width="60.4545" height="23" rx="3.5" stroke="#C4C4C4"></rect><rect x="85.9546" y="224.5" width="133" height="23" rx="3.5" fill="white"></rect><path d="M100.825 236.276C102.784 234.509 103.12 233.922 104.122 233.666C107.5 232.802 107.863 238.058 104.933 238.39C103.073 238.601 102.192 237.314 100.825 236.276ZM100.825 236.276C100.785 236.309 100.863 236.243 100.825 236.276ZM100.825 236.276C100.07 235.702 98.9174 234.855 98.0796 234.615C95.3923 233.965 95.1314 238.733 98.1064 238.148C99.1248 237.95 99.9982 236.974 100.825 236.276Z" stroke="#3A3A3A" stroke-width="1.14286"></path><rect x="94.026" y="228.571" width="14.8571" height="14.8571" rx="7.42857" stroke="#3A3A3A" stroke-width="1.14286"></rect><path d="M117.239 240H114.413V231.273H117.328C118.183 231.273 118.918 231.447 119.531 231.797C120.145 232.143 120.615 232.642 120.942 233.293C121.271 233.94 121.436 234.717 121.436 235.624C121.436 236.533 121.27 237.314 120.938 237.967C120.608 238.621 120.131 239.124 119.506 239.476C118.881 239.825 118.125 240 117.239 240ZM115.73 238.849H117.166C117.831 238.849 118.384 238.724 118.824 238.474C119.264 238.222 119.594 237.857 119.813 237.379C120.031 236.899 120.141 236.314 120.141 235.624C120.141 234.939 120.031 234.358 119.813 233.881C119.597 233.403 119.274 233.041 118.845 232.794C118.416 232.547 117.884 232.423 117.247 232.423H115.73V238.849ZM125.792 240.132C125.147 240.132 124.592 239.994 124.126 239.719C123.663 239.44 123.305 239.05 123.052 238.547C122.802 238.041 122.677 237.449 122.677 236.77C122.677 236.099 122.802 235.509 123.052 234.997C123.305 234.486 123.657 234.087 124.109 233.8C124.564 233.513 125.095 233.369 125.703 233.369C126.072 233.369 126.43 233.43 126.777 233.553C127.123 233.675 127.434 233.866 127.71 234.128C127.985 234.389 128.203 234.729 128.362 235.146C128.521 235.561 128.601 236.065 128.601 236.659V237.111H123.397V236.156H127.352C127.352 235.821 127.284 235.524 127.147 235.266C127.011 235.004 126.819 234.798 126.572 234.648C126.328 234.497 126.041 234.422 125.711 234.422C125.353 234.422 125.041 234.51 124.774 234.686C124.51 234.859 124.305 235.087 124.16 235.368C124.018 235.646 123.947 235.949 123.947 236.276V237.021C123.947 237.459 124.024 237.831 124.177 238.138C124.333 238.445 124.551 238.679 124.829 238.841C125.108 239 125.433 239.08 125.805 239.08C126.047 239.08 126.267 239.045 126.466 238.977C126.664 238.906 126.836 238.801 126.981 238.662C127.126 238.523 127.237 238.351 127.314 238.146L128.52 238.364C128.423 238.719 128.25 239.03 128 239.297C127.753 239.561 127.441 239.767 127.066 239.915C126.694 240.06 126.27 240.132 125.792 240.132ZM130.117 240V231.273H131.391V234.516H131.467C131.541 234.379 131.648 234.222 131.787 234.043C131.926 233.864 132.119 233.707 132.367 233.574C132.614 233.438 132.94 233.369 133.347 233.369C133.875 233.369 134.347 233.503 134.761 233.77C135.176 234.037 135.501 234.422 135.737 234.925C135.976 235.428 136.095 236.033 136.095 236.74C136.095 237.447 135.977 238.054 135.742 238.56C135.506 239.062 135.182 239.45 134.77 239.723C134.358 239.993 133.888 240.128 133.359 240.128C132.962 240.128 132.636 240.061 132.384 239.928C132.134 239.794 131.938 239.638 131.795 239.459C131.653 239.28 131.544 239.121 131.467 238.982H131.361V240H130.117ZM131.365 236.727C131.365 237.187 131.432 237.591 131.565 237.938C131.699 238.284 131.892 238.555 132.145 238.751C132.398 238.945 132.707 239.041 133.074 239.041C133.455 239.041 133.773 238.94 134.028 238.739C134.284 238.534 134.477 238.257 134.608 237.908C134.742 237.558 134.808 237.165 134.808 236.727C134.808 236.295 134.743 235.908 134.612 235.564C134.484 235.22 134.291 234.949 134.033 234.75C133.777 234.551 133.457 234.452 133.074 234.452C132.705 234.452 132.392 234.547 132.136 234.737C131.884 234.928 131.692 235.193 131.561 235.534C131.43 235.875 131.365 236.273 131.365 236.727ZM141.672 237.286V233.455H142.951V240H141.698V238.866H141.63C141.479 239.216 141.238 239.507 140.905 239.74C140.576 239.97 140.165 240.085 139.674 240.085C139.253 240.085 138.881 239.993 138.557 239.808C138.236 239.621 137.983 239.344 137.799 238.977C137.617 238.611 137.526 238.158 137.526 237.618V233.455H138.8V237.464C138.8 237.911 138.924 238.266 139.171 238.53C139.418 238.794 139.739 238.926 140.134 238.926C140.373 238.926 140.61 238.866 140.846 238.747C141.084 238.628 141.282 238.447 141.438 238.206C141.597 237.964 141.675 237.658 141.672 237.286ZM147.407 242.591C146.887 242.591 146.44 242.523 146.065 242.386C145.693 242.25 145.389 242.07 145.153 241.845C144.917 241.621 144.741 241.375 144.624 241.108L145.72 240.656C145.796 240.781 145.898 240.913 146.026 241.053C146.157 241.195 146.333 241.315 146.555 241.415C146.779 241.514 147.068 241.564 147.42 241.564C147.903 241.564 148.302 241.446 148.617 241.21C148.933 240.977 149.09 240.605 149.09 240.094V238.807H149.009C148.933 238.946 148.822 239.101 148.677 239.271C148.535 239.442 148.339 239.589 148.089 239.714C147.839 239.839 147.514 239.902 147.113 239.902C146.596 239.902 146.13 239.781 145.715 239.54C145.303 239.295 144.977 238.936 144.735 238.462C144.496 237.984 144.377 237.398 144.377 236.702C144.377 236.006 144.495 235.409 144.731 234.912C144.97 234.415 145.296 234.034 145.711 233.77C146.126 233.503 146.596 233.369 147.121 233.369C147.528 233.369 147.856 233.438 148.106 233.574C148.356 233.707 148.55 233.864 148.69 234.043C148.832 234.222 148.941 234.379 149.018 234.516H149.112V233.455H150.36V240.145C150.36 240.707 150.229 241.169 149.968 241.53C149.707 241.891 149.353 242.158 148.907 242.331C148.464 242.504 147.964 242.591 147.407 242.591ZM147.394 238.845C147.761 238.845 148.07 238.76 148.323 238.589C148.579 238.416 148.772 238.169 148.903 237.848C149.036 237.524 149.103 237.136 149.103 236.685C149.103 236.244 149.038 235.857 148.907 235.521C148.776 235.186 148.585 234.925 148.332 234.737C148.079 234.547 147.766 234.452 147.394 234.452C147.011 234.452 146.691 234.551 146.435 234.75C146.18 234.946 145.987 235.213 145.856 235.551C145.728 235.889 145.664 236.267 145.664 236.685C145.664 237.114 145.729 237.49 145.86 237.814C145.991 238.138 146.184 238.391 146.44 238.572C146.698 238.754 147.016 238.845 147.394 238.845ZM157.784 240.124C157.199 240.124 156.695 240.017 156.272 239.804C155.851 239.591 155.527 239.301 155.3 238.935C155.073 238.565 154.959 238.148 154.959 237.682C154.959 237.327 155.033 237.011 155.181 236.736C155.329 236.457 155.534 236.2 155.799 235.964C156.063 235.729 156.368 235.491 156.715 235.253L158.121 234.26C158.36 234.104 158.546 233.939 158.679 233.766C158.813 233.589 158.88 233.372 158.88 233.114C158.88 232.909 158.792 232.713 158.615 232.526C158.439 232.338 158.204 232.244 157.908 232.244C157.704 232.244 157.523 232.294 157.367 232.393C157.213 232.493 157.093 232.621 157.005 232.777C156.919 232.93 156.877 233.092 156.877 233.263C156.877 233.462 156.931 233.662 157.039 233.864C157.15 234.065 157.292 234.274 157.465 234.49C157.638 234.703 157.82 234.925 158.01 235.155L162.063 240H160.623L157.269 236.058C156.988 235.726 156.726 235.413 156.485 235.121C156.243 234.825 156.047 234.527 155.897 234.226C155.749 233.922 155.675 233.594 155.675 233.241C155.675 232.841 155.766 232.486 155.948 232.176C156.133 231.864 156.39 231.619 156.719 231.443C157.049 231.267 157.435 231.179 157.878 231.179C158.327 231.179 158.712 231.267 159.033 231.443C159.357 231.616 159.606 231.848 159.779 232.138C159.955 232.425 160.043 232.739 160.043 233.08C160.043 233.494 159.939 233.861 159.732 234.179C159.527 234.494 159.245 234.784 158.884 235.048L157.133 236.339C156.792 236.589 156.554 236.837 156.421 237.081C156.29 237.322 156.225 237.511 156.225 237.648C156.225 237.898 156.289 238.129 156.417 238.342C156.547 238.555 156.729 238.726 156.962 238.854C157.198 238.982 157.473 239.045 157.789 239.045C158.113 239.045 158.428 238.976 158.735 238.837C159.044 238.695 159.324 238.491 159.574 238.227C159.827 237.963 160.027 237.646 160.175 237.277C160.323 236.908 160.397 236.494 160.397 236.037H161.547C161.547 236.599 161.483 237.075 161.356 237.464C161.228 237.851 161.073 238.166 160.891 238.411C160.712 238.652 160.543 238.841 160.384 238.977C160.333 239.023 160.284 239.068 160.239 239.114C160.194 239.159 160.145 239.205 160.094 239.25C159.799 239.548 159.441 239.768 159.02 239.911C158.603 240.053 158.191 240.124 157.784 240.124ZM166.339 240V231.273H169.45C170.126 231.273 170.687 231.389 171.133 231.622C171.582 231.855 171.917 232.178 172.139 232.589C172.36 232.999 172.471 233.472 172.471 234.009C172.471 234.543 172.359 235.013 172.135 235.419C171.913 235.822 171.578 236.136 171.129 236.361C170.683 236.585 170.122 236.697 169.446 236.697H167.089V235.564H169.326C169.753 235.564 170.099 235.503 170.366 235.381C170.636 235.259 170.833 235.081 170.958 234.848C171.083 234.615 171.146 234.335 171.146 234.009C171.146 233.679 171.082 233.393 170.954 233.152C170.829 232.911 170.632 232.726 170.362 232.598C170.095 232.467 169.744 232.402 169.309 232.402H167.656V240H166.339ZM170.647 236.062L172.804 240H171.304L169.19 236.062H170.647ZM176.71 240.132C176.065 240.132 175.51 239.994 175.044 239.719C174.581 239.44 174.223 239.05 173.97 238.547C173.72 238.041 173.595 237.449 173.595 236.77C173.595 236.099 173.72 235.509 173.97 234.997C174.223 234.486 174.575 234.087 175.027 233.8C175.482 233.513 176.013 233.369 176.621 233.369C176.99 233.369 177.348 233.43 177.695 233.553C178.041 233.675 178.352 233.866 178.628 234.128C178.903 234.389 179.121 234.729 179.28 235.146C179.439 235.561 179.519 236.065 179.519 236.659V237.111H174.315V236.156H178.27C178.27 235.821 178.202 235.524 178.065 235.266C177.929 235.004 177.737 234.798 177.49 234.648C177.246 234.497 176.959 234.422 176.629 234.422C176.271 234.422 175.959 234.51 175.692 234.686C175.428 234.859 175.223 235.087 175.078 235.368C174.936 235.646 174.865 235.949 174.865 236.276V237.021C174.865 237.459 174.942 237.831 175.095 238.138C175.251 238.445 175.469 238.679 175.747 238.841C176.026 239 176.351 239.08 176.723 239.08C176.965 239.08 177.185 239.045 177.384 238.977C177.582 238.906 177.754 238.801 177.899 238.662C178.044 238.523 178.155 238.351 178.232 238.146L179.438 238.364C179.341 238.719 179.168 239.03 178.918 239.297C178.67 239.561 178.359 239.767 177.984 239.915C177.612 240.06 177.188 240.132 176.71 240.132ZM180.932 242.455V233.455H182.177V234.516H182.283C182.357 234.379 182.463 234.222 182.603 234.043C182.742 233.864 182.935 233.707 183.182 233.574C183.429 233.438 183.756 233.369 184.162 233.369C184.691 233.369 185.162 233.503 185.577 233.77C185.992 234.037 186.317 234.422 186.553 234.925C186.792 235.428 186.911 236.033 186.911 236.74C186.911 237.447 186.793 238.054 186.557 238.56C186.321 239.062 185.998 239.45 185.586 239.723C185.174 239.993 184.704 240.128 184.175 240.128C183.777 240.128 183.452 240.061 183.199 239.928C182.949 239.794 182.753 239.638 182.611 239.459C182.469 239.28 182.36 239.121 182.283 238.982H182.206V242.455H180.932ZM182.181 236.727C182.181 237.187 182.248 237.591 182.381 237.938C182.515 238.284 182.708 238.555 182.961 238.751C183.213 238.945 183.523 239.041 183.89 239.041C184.27 239.041 184.588 238.94 184.844 238.739C185.1 238.534 185.293 238.257 185.424 237.908C185.557 237.558 185.624 237.165 185.624 236.727C185.624 236.295 185.559 235.908 185.428 235.564C185.3 235.22 185.107 234.949 184.848 234.75C184.593 234.551 184.273 234.452 183.89 234.452C183.52 234.452 183.208 234.547 182.952 234.737C182.699 234.928 182.508 235.193 182.377 235.534C182.246 235.875 182.181 236.273 182.181 236.727ZM189.613 231.273V240H188.338V231.273H189.613ZM193.232 240.145C192.817 240.145 192.442 240.068 192.107 239.915C191.771 239.759 191.506 239.533 191.31 239.237C191.117 238.942 191.02 238.58 191.02 238.151C191.02 237.781 191.091 237.477 191.233 237.239C191.375 237 191.567 236.811 191.808 236.672C192.05 236.533 192.32 236.428 192.618 236.357C192.916 236.286 193.22 236.232 193.53 236.195C193.922 236.149 194.24 236.112 194.484 236.084C194.729 236.053 194.906 236.003 195.017 235.935C195.128 235.866 195.183 235.756 195.183 235.602V235.572C195.183 235.2 195.078 234.912 194.868 234.707C194.661 234.503 194.351 234.401 193.939 234.401C193.51 234.401 193.172 234.496 192.925 234.686C192.68 234.874 192.511 235.082 192.418 235.312L191.22 235.04C191.362 234.642 191.57 234.321 191.842 234.077C192.118 233.83 192.435 233.651 192.793 233.54C193.151 233.426 193.527 233.369 193.922 233.369C194.183 233.369 194.46 233.401 194.753 233.463C195.048 233.523 195.324 233.634 195.58 233.795C195.838 233.957 196.05 234.189 196.215 234.49C196.379 234.788 196.462 235.176 196.462 235.653V240H195.217V239.105H195.166C195.084 239.27 194.96 239.432 194.795 239.591C194.631 239.75 194.419 239.882 194.161 239.987C193.902 240.092 193.592 240.145 193.232 240.145ZM193.509 239.122C193.861 239.122 194.162 239.053 194.412 238.913C194.665 238.774 194.857 238.592 194.987 238.368C195.121 238.141 195.188 237.898 195.188 237.639V236.795C195.142 236.841 195.054 236.884 194.923 236.923C194.795 236.96 194.649 236.993 194.484 237.021C194.32 237.047 194.159 237.071 194.003 237.094C193.847 237.114 193.716 237.131 193.611 237.145C193.364 237.176 193.138 237.229 192.933 237.303C192.732 237.376 192.57 237.483 192.447 237.622C192.328 237.759 192.269 237.94 192.269 238.168C192.269 238.483 192.385 238.722 192.618 238.884C192.851 239.043 193.148 239.122 193.509 239.122ZM200.916 240.132C200.282 240.132 199.737 239.989 199.28 239.702C198.825 239.412 198.476 239.013 198.231 238.504C197.987 237.996 197.865 237.413 197.865 236.757C197.865 236.092 197.99 235.506 198.24 234.997C198.49 234.486 198.842 234.087 199.297 233.8C199.751 233.513 200.287 233.369 200.903 233.369C201.4 233.369 201.843 233.462 202.233 233.646C202.622 233.828 202.936 234.084 203.174 234.413C203.416 234.743 203.559 235.128 203.605 235.568H202.365C202.297 235.261 202.14 234.997 201.896 234.776C201.655 234.554 201.331 234.443 200.924 234.443C200.569 234.443 200.258 234.537 199.991 234.724C199.727 234.909 199.521 235.173 199.373 235.517C199.226 235.858 199.152 236.261 199.152 236.727C199.152 237.205 199.224 237.616 199.369 237.963C199.514 238.31 199.718 238.578 199.983 238.768C200.25 238.959 200.564 239.054 200.924 239.054C201.166 239.054 201.385 239.01 201.581 238.922C201.78 238.831 201.946 238.702 202.079 238.534C202.216 238.366 202.311 238.165 202.365 237.929H203.605C203.559 238.352 203.422 238.73 203.191 239.062C202.961 239.395 202.653 239.656 202.267 239.847C201.883 240.037 201.433 240.132 200.916 240.132ZM207.788 240.132C207.144 240.132 206.588 239.994 206.122 239.719C205.659 239.44 205.301 239.05 205.048 238.547C204.798 238.041 204.673 237.449 204.673 236.77C204.673 236.099 204.798 235.509 205.048 234.997C205.301 234.486 205.653 234.087 206.105 233.8C206.56 233.513 207.091 233.369 207.699 233.369C208.068 233.369 208.426 233.43 208.773 233.553C209.119 233.675 209.43 233.866 209.706 234.128C209.982 234.389 210.199 234.729 210.358 235.146C210.517 235.561 210.597 236.065 210.597 236.659V237.111H205.394V236.156H209.348C209.348 235.821 209.28 235.524 209.144 235.266C209.007 235.004 208.815 234.798 208.568 234.648C208.324 234.497 208.037 234.422 207.707 234.422C207.349 234.422 207.037 234.51 206.77 234.686C206.506 234.859 206.301 235.087 206.156 235.368C206.014 235.646 205.943 235.949 205.943 236.276V237.021C205.943 237.459 206.02 237.831 206.173 238.138C206.33 238.445 206.547 238.679 206.825 238.841C207.104 239 207.429 239.08 207.801 239.08C208.043 239.08 208.263 239.045 208.462 238.977C208.661 238.906 208.832 238.801 208.977 238.662C209.122 238.523 209.233 238.351 209.31 238.146L210.516 238.364C210.419 238.719 210.246 239.03 209.996 239.297C209.749 239.561 209.438 239.767 209.063 239.915C208.69 240.06 208.266 240.132 207.788 240.132Z" fill="#3A3A3A"></path><rect x="85.9546" y="224.5" width="133" height="23" rx="3.5" stroke="#C4C4C4"></rect><path d="M0.5 0.5H1046C1051.25 0.5 1055.5 4.75329 1055.5 10V298C1055.5 303.247 1051.25 307.5 1046 307.5H13C6.09646 307.5 0.5 301.904 0.5 295V0.5Z" stroke="#EBEBEB"></path><defs><clipPath id="clip0_2845_2404"><rect x="20" y="20.0005" width="977.273" height="161.364" rx="4.54545" fill="white"></rect></clipPath><clipPath id="clip1_2845_2404"><rect width="18.1818" height="18.1818" fill="white" transform="translate(110.909 33.637)"></rect></clipPath></defs></svg>