<svg xmlns="http://www.w3.org/2000/svg" width="540" height="391" viewBox="0 0 540 391" fill="none"><g clip-path="url(#clip0_3072_3118)"><g clip-path="url(#clip1_3072_3118)"><path d="M-570 -123.971H1063.59V932H-556.55C-563.978 932 -570 925.978 -570 918.55V-123.971Z" fill="#FBFBFB"></path><g clip-path="url(#clip2_3072_3118)"><path d="M262.102 130.036L271.728 146.305H272.101L281.773 130.036H293.171L278.603 153.903L293.497 177.77H281.89L272.101 161.478H271.728L261.938 177.77H250.378L265.318 153.903L250.658 130.036H262.102Z" fill="#F1F1F1"></path><path d="M77.1562 175.482V87.5214L72.1299 88.618C68.7028 89.3491 65.1387 90.1259 61.4832 90.9027L56 92.0451V53.4339L59.5641 52.6571C68.2459 50.738 77.1562 48.8189 86.0207 46.9454C94.8853 45.072 103.75 43.1986 112.386 41.2794L117.961 40V175.482H77.1562Z" fill="#F1F1F1"></path><path d="M113.391 45.666V170.867H81.7255V81.8554C78.2071 82.5865 74.6887 83.3176 71.1246 84.1401C67.5605 84.9626 64.0421 85.6937 60.5693 86.3791V57.0894C69.2511 55.1703 78.07 53.2512 86.9803 51.3777C95.8905 49.5043 104.709 47.6308 113.391 45.666Z" fill="#F7F7F7"></path><path d="M183.577 177.995C167.082 178.223 151.409 170.867 141.036 158.072C135.781 151.538 131.76 144.136 129.202 136.139C126.414 127.412 124.998 118.319 125.089 109.18C125.089 99.5387 126.46 90.5371 129.202 82.3122C131.76 74.4072 135.781 67.0049 141.036 60.5621C146.108 54.4391 152.46 49.4585 159.679 46.0315C167.127 42.5131 175.306 40.6853 183.577 40.7767C192.213 40.7767 200.209 42.5588 207.383 46.0315C214.557 49.5042 220.863 54.4848 225.981 60.5621C231.327 67.0049 235.348 74.3615 237.952 82.3122C240.74 90.994 242.156 100.041 242.065 109.18C242.156 118.319 240.74 127.412 237.952 136.139C235.394 144.136 231.327 151.584 225.981 158.072C220.909 164.241 214.557 169.222 207.383 172.74C200.209 176.258 192.213 177.995 183.577 177.995ZM183.577 79.7534C179.922 79.7534 176.906 80.7587 174.347 82.8606C171.651 85.0996 169.503 88.3895 167.95 92.639C166.305 97.2084 165.482 102.737 165.482 109.18C165.482 115.532 166.305 121.106 167.95 125.767C169.458 130.154 171.651 133.535 174.347 135.82C176.906 137.967 179.922 139.018 183.531 139.018C187.278 139.018 190.294 137.967 192.761 135.865C195.457 133.581 197.559 130.199 199.113 125.813C200.758 121.152 201.58 115.532 201.58 109.226C201.58 102.874 200.758 97.3454 199.113 92.7304C197.605 88.3895 195.457 85.0996 192.807 82.8606C190.385 80.7587 187.324 79.7534 183.577 79.7534Z" fill="#F1F1F1"></path><path d="M183.577 173.426C175.626 173.426 168.315 171.826 161.69 168.628C155.064 165.429 149.215 160.86 144.6 155.148C139.848 149.345 136.147 142.537 133.588 134.678C130.984 126.818 129.704 118.319 129.704 109.18C129.704 99.9961 130.984 91.5428 133.588 83.7748C135.964 76.3725 139.711 69.5184 144.6 63.4869C149.261 57.8208 155.11 53.2515 161.69 50.0986C168.315 46.9001 175.626 45.3008 183.577 45.3008C191.528 45.3008 198.793 46.9001 205.373 50.0986C211.953 53.2972 217.801 57.8665 222.462 63.4869C227.443 69.4727 231.19 76.3725 233.611 83.7748C236.216 91.5428 237.495 100.042 237.495 109.18C237.495 118.365 236.216 126.864 233.611 134.678C231.235 142.126 227.443 149.071 222.462 155.148C217.801 160.814 211.953 165.429 205.373 168.628C198.839 171.826 191.528 173.426 183.577 173.426ZM183.577 143.542C188.42 143.542 192.487 142.126 195.777 139.293C199.113 136.46 201.672 132.439 203.454 127.275C205.281 122.112 206.15 116.08 206.15 109.18C206.15 102.281 205.236 96.2949 203.454 91.1772C201.626 86.0595 199.067 82.1299 195.777 79.3426C192.487 76.5552 188.375 75.1844 183.577 75.1844C178.87 75.1844 174.849 76.5552 171.468 79.3426C168.087 82.1299 165.482 86.0138 163.7 91.0858C161.872 96.1578 161.004 102.189 161.004 109.18C161.004 116.035 161.918 122.066 163.7 127.275C165.528 132.484 168.087 136.46 171.468 139.293C174.849 142.171 178.87 143.588 183.577 143.542Z" fill="#F7F7F7"></path><path d="M70.2244 230.326C70.1384 229.46 69.7696 228.787 69.1179 228.307C68.4661 227.827 67.5817 227.587 66.4644 227.587C65.7053 227.587 65.0643 227.694 64.5415 227.909C64.0186 228.117 63.6176 228.407 63.3383 228.779C63.0661 229.152 62.93 229.574 62.93 230.047C62.9157 230.441 62.9981 230.785 63.1771 231.078C63.3633 231.372 63.6176 231.626 63.9399 231.841C64.2621 232.049 64.6346 232.231 65.0571 232.389C65.4797 232.539 65.9309 232.668 66.4107 232.776L68.3874 233.248C69.3471 233.463 70.228 233.75 71.0301 234.108C71.8322 234.466 72.5269 234.906 73.1142 235.429C73.7015 235.952 74.1562 236.568 74.4785 237.277C74.808 237.986 74.9763 238.799 74.9834 239.715C74.9763 241.062 74.6325 242.229 73.9521 243.218C73.2789 244.199 72.3049 244.962 71.0301 245.506C69.7624 246.043 68.2334 246.312 66.4429 246.312C64.6668 246.312 63.1198 246.039 61.8021 245.495C60.4914 244.951 59.4673 244.145 58.7296 243.078C57.9991 242.004 57.616 240.675 57.5801 239.092H62.0814C62.1315 239.83 62.3428 240.446 62.7152 240.94C63.0948 241.427 63.5997 241.796 64.2299 242.047C64.8673 242.29 65.5871 242.412 66.3892 242.412C67.177 242.412 67.861 242.297 68.4411 242.068C69.0284 241.839 69.4831 241.52 69.8054 241.112C70.1277 240.704 70.2888 240.235 70.2888 239.705C70.2888 239.211 70.142 238.795 69.8484 238.459C69.5619 238.122 69.1394 237.835 68.5807 237.599C68.0293 237.363 67.3525 237.148 66.5504 236.955L64.1547 236.353C62.2998 235.902 60.8352 235.196 59.7609 234.237C58.6866 233.277 58.1531 231.984 58.1603 230.359C58.1531 229.026 58.5076 227.863 59.2238 226.867C59.9471 225.872 60.939 225.095 62.1995 224.536C63.46 223.977 64.8924 223.698 66.4966 223.698C68.1295 223.698 69.5547 223.977 70.7723 224.536C71.9969 225.095 72.9495 225.872 73.6298 226.867C74.3102 227.863 74.6611 229.016 74.6826 230.326H70.2244ZM85.4818 246.322C83.8131 246.322 82.37 245.968 81.1525 245.259C79.9421 244.543 79.0075 243.547 78.3486 242.272C77.6897 240.99 77.3603 239.504 77.3603 237.814C77.3603 236.109 77.6897 234.62 78.3486 233.345C79.0075 232.063 79.9421 231.068 81.1525 230.359C82.37 229.642 83.8131 229.284 85.4818 229.284C87.1505 229.284 88.59 229.642 89.8004 230.359C91.0179 231.068 91.9561 232.063 92.615 233.345C93.2739 234.62 93.6033 236.109 93.6033 237.814C93.6033 239.504 93.2739 240.99 92.615 242.272C91.9561 243.547 91.0179 244.543 89.8004 245.259C88.59 245.968 87.1505 246.322 85.4818 246.322ZM85.5033 242.777C86.2624 242.777 86.8963 242.562 87.4048 242.133C87.9132 241.696 88.2964 241.101 88.5542 240.349C88.8192 239.597 88.9517 238.741 88.9517 237.782C88.9517 236.822 88.8192 235.966 88.5542 235.214C88.2964 234.462 87.9132 233.868 87.4048 233.431C86.8963 232.994 86.2624 232.776 85.5033 232.776C84.737 232.776 84.0924 232.994 83.5696 233.431C83.0539 233.868 82.6636 234.462 82.3986 235.214C82.1408 235.966 82.0119 236.822 82.0119 237.782C82.0119 238.741 82.1408 239.597 82.3986 240.349C82.6636 241.101 83.0539 241.696 83.5696 242.133C84.0924 242.562 84.737 242.777 85.5033 242.777ZM96.5791 246V229.499H101.016V232.378H101.188C101.489 231.354 101.993 230.581 102.702 230.058C103.411 229.528 104.228 229.263 105.152 229.263C105.381 229.263 105.628 229.277 105.893 229.306C106.158 229.334 106.391 229.374 106.591 229.424V233.485C106.376 233.42 106.079 233.363 105.7 233.313C105.32 233.263 104.973 233.238 104.658 233.238C103.984 233.238 103.383 233.384 102.853 233.678C102.33 233.965 101.915 234.366 101.607 234.881C101.306 235.397 101.155 235.991 101.155 236.665V246H96.5791ZM118.561 229.499V232.937H108.624V229.499H118.561ZM110.88 225.546H115.457V240.929C115.457 241.352 115.521 241.681 115.65 241.918C115.779 242.147 115.958 242.308 116.187 242.401C116.424 242.494 116.696 242.541 117.004 242.541C117.219 242.541 117.433 242.523 117.648 242.487C117.863 242.444 118.028 242.412 118.142 242.39L118.862 245.796C118.633 245.868 118.311 245.95 117.895 246.043C117.48 246.143 116.975 246.204 116.381 246.226C115.278 246.269 114.311 246.122 113.48 245.785C112.657 245.449 112.016 244.926 111.557 244.217C111.099 243.508 110.873 242.612 110.88 241.531V225.546ZM128.885 246.322C127.188 246.322 125.727 245.979 124.502 245.291C123.285 244.596 122.347 243.615 121.688 242.347C121.029 241.073 120.699 239.565 120.699 237.825C120.699 236.127 121.029 234.638 121.688 233.356C122.347 232.074 123.274 231.075 124.47 230.359C125.673 229.642 127.084 229.284 128.703 229.284C129.791 229.284 130.805 229.46 131.743 229.811C132.688 230.154 133.512 230.674 134.214 231.368C134.923 232.063 135.474 232.937 135.868 233.99C136.262 235.035 136.459 236.26 136.459 237.664V238.921H122.526V236.084H132.151C132.151 235.426 132.008 234.842 131.721 234.333C131.435 233.825 131.037 233.427 130.529 233.141C130.028 232.847 129.444 232.7 128.778 232.7C128.083 232.7 127.467 232.862 126.93 233.184C126.4 233.499 125.985 233.925 125.684 234.462C125.383 234.992 125.229 235.583 125.222 236.235V238.931C125.222 239.748 125.372 240.453 125.673 241.048C125.981 241.642 126.414 242.1 126.973 242.423C127.532 242.745 128.194 242.906 128.96 242.906C129.469 242.906 129.934 242.834 130.357 242.691C130.78 242.548 131.141 242.333 131.442 242.047C131.743 241.76 131.972 241.409 132.13 240.994L136.362 241.273C136.147 242.29 135.707 243.178 135.041 243.937C134.382 244.689 133.53 245.277 132.484 245.699C131.446 246.115 130.246 246.322 128.885 246.322ZM145.526 246.269C144.272 246.269 143.137 245.946 142.12 245.302C141.111 244.65 140.308 243.694 139.714 242.433C139.127 241.166 138.833 239.612 138.833 237.771C138.833 235.88 139.137 234.308 139.746 233.055C140.355 231.794 141.164 230.853 142.174 230.23C143.191 229.599 144.305 229.284 145.515 229.284C146.439 229.284 147.209 229.442 147.825 229.757C148.448 230.065 148.949 230.452 149.329 230.917C149.715 231.376 150.009 231.827 150.21 232.271H150.349V223.999H154.915V246H150.403V243.357H150.21C149.995 243.816 149.69 244.27 149.297 244.722C148.91 245.166 148.405 245.534 147.782 245.828C147.166 246.122 146.414 246.269 145.526 246.269ZM146.976 242.627C147.714 242.627 148.337 242.426 148.845 242.025C149.361 241.617 149.755 241.048 150.027 240.317C150.306 239.587 150.446 238.731 150.446 237.75C150.446 236.768 150.31 235.916 150.038 235.193C149.766 234.469 149.372 233.911 148.856 233.517C148.34 233.123 147.714 232.926 146.976 232.926C146.224 232.926 145.59 233.13 145.075 233.538C144.559 233.947 144.169 234.512 143.904 235.236C143.639 235.959 143.506 236.797 143.506 237.75C143.506 238.709 143.639 239.558 143.904 240.296C144.176 241.026 144.566 241.599 145.075 242.014C145.59 242.423 146.224 242.627 146.976 242.627ZM179.409 234.204L175.219 234.462C175.147 234.104 174.993 233.782 174.757 233.495C174.521 233.202 174.209 232.969 173.822 232.797C173.443 232.618 172.988 232.529 172.458 232.529C171.749 232.529 171.151 232.679 170.664 232.98C170.177 233.273 169.933 233.667 169.933 234.161C169.933 234.555 170.091 234.888 170.406 235.161C170.721 235.433 171.262 235.651 172.028 235.816L175.015 236.417C176.619 236.747 177.815 237.277 178.603 238.007C179.391 238.738 179.784 239.698 179.784 240.886C179.784 241.968 179.466 242.917 178.828 243.733C178.198 244.55 177.332 245.187 176.229 245.645C175.133 246.097 173.869 246.322 172.436 246.322C170.252 246.322 168.512 245.868 167.215 244.958C165.926 244.041 165.171 242.795 164.949 241.219L169.45 240.983C169.586 241.649 169.915 242.158 170.438 242.509C170.961 242.852 171.631 243.024 172.447 243.024C173.249 243.024 173.894 242.87 174.381 242.562C174.875 242.247 175.126 241.843 175.133 241.348C175.126 240.933 174.95 240.593 174.606 240.328C174.263 240.056 173.733 239.848 173.017 239.705L170.159 239.135C168.548 238.813 167.348 238.254 166.56 237.459C165.78 236.665 165.389 235.651 165.389 234.419C165.389 233.359 165.676 232.446 166.249 231.68C166.829 230.914 167.642 230.323 168.687 229.907C169.74 229.492 170.972 229.284 172.383 229.284C174.467 229.284 176.107 229.725 177.303 230.606C178.506 231.487 179.208 232.686 179.409 234.204ZM187.372 246.312C186.319 246.312 185.381 246.129 184.557 245.764C183.733 245.391 183.082 244.843 182.602 244.12C182.129 243.39 181.893 242.48 181.893 241.391C181.893 240.475 182.061 239.705 182.398 239.082C182.734 238.459 183.193 237.957 183.773 237.578C184.353 237.198 185.012 236.912 185.749 236.718C186.494 236.525 187.275 236.389 188.091 236.31C189.051 236.21 189.825 236.117 190.412 236.031C190.999 235.938 191.425 235.802 191.69 235.622C191.955 235.443 192.088 235.178 192.088 234.828V234.763C192.088 234.083 191.873 233.556 191.443 233.184C191.021 232.811 190.419 232.625 189.638 232.625C188.815 232.625 188.159 232.808 187.672 233.173C187.185 233.531 186.863 233.982 186.706 234.527L182.473 234.183C182.688 233.18 183.11 232.314 183.741 231.583C184.371 230.846 185.184 230.28 186.179 229.886C187.182 229.485 188.342 229.284 189.66 229.284C190.577 229.284 191.454 229.392 192.292 229.607C193.137 229.821 193.885 230.154 194.537 230.606C195.196 231.057 195.715 231.637 196.095 232.346C196.474 233.048 196.664 233.889 196.664 234.87V246H192.324V243.712H192.195C191.93 244.227 191.576 244.682 191.132 245.076C190.688 245.463 190.154 245.767 189.531 245.989C188.908 246.204 188.188 246.312 187.372 246.312ZM188.682 243.153C189.355 243.153 189.95 243.021 190.466 242.756C190.981 242.484 191.386 242.118 191.679 241.66C191.973 241.202 192.12 240.682 192.12 240.102V238.351C191.977 238.444 191.78 238.53 191.529 238.609C191.286 238.681 191.01 238.749 190.702 238.813C190.394 238.87 190.086 238.924 189.778 238.974C189.47 239.017 189.191 239.057 188.94 239.092C188.403 239.171 187.934 239.297 187.533 239.468C187.132 239.64 186.82 239.873 186.598 240.167C186.376 240.453 186.265 240.811 186.265 241.241C186.265 241.864 186.491 242.34 186.942 242.67C187.4 242.992 187.98 243.153 188.682 243.153ZM204.791 223.999V246H200.215V223.999H204.791ZM215.977 246.322C214.28 246.322 212.819 245.979 211.594 245.291C210.376 244.596 209.438 243.615 208.779 242.347C208.12 241.073 207.791 239.565 207.791 237.825C207.791 236.127 208.12 234.638 208.779 233.356C209.438 232.074 210.366 231.075 211.562 230.359C212.765 229.642 214.176 229.284 215.794 229.284C216.883 229.284 217.896 229.46 218.834 229.811C219.78 230.154 220.603 230.674 221.305 231.368C222.014 232.063 222.566 232.937 222.96 233.99C223.354 235.035 223.551 236.26 223.551 237.664V238.921H209.617V236.084H219.243C219.243 235.426 219.099 234.842 218.813 234.333C218.527 233.825 218.129 233.427 217.621 233.141C217.119 232.847 216.536 232.7 215.869 232.7C215.175 232.7 214.559 232.862 214.022 233.184C213.492 233.499 213.076 233.925 212.776 234.462C212.475 234.992 212.321 235.583 212.314 236.235V238.931C212.314 239.748 212.464 240.453 212.765 241.048C213.073 241.642 213.506 242.1 214.065 242.423C214.623 242.745 215.286 242.906 216.052 242.906C216.561 242.906 217.026 242.834 217.449 242.691C217.871 242.548 218.233 242.333 218.534 242.047C218.834 241.76 219.064 241.409 219.221 240.994L223.454 241.273C223.239 242.29 222.799 243.178 222.132 243.937C221.474 244.689 220.621 245.277 219.576 245.699C218.537 246.115 217.338 246.322 215.977 246.322ZM240.266 234.204L236.077 234.462C236.005 234.104 235.851 233.782 235.615 233.495C235.378 233.202 235.067 232.969 234.68 232.797C234.3 232.618 233.846 232.529 233.316 232.529C232.607 232.529 232.009 232.679 231.522 232.98C231.035 233.273 230.791 233.667 230.791 234.161C230.791 234.555 230.949 234.888 231.264 235.161C231.579 235.433 232.12 235.651 232.886 235.816L235.872 236.417C237.477 236.747 238.673 237.277 239.461 238.007C240.248 238.738 240.642 239.698 240.642 240.886C240.642 241.968 240.324 242.917 239.686 243.733C239.056 244.55 238.189 245.187 237.086 245.645C235.991 246.097 234.727 246.322 233.294 246.322C231.11 246.322 229.37 245.868 228.073 244.958C226.784 244.041 226.029 242.795 225.807 241.219L230.308 240.983C230.444 241.649 230.773 242.158 231.296 242.509C231.819 242.852 232.489 243.024 233.305 243.024C234.107 243.024 234.752 242.87 235.239 242.562C235.733 242.247 235.983 241.843 235.991 241.348C235.983 240.933 235.808 240.593 235.464 240.328C235.12 240.056 234.591 239.848 233.874 239.705L231.017 239.135C229.405 238.813 228.206 238.254 227.418 237.459C226.637 236.665 226.247 235.651 226.247 234.419C226.247 233.359 226.533 232.446 227.106 231.68C227.687 230.914 228.499 230.323 229.545 229.907C230.598 229.492 231.83 229.284 233.241 229.284C235.325 229.284 236.965 229.725 238.161 230.606C239.364 231.487 240.066 232.686 240.266 234.204ZM250.612 246V223.999H255.188V232.271H255.328C255.528 231.827 255.818 231.376 256.198 230.917C256.585 230.452 257.086 230.065 257.702 229.757C258.325 229.442 259.098 229.284 260.022 229.284C261.225 229.284 262.336 229.599 263.352 230.23C264.369 230.853 265.182 231.794 265.791 233.055C266.4 234.308 266.704 235.88 266.704 237.771C266.704 239.612 266.407 241.166 265.813 242.433C265.225 243.694 264.423 244.65 263.406 245.302C262.396 245.946 261.265 246.269 260.011 246.269C259.123 246.269 258.368 246.122 257.745 245.828C257.129 245.534 256.624 245.166 256.23 244.722C255.836 244.27 255.535 243.816 255.328 243.357H255.124V246H250.612ZM255.091 237.75C255.091 238.731 255.227 239.587 255.5 240.317C255.772 241.048 256.166 241.617 256.681 242.025C257.197 242.426 257.824 242.627 258.561 242.627C259.306 242.627 259.936 242.423 260.452 242.014C260.968 241.599 261.358 241.026 261.623 240.296C261.895 239.558 262.031 238.709 262.031 237.75C262.031 236.797 261.899 235.959 261.634 235.236C261.369 234.512 260.978 233.947 260.463 233.538C259.947 233.13 259.313 232.926 258.561 232.926C257.816 232.926 257.186 233.123 256.67 233.517C256.162 233.911 255.772 234.469 255.5 235.193C255.227 235.916 255.091 236.768 255.091 237.75ZM272.051 252.188C271.471 252.188 270.927 252.141 270.419 252.048C269.917 251.962 269.502 251.851 269.172 251.715L270.204 248.299C270.741 248.464 271.224 248.553 271.654 248.568C272.091 248.582 272.467 248.482 272.782 248.267C273.104 248.052 273.366 247.687 273.566 247.171L273.835 246.473L267.915 229.499H272.728L276.144 241.617H276.316L279.765 229.499H284.61L278.196 247.783C277.888 248.671 277.469 249.445 276.939 250.104C276.417 250.77 275.754 251.282 274.952 251.64C274.15 252.005 273.183 252.188 272.051 252.188ZM293.953 252.188V229.499H298.465V232.271H298.669C298.87 231.827 299.16 231.376 299.54 230.917C299.926 230.452 300.428 230.065 301.043 229.757C301.667 229.442 302.44 229.284 303.364 229.284C304.567 229.284 305.677 229.599 306.694 230.23C307.711 230.853 308.524 231.794 309.133 233.055C309.742 234.308 310.046 235.88 310.046 237.771C310.046 239.612 309.749 241.166 309.154 242.433C308.567 243.694 307.765 244.65 306.748 245.302C305.738 245.946 304.607 246.269 303.353 246.269C302.465 246.269 301.71 246.122 301.086 245.828C300.471 245.534 299.966 245.166 299.572 244.722C299.178 244.27 298.877 243.816 298.669 243.357H298.53V252.188H293.953ZM298.433 237.75C298.433 238.731 298.569 239.587 298.841 240.317C299.113 241.048 299.507 241.617 300.023 242.025C300.539 242.426 301.165 242.627 301.903 242.627C302.648 242.627 303.278 242.423 303.794 242.014C304.309 241.599 304.7 241.026 304.965 240.296C305.237 239.558 305.373 238.709 305.373 237.75C305.373 236.797 305.24 235.959 304.975 235.236C304.71 234.512 304.32 233.947 303.804 233.538C303.289 233.13 302.655 232.926 301.903 232.926C301.158 232.926 300.528 233.123 300.012 233.517C299.504 233.911 299.113 234.469 298.841 235.193C298.569 235.916 298.433 236.768 298.433 237.75ZM313.097 246V229.499H317.534V232.378H317.706C318.006 231.354 318.511 230.581 319.22 230.058C319.929 229.528 320.746 229.263 321.67 229.263C321.899 229.263 322.146 229.277 322.411 229.306C322.676 229.334 322.909 229.374 323.109 229.424V233.485C322.894 233.42 322.597 233.363 322.217 233.313C321.838 233.263 321.491 233.238 321.175 233.238C320.502 233.238 319.901 233.384 319.371 233.678C318.848 233.965 318.432 234.366 318.125 234.881C317.824 235.397 317.673 235.991 317.673 236.665V246H313.097ZM332.163 246.322C330.494 246.322 329.051 245.968 327.833 245.259C326.623 244.543 325.688 243.547 325.029 242.272C324.371 240.99 324.041 239.504 324.041 237.814C324.041 236.109 324.371 234.62 325.029 233.345C325.688 232.063 326.623 231.068 327.833 230.359C329.051 229.642 330.494 229.284 332.163 229.284C333.831 229.284 335.271 229.642 336.481 230.359C337.699 231.068 338.637 232.063 339.296 233.345C339.955 234.62 340.284 236.109 340.284 237.814C340.284 239.504 339.955 240.99 339.296 242.272C338.637 243.547 337.699 244.543 336.481 245.259C335.271 245.968 333.831 246.322 332.163 246.322ZM332.184 242.777C332.943 242.777 333.577 242.562 334.086 242.133C334.594 241.696 334.977 241.101 335.235 240.349C335.5 239.597 335.633 238.741 335.633 237.782C335.633 236.822 335.5 235.966 335.235 235.214C334.977 234.462 334.594 233.868 334.086 233.431C333.577 232.994 332.943 232.776 332.184 232.776C331.418 232.776 330.773 232.994 330.25 233.431C329.735 233.868 329.344 234.462 329.079 235.214C328.822 235.966 328.693 236.822 328.693 237.782C328.693 238.741 328.822 239.597 329.079 240.349C329.344 241.101 329.735 241.696 330.25 242.133C330.773 242.562 331.418 242.777 332.184 242.777ZM349.34 246.269C348.087 246.269 346.952 245.946 345.935 245.302C344.925 244.65 344.123 243.694 343.528 242.433C342.941 241.166 342.648 239.612 342.648 237.771C342.648 235.88 342.952 234.308 343.561 233.055C344.169 231.794 344.979 230.853 345.989 230.23C347.006 229.599 348.119 229.284 349.33 229.284C350.253 229.284 351.023 229.442 351.639 229.757C352.262 230.065 352.764 230.452 353.143 230.917C353.53 231.376 353.824 231.827 354.024 232.271H354.164V223.999H358.729V246H354.218V243.357H354.024C353.809 243.816 353.505 244.27 353.111 244.722C352.724 245.166 352.219 245.534 351.596 245.828C350.98 246.122 350.228 246.269 349.34 246.269ZM350.791 242.627C351.528 242.627 352.151 242.426 352.66 242.025C353.175 241.617 353.569 241.048 353.842 240.317C354.121 239.587 354.26 238.731 354.26 237.75C354.26 236.768 354.124 235.916 353.852 235.193C353.58 234.469 353.186 233.911 352.671 233.517C352.155 233.123 351.528 232.926 350.791 232.926C350.039 232.926 349.405 233.13 348.889 233.538C348.373 233.947 347.983 234.512 347.718 235.236C347.453 235.959 347.321 236.797 347.321 237.75C347.321 238.709 347.453 239.558 347.718 240.296C347.99 241.026 348.381 241.599 348.889 242.014C349.405 242.423 350.039 242.627 350.791 242.627ZM373.074 238.974V229.499H377.65V246H373.256V243.003H373.085C372.712 243.97 372.093 244.747 371.226 245.334C370.367 245.921 369.317 246.215 368.078 246.215C366.975 246.215 366.005 245.964 365.167 245.463C364.329 244.962 363.674 244.249 363.201 243.325C362.736 242.401 362.499 241.295 362.492 240.006V229.499H367.069V239.189C367.076 240.163 367.337 240.933 367.853 241.499C368.368 242.065 369.06 242.347 369.926 242.347C370.478 242.347 370.993 242.222 371.473 241.971C371.953 241.714 372.34 241.334 372.633 240.833C372.934 240.331 373.081 239.712 373.074 238.974ZM388.766 246.322C387.076 246.322 385.622 245.964 384.405 245.248C383.194 244.525 382.263 243.522 381.612 242.24C380.967 240.958 380.645 239.483 380.645 237.814C380.645 236.124 380.971 234.641 381.622 233.367C382.281 232.085 383.216 231.085 384.426 230.369C385.637 229.646 387.076 229.284 388.745 229.284C390.184 229.284 391.445 229.546 392.526 230.068C393.608 230.591 394.463 231.325 395.094 232.271C395.724 233.216 396.071 234.326 396.136 235.601H391.817C391.695 234.777 391.373 234.115 390.85 233.614C390.335 233.105 389.658 232.851 388.82 232.851C388.111 232.851 387.491 233.044 386.961 233.431C386.439 233.811 386.03 234.366 385.737 235.096C385.443 235.827 385.296 236.711 385.296 237.75C385.296 238.802 385.44 239.698 385.726 240.435C386.02 241.173 386.431 241.735 386.961 242.122C387.491 242.509 388.111 242.702 388.82 242.702C389.343 242.702 389.812 242.595 390.227 242.38C390.65 242.165 390.997 241.853 391.269 241.445C391.549 241.03 391.731 240.532 391.817 239.952H396.136C396.064 241.212 395.72 242.322 395.104 243.282C394.496 244.235 393.654 244.979 392.58 245.517C391.506 246.054 390.234 246.322 388.766 246.322ZM407.843 229.499V232.937H397.906V229.499H407.843ZM400.162 225.546H404.738V240.929C404.738 241.352 404.803 241.681 404.931 241.918C405.06 242.147 405.239 242.308 405.469 242.401C405.705 242.494 405.977 242.541 406.285 242.541C406.5 242.541 406.715 242.523 406.93 242.487C407.144 242.444 407.309 242.412 407.424 242.39L408.144 245.796C407.914 245.868 407.592 245.95 407.177 246.043C406.761 246.143 406.256 246.204 405.662 246.226C404.559 246.269 403.592 246.122 402.761 245.785C401.938 245.449 401.297 244.926 400.838 244.217C400.38 243.508 400.154 242.612 400.162 241.531V225.546ZM421.081 246L416.59 229.499H421.22L423.777 240.586H423.927L426.592 229.499H431.136L433.843 240.521H433.983L436.496 229.499H441.116L436.636 246H431.791L428.955 235.622H428.751L425.915 246H421.081ZM443.557 246V229.499H448.133V246H443.557ZM445.856 227.372C445.176 227.372 444.592 227.146 444.105 226.695C443.625 226.237 443.385 225.689 443.385 225.052C443.385 224.421 443.625 223.881 444.105 223.429C444.592 222.971 445.176 222.742 445.856 222.742C446.536 222.742 447.116 222.971 447.596 223.429C448.083 223.881 448.327 224.421 448.327 225.052C448.327 225.689 448.083 226.237 447.596 226.695C447.116 227.146 446.536 227.372 445.856 227.372ZM460.576 229.499V232.937H450.639V229.499H460.576ZM452.895 225.546H457.472V240.929C457.472 241.352 457.536 241.681 457.665 241.918C457.794 242.147 457.973 242.308 458.202 242.401C458.438 242.494 458.711 242.541 459.019 242.541C459.233 242.541 459.448 242.523 459.663 242.487C459.878 242.444 460.043 242.412 460.157 242.39L460.877 245.796C460.648 245.868 460.326 245.95 459.91 246.043C459.495 246.143 458.99 246.204 458.396 246.226C457.293 246.269 456.326 246.122 455.495 245.785C454.671 245.449 454.03 244.926 453.572 244.217C453.114 243.508 452.888 242.612 452.895 241.531V225.546ZM468.488 236.46V246H463.912V223.999H468.359V232.41H468.553C468.925 231.436 469.527 230.674 470.358 230.122C471.188 229.564 472.23 229.284 473.484 229.284C474.63 229.284 475.629 229.535 476.481 230.036C477.34 230.53 478.006 231.243 478.479 232.174C478.959 233.098 479.195 234.204 479.188 235.494V246H474.612V236.31C474.619 235.293 474.361 234.502 473.838 233.936C473.323 233.37 472.599 233.087 471.668 233.087C471.045 233.087 470.494 233.22 470.014 233.485C469.541 233.75 469.169 234.136 468.897 234.645C468.632 235.146 468.495 235.751 468.488 236.46ZM489.877 246V223.999H494.454V232.271H494.593C494.794 231.827 495.084 231.376 495.463 230.917C495.85 230.452 496.351 230.065 496.967 229.757C497.59 229.442 498.364 229.284 499.288 229.284C500.491 229.284 501.601 229.599 502.618 230.23C503.635 230.853 504.448 231.794 505.057 233.055C505.665 234.308 505.97 235.88 505.97 237.771C505.97 239.612 505.673 241.166 505.078 242.433C504.491 243.694 503.689 244.65 502.672 245.302C501.662 245.946 500.53 246.269 499.277 246.269C498.389 246.269 497.633 246.122 497.01 245.828C496.394 245.534 495.89 245.166 495.496 244.722C495.102 244.27 494.801 243.816 494.593 243.357H494.389V246H489.877ZM494.357 237.75C494.357 238.731 494.493 239.587 494.765 240.317C495.037 241.048 495.431 241.617 495.947 242.025C496.462 242.426 497.089 242.627 497.827 242.627C498.572 242.627 499.202 242.423 499.718 242.014C500.233 241.599 500.624 241.026 500.889 240.296C501.161 239.558 501.297 238.709 501.297 237.75C501.297 236.797 501.164 235.959 500.899 235.236C500.634 234.512 500.244 233.947 499.728 233.538C499.213 233.13 498.579 232.926 497.827 232.926C497.082 232.926 496.452 233.123 495.936 233.517C495.428 233.911 495.037 234.469 494.765 235.193C494.493 235.916 494.357 236.768 494.357 237.75ZM513.729 246.312C512.676 246.312 511.738 246.129 510.914 245.764C510.091 245.391 509.439 244.843 508.959 244.12C508.486 243.39 508.25 242.48 508.25 241.391C508.25 240.475 508.418 239.705 508.755 239.082C509.092 238.459 509.55 237.957 510.13 237.578C510.71 237.198 511.369 236.912 512.107 236.718C512.851 236.525 513.632 236.389 514.449 236.31C515.408 236.21 516.182 236.117 516.769 236.031C517.356 235.938 517.782 235.802 518.047 235.622C518.312 235.443 518.445 235.178 518.445 234.828V234.763C518.445 234.083 518.23 233.556 517.8 233.184C517.378 232.811 516.776 232.625 515.996 232.625C515.172 232.625 514.517 232.808 514.03 233.173C513.543 233.531 513.22 233.982 513.063 234.527L508.83 234.183C509.045 233.18 509.468 232.314 510.098 231.583C510.728 230.846 511.541 230.28 512.536 229.886C513.539 229.485 514.699 229.284 516.017 229.284C516.934 229.284 517.811 229.392 518.649 229.607C519.494 229.821 520.243 230.154 520.894 230.606C521.553 231.057 522.072 231.637 522.452 232.346C522.832 233.048 523.021 233.889 523.021 234.87V246H518.681V243.712H518.552C518.287 244.227 517.933 244.682 517.489 245.076C517.045 245.463 516.511 245.767 515.888 245.989C515.265 246.204 514.545 246.312 513.729 246.312ZM515.039 243.153C515.713 243.153 516.307 243.021 516.823 242.756C517.338 242.484 517.743 242.118 518.037 241.66C518.33 241.202 518.477 240.682 518.477 240.102V238.351C518.334 238.444 518.137 238.53 517.886 238.609C517.643 238.681 517.367 238.749 517.059 238.813C516.751 238.87 516.443 238.924 516.135 238.974C515.827 239.017 515.548 239.057 515.297 239.092C514.76 239.171 514.291 239.297 513.89 239.468C513.489 239.64 513.177 239.873 512.955 240.167C512.733 240.453 512.622 240.811 512.622 241.241C512.622 241.864 512.848 242.34 513.299 242.67C513.757 242.992 514.338 243.153 515.039 243.153ZM540.301 234.204L536.111 234.462C536.04 234.104 535.886 233.782 535.649 233.495C535.413 233.202 535.102 232.969 534.715 232.797C534.335 232.618 533.88 232.529 533.35 232.529C532.641 232.529 532.043 232.679 531.556 232.98C531.069 233.273 530.826 233.667 530.826 234.161C530.826 234.555 530.983 234.888 531.299 235.161C531.614 235.433 532.154 235.651 532.921 235.816L535.907 236.417C537.512 236.747 538.708 237.277 539.495 238.007C540.283 238.738 540.677 239.698 540.677 240.886C540.677 241.968 540.358 242.917 539.721 243.733C539.091 244.55 538.224 245.187 537.121 245.645C536.025 246.097 534.761 246.322 533.329 246.322C531.145 246.322 529.404 245.868 528.108 244.958C526.819 244.041 526.063 242.795 525.841 241.219L530.342 240.983C530.479 241.649 530.808 242.158 531.331 242.509C531.854 242.852 532.523 243.024 533.34 243.024C534.142 243.024 534.786 242.87 535.273 242.562C535.768 242.247 536.018 241.843 536.025 241.348C536.018 240.933 535.843 240.593 535.499 240.328C535.155 240.056 534.625 239.848 533.909 239.705L531.052 239.135C529.44 238.813 528.24 238.254 527.453 237.459C526.672 236.665 526.282 235.651 526.282 234.419C526.282 233.359 526.568 232.446 527.141 231.68C527.721 230.914 528.534 230.323 529.58 229.907C530.633 229.492 531.864 229.284 533.275 229.284C535.359 229.284 536.999 229.725 538.195 230.606C539.399 231.487 540.101 232.686 540.301 234.204ZM551.079 246.322C549.381 246.322 547.92 245.979 546.696 245.291C545.478 244.596 544.54 243.615 543.881 242.347C543.222 241.073 542.893 239.565 542.893 237.825C542.893 236.127 543.222 234.638 543.881 233.356C544.54 232.074 545.467 231.075 546.663 230.359C547.867 229.642 549.278 229.284 550.896 229.284C551.985 229.284 552.998 229.46 553.936 229.811C554.882 230.154 555.705 230.674 556.407 231.368C557.116 232.063 557.668 232.937 558.062 233.99C558.455 235.035 558.652 236.26 558.652 237.664V238.921H544.719V236.084H554.345C554.345 235.426 554.201 234.842 553.915 234.333C553.628 233.825 553.231 233.427 552.722 233.141C552.221 232.847 551.637 232.7 550.971 232.7C550.277 232.7 549.661 232.862 549.124 233.184C548.594 233.499 548.178 233.925 547.877 234.462C547.577 234.992 547.423 235.583 547.415 236.235V238.931C547.415 239.748 547.566 240.453 547.867 241.048C548.175 241.642 548.608 242.1 549.167 242.423C549.725 242.745 550.388 242.906 551.154 242.906C551.662 242.906 552.128 242.834 552.55 242.691C552.973 242.548 553.335 242.333 553.636 242.047C553.936 241.76 554.165 241.409 554.323 240.994L558.556 241.273C558.341 242.29 557.9 243.178 557.234 243.937C556.575 244.689 555.723 245.277 554.678 245.699C553.639 246.115 552.439 246.322 551.079 246.322ZM566.215 223.999V246H561.639V223.999H566.215ZM569.881 246V229.499H574.458V246H569.881ZM572.18 227.372C571.5 227.372 570.916 227.146 570.429 226.695C569.949 226.237 569.709 225.689 569.709 225.052C569.709 224.421 569.949 223.881 570.429 223.429C570.916 222.971 571.5 222.742 572.18 222.742C572.861 222.742 573.441 222.971 573.921 223.429C574.408 223.881 574.651 224.421 574.651 225.052C574.651 225.689 574.408 226.237 573.921 226.695C573.441 227.146 572.861 227.372 572.18 227.372ZM582.7 236.46V246H578.124V229.499H582.485V232.41H582.679C583.044 231.451 583.656 230.692 584.516 230.133C585.375 229.567 586.417 229.284 587.642 229.284C588.788 229.284 589.787 229.535 590.639 230.036C591.491 230.538 592.154 231.254 592.626 232.185C593.099 233.109 593.335 234.212 593.335 235.494V246H588.759V236.31C588.766 235.3 588.508 234.512 587.985 233.947C587.463 233.374 586.743 233.087 585.826 233.087C585.21 233.087 584.666 233.22 584.193 233.485C583.728 233.75 583.363 234.136 583.098 234.645C582.84 235.146 582.707 235.751 582.7 236.46ZM604.462 246.322C602.765 246.322 601.304 245.979 600.079 245.291C598.862 244.596 597.923 243.615 597.265 242.347C596.606 241.073 596.276 239.565 596.276 237.825C596.276 236.127 596.606 234.638 597.265 233.356C597.923 232.074 598.851 231.075 600.047 230.359C601.25 229.642 602.661 229.284 604.28 229.284C605.368 229.284 606.382 229.46 607.32 229.811C608.265 230.154 609.089 230.674 609.791 231.368C610.5 232.063 611.051 232.937 611.445 233.99C611.839 235.035 612.036 236.26 612.036 237.664V238.921H598.103V236.084H607.728C607.728 235.426 607.585 234.842 607.298 234.333C607.012 233.825 606.614 233.427 606.106 233.141C605.605 232.847 605.021 232.7 604.355 232.7C603.66 232.7 603.044 232.862 602.507 233.184C601.977 233.499 601.562 233.925 601.261 234.462C600.96 234.992 600.806 235.583 600.799 236.235V238.931C600.799 239.748 600.949 240.453 601.25 241.048C601.558 241.642 601.991 242.1 602.55 242.423C603.109 242.745 603.771 242.906 604.537 242.906C605.046 242.906 605.511 242.834 605.934 242.691C606.357 242.548 606.718 242.333 607.019 242.047C607.32 241.76 607.549 241.409 607.707 240.994L611.939 241.273C611.724 242.29 611.284 243.178 610.618 243.937C609.959 244.689 609.107 245.277 608.061 245.699C607.023 246.115 605.823 246.322 604.462 246.322Z" fill="#3A3A3A"></path><path d="M68.8986 283.977C72.3275 280.884 72.9159 279.858 74.6678 279.41C80.5804 277.898 81.2147 287.095 76.0874 287.677C72.8323 288.046 71.2912 285.794 68.8986 283.977ZM68.8986 283.977C68.8286 284.035 68.966 283.92 68.8986 283.977ZM68.8986 283.977C67.578 282.973 65.5606 281.49 64.0944 281.07C59.3916 279.933 58.9351 288.276 64.1413 287.254C65.9234 286.907 67.4519 285.199 68.8986 283.977Z" stroke="#3A3A3A" stroke-width="2"></path><rect x="57" y="270.494" width="26" height="26" rx="13" stroke="#3A3A3A" stroke-width="2"></rect><rect x="92" y="271.494" width="128" height="24" rx="12" fill="#F1F1F1"></rect><path d="M101.979 287.494H100.348L104.012 277.312H105.787L109.451 287.494H107.82L104.942 279.162H104.862L101.979 287.494ZM102.252 283.507H107.542V284.8H102.252V283.507ZM112.289 282.96V287.494H110.802V279.858H112.229V281.101H112.323C112.499 280.696 112.774 280.372 113.149 280.126C113.526 279.881 114.002 279.758 114.575 279.758C115.096 279.758 115.552 279.868 115.943 280.086C116.334 280.302 116.637 280.623 116.852 281.051C117.068 281.479 117.176 282.007 117.176 282.637V287.494H115.689V282.816C115.689 282.262 115.545 281.83 115.257 281.518C114.968 281.203 114.572 281.046 114.068 281.046C113.724 281.046 113.417 281.121 113.149 281.27C112.883 281.419 112.673 281.638 112.517 281.926C112.365 282.211 112.289 282.556 112.289 282.96ZM121.392 287.663C120.908 287.663 120.47 287.574 120.079 287.395C119.688 287.212 119.378 286.949 119.149 286.604C118.924 286.26 118.811 285.837 118.811 285.336C118.811 284.906 118.894 284.551 119.06 284.273C119.226 283.994 119.449 283.774 119.731 283.611C120.013 283.449 120.328 283.326 120.676 283.243C121.024 283.161 121.378 283.098 121.74 283.055C122.197 283.001 122.568 282.958 122.853 282.925C123.138 282.889 123.345 282.831 123.475 282.751C123.604 282.672 123.669 282.542 123.669 282.363V282.329C123.669 281.894 123.546 281.558 123.301 281.319C123.059 281.081 122.697 280.961 122.217 280.961C121.716 280.961 121.322 281.073 121.034 281.295C120.749 281.513 120.551 281.757 120.442 282.025L119.045 281.707C119.211 281.243 119.453 280.869 119.771 280.584C120.092 280.295 120.462 280.086 120.879 279.957C121.297 279.825 121.736 279.758 122.197 279.758C122.502 279.758 122.825 279.795 123.166 279.868C123.511 279.937 123.833 280.067 124.131 280.256C124.432 280.444 124.679 280.715 124.872 281.066C125.064 281.414 125.16 281.866 125.16 282.423V287.494H123.708V286.45H123.649C123.552 286.642 123.408 286.831 123.216 287.017C123.024 287.202 122.777 287.357 122.475 287.479C122.174 287.602 121.812 287.663 121.392 287.663ZM121.715 286.47C122.126 286.47 122.477 286.389 122.769 286.226C123.064 286.064 123.287 285.852 123.44 285.59C123.596 285.325 123.673 285.041 123.673 284.74V283.756C123.62 283.809 123.518 283.858 123.365 283.905C123.216 283.948 123.045 283.986 122.853 284.019C122.661 284.049 122.474 284.077 122.291 284.104C122.109 284.127 121.957 284.147 121.834 284.163C121.546 284.2 121.282 284.261 121.044 284.347C120.808 284.433 120.619 284.558 120.477 284.72C120.338 284.879 120.268 285.091 120.268 285.356C120.268 285.724 120.404 286.003 120.676 286.192C120.947 286.377 121.294 286.47 121.715 286.47ZM128.626 277.312V287.494H127.14V277.312H128.626ZM131.566 290.358C131.344 290.358 131.142 290.34 130.959 290.303C130.777 290.27 130.641 290.233 130.552 290.194L130.91 288.976C131.181 289.049 131.423 289.08 131.635 289.07C131.848 289.06 132.035 288.981 132.197 288.831C132.363 288.682 132.509 288.439 132.635 288.101L132.819 287.594L130.025 279.858H131.616L133.55 285.784H133.629L135.563 279.858H137.159L134.012 288.513C133.866 288.911 133.68 289.247 133.455 289.523C133.23 289.801 132.961 290.01 132.65 290.149C132.338 290.288 131.977 290.358 131.566 290.358ZM138.397 287.494V286.475L142.533 281.22V281.15H138.531V279.858H144.388V280.942L140.41 286.132V286.202H144.527V287.494H138.397ZM146.281 287.494V279.858H147.767V287.494H146.281ZM147.031 278.68C146.773 278.68 146.551 278.593 146.365 278.421C146.183 278.245 146.092 278.037 146.092 277.795C146.092 277.549 146.183 277.34 146.365 277.168C146.551 276.992 146.773 276.905 147.031 276.905C147.29 276.905 147.51 276.992 147.692 277.168C147.878 277.34 147.971 277.549 147.971 277.795C147.971 278.037 147.878 278.245 147.692 278.421C147.51 278.593 147.29 278.68 147.031 278.68ZM151.253 282.96V287.494H149.767V279.858H151.194V281.101H151.288C151.464 280.696 151.739 280.372 152.113 280.126C152.491 279.881 152.967 279.758 153.54 279.758C154.061 279.758 154.516 279.868 154.907 280.086C155.299 280.302 155.602 280.623 155.817 281.051C156.033 281.479 156.14 282.007 156.14 282.637V287.494H154.654V282.816C154.654 282.262 154.51 281.83 154.221 281.518C153.933 281.203 153.537 281.046 153.033 281.046C152.689 281.046 152.382 281.121 152.113 281.27C151.848 281.419 151.638 281.638 151.482 281.926C151.33 282.211 151.253 282.556 151.253 282.96ZM161.336 290.517C160.729 290.517 160.207 290.437 159.77 290.278C159.336 290.119 158.981 289.909 158.706 289.647C158.431 289.385 158.225 289.098 158.089 288.787L159.367 288.26C159.456 288.406 159.576 288.56 159.725 288.722C159.877 288.888 160.083 289.029 160.341 289.145C160.603 289.261 160.94 289.319 161.351 289.319C161.914 289.319 162.38 289.181 162.748 288.906C163.116 288.634 163.3 288.2 163.3 287.604V286.102H163.205C163.116 286.265 162.986 286.445 162.817 286.644C162.652 286.843 162.423 287.015 162.131 287.161C161.84 287.307 161.46 287.38 160.993 287.38C160.39 287.38 159.846 287.239 159.362 286.957C158.881 286.672 158.5 286.253 158.219 285.699C157.94 285.143 157.801 284.458 157.801 283.646C157.801 282.834 157.939 282.138 158.214 281.558C158.492 280.978 158.873 280.534 159.357 280.226C159.841 279.914 160.39 279.758 161.003 279.758C161.477 279.758 161.859 279.838 162.151 279.997C162.443 280.153 162.67 280.335 162.832 280.544C162.998 280.753 163.126 280.937 163.215 281.096H163.324V279.858H164.781V287.663C164.781 288.319 164.629 288.858 164.324 289.279C164.019 289.7 163.606 290.011 163.086 290.214C162.569 290.416 161.985 290.517 161.336 290.517ZM161.321 286.147C161.748 286.147 162.11 286.047 162.405 285.849C162.703 285.646 162.928 285.358 163.081 284.983C163.237 284.606 163.314 284.153 163.314 283.626C163.314 283.113 163.238 282.66 163.086 282.269C162.933 281.878 162.71 281.573 162.415 281.354C162.12 281.132 161.755 281.021 161.321 281.021C160.873 281.021 160.501 281.137 160.202 281.369C159.904 281.598 159.679 281.909 159.526 282.304C159.377 282.698 159.302 283.139 159.302 283.626C159.302 284.127 159.379 284.566 159.531 284.944C159.684 285.322 159.909 285.617 160.207 285.829C160.509 286.041 160.88 286.147 161.321 286.147ZM173.338 287.643C172.722 287.643 172.172 287.486 171.688 287.171C171.207 286.853 170.829 286.4 170.554 285.814C170.283 285.224 170.147 284.516 170.147 283.691C170.147 282.866 170.284 282.16 170.559 281.573C170.838 280.986 171.219 280.537 171.703 280.226C172.187 279.914 172.735 279.758 173.348 279.758C173.822 279.758 174.203 279.838 174.492 279.997C174.783 280.153 175.009 280.335 175.168 280.544C175.33 280.753 175.456 280.937 175.546 281.096H175.635V277.312H177.122V287.494H175.67V286.306H175.546C175.456 286.468 175.327 286.654 175.158 286.863C174.992 287.072 174.764 287.254 174.472 287.41C174.18 287.565 173.802 287.643 173.338 287.643ZM173.667 286.376C174.094 286.376 174.455 286.263 174.75 286.037C175.049 285.809 175.274 285.492 175.426 285.088C175.582 284.684 175.66 284.213 175.66 283.676C175.66 283.146 175.584 282.682 175.431 282.284C175.279 281.886 175.055 281.576 174.76 281.354C174.465 281.132 174.101 281.021 173.667 281.021C173.219 281.021 172.846 281.137 172.548 281.369C172.25 281.601 172.024 281.918 171.872 282.319C171.723 282.72 171.648 283.172 171.648 283.676C171.648 284.186 171.724 284.645 171.877 285.053C172.029 285.461 172.255 285.784 172.553 286.023C172.855 286.258 173.226 286.376 173.667 286.376ZM181.466 287.663C180.982 287.663 180.544 287.574 180.153 287.395C179.762 287.212 179.452 286.949 179.224 286.604C178.998 286.26 178.885 285.837 178.885 285.336C178.885 284.906 178.968 284.551 179.134 284.273C179.3 283.994 179.523 283.774 179.805 283.611C180.087 283.449 180.402 283.326 180.75 283.243C181.098 283.161 181.452 283.098 181.814 283.055C182.271 283.001 182.642 282.958 182.927 282.925C183.212 282.889 183.42 282.831 183.549 282.751C183.678 282.672 183.743 282.542 183.743 282.363V282.329C183.743 281.894 183.62 281.558 183.375 281.319C183.133 281.081 182.772 280.961 182.291 280.961C181.791 280.961 181.396 281.073 181.108 281.295C180.823 281.513 180.626 281.757 180.516 282.025L179.119 281.707C179.285 281.243 179.527 280.869 179.845 280.584C180.166 280.295 180.536 280.086 180.954 279.957C181.371 279.825 181.81 279.758 182.271 279.758C182.576 279.758 182.899 279.795 183.241 279.868C183.585 279.937 183.907 280.067 184.205 280.256C184.507 280.444 184.754 280.715 184.946 281.066C185.138 281.414 185.234 281.866 185.234 282.423V287.494H183.782V286.45H183.723C183.627 286.642 183.483 286.831 183.29 287.017C183.098 287.202 182.851 287.357 182.55 287.479C182.248 287.602 181.887 287.663 181.466 287.663ZM181.789 286.47C182.2 286.47 182.551 286.389 182.843 286.226C183.138 286.064 183.362 285.852 183.514 285.59C183.67 285.325 183.748 285.041 183.748 284.74V283.756C183.695 283.809 183.592 283.858 183.439 283.905C183.29 283.948 183.12 283.986 182.927 284.019C182.735 284.049 182.548 284.077 182.366 284.104C182.183 284.127 182.031 284.147 181.908 284.163C181.62 284.2 181.356 284.261 181.118 284.347C180.882 284.433 180.693 284.558 180.551 284.72C180.412 284.879 180.342 285.091 180.342 285.356C180.342 285.724 180.478 286.003 180.75 286.192C181.022 286.377 181.368 286.47 181.789 286.47ZM190.779 279.858V281.051H186.608V279.858H190.779ZM187.726 278.028H189.213V285.252C189.213 285.54 189.256 285.757 189.342 285.903C189.428 286.046 189.539 286.144 189.675 286.197C189.814 286.246 189.965 286.271 190.127 286.271C190.247 286.271 190.351 286.263 190.441 286.246C190.53 286.23 190.6 286.216 190.65 286.206L190.918 287.434C190.832 287.468 190.709 287.501 190.55 287.534C190.391 287.57 190.192 287.59 189.953 287.594C189.562 287.6 189.198 287.531 188.86 287.385C188.522 287.239 188.248 287.014 188.039 286.709C187.831 286.404 187.726 286.021 187.726 285.56V278.028ZM194.645 287.663C194.162 287.663 193.724 287.574 193.333 287.395C192.942 287.212 192.632 286.949 192.403 286.604C192.178 286.26 192.065 285.837 192.065 285.336C192.065 284.906 192.148 284.551 192.314 284.273C192.479 283.994 192.703 283.774 192.985 283.611C193.267 283.449 193.581 283.326 193.93 283.243C194.278 283.161 194.632 283.098 194.993 283.055C195.451 283.001 195.822 282.958 196.107 282.925C196.392 282.889 196.599 282.831 196.729 282.751C196.858 282.672 196.922 282.542 196.922 282.363V282.329C196.922 281.894 196.8 281.558 196.555 281.319C196.313 281.081 195.951 280.961 195.471 280.961C194.97 280.961 194.576 281.073 194.287 281.295C194.002 281.513 193.805 281.757 193.696 282.025L192.299 281.707C192.465 281.243 192.706 280.869 193.025 280.584C193.346 280.295 193.716 280.086 194.133 279.957C194.551 279.825 194.99 279.758 195.451 279.758C195.756 279.758 196.079 279.795 196.42 279.868C196.765 279.937 197.086 280.067 197.385 280.256C197.686 280.444 197.933 280.715 198.126 281.066C198.318 281.414 198.414 281.866 198.414 282.423V287.494H196.962V286.45H196.903C196.806 286.642 196.662 286.831 196.47 287.017C196.278 287.202 196.031 287.357 195.729 287.479C195.428 287.602 195.066 287.663 194.645 287.663ZM194.969 286.47C195.38 286.47 195.731 286.389 196.023 286.226C196.318 286.064 196.541 285.852 196.694 285.59C196.849 285.325 196.927 285.041 196.927 284.74V283.756C196.874 283.809 196.772 283.858 196.619 283.905C196.47 283.948 196.299 283.986 196.107 284.019C195.915 284.049 195.728 284.077 195.545 284.104C195.363 284.127 195.211 284.147 195.088 284.163C194.8 284.2 194.536 284.261 194.297 284.347C194.062 284.433 193.873 284.558 193.731 284.72C193.591 284.879 193.522 285.091 193.522 285.356C193.522 285.724 193.658 286.003 193.93 286.192C194.201 286.377 194.548 286.47 194.969 286.47ZM201.373 287.589C201.101 287.589 200.868 287.492 200.672 287.3C200.477 287.105 200.379 286.869 200.379 286.594C200.379 286.323 200.477 286.09 200.672 285.898C200.868 285.703 201.101 285.605 201.373 285.605C201.645 285.605 201.879 285.703 202.074 285.898C202.27 286.09 202.368 286.323 202.368 286.594C202.368 286.777 202.321 286.944 202.228 287.096C202.139 287.246 202.02 287.365 201.87 287.454C201.721 287.544 201.556 287.589 201.373 287.589ZM205.338 287.589C205.066 287.589 204.833 287.492 204.637 287.3C204.442 287.105 204.344 286.869 204.344 286.594C204.344 286.323 204.442 286.09 204.637 285.898C204.833 285.703 205.066 285.605 205.338 285.605C205.61 285.605 205.844 285.703 206.039 285.898C206.235 286.09 206.332 286.323 206.332 286.594C206.332 286.777 206.286 286.944 206.193 287.096C206.104 287.246 205.984 287.365 205.835 287.454C205.686 287.544 205.52 287.589 205.338 287.589ZM209.303 287.589C209.031 287.589 208.797 287.492 208.602 287.3C208.406 287.105 208.309 286.869 208.309 286.594C208.309 286.323 208.406 286.09 208.602 285.898C208.797 285.703 209.031 285.605 209.303 285.605C209.575 285.605 209.808 285.703 210.004 285.898C210.199 286.09 210.297 286.323 210.297 286.594C210.297 286.777 210.251 286.944 210.158 287.096C210.069 287.246 209.949 287.365 209.8 287.454C209.651 287.544 209.485 287.589 209.303 287.589Z" fill="#3A3A3A"></path></g></g><rect x="-570.317" y="-190.317" width="1634.22" height="1122.63" rx="13.0153" stroke="#D8D8D8" stroke-width="0.634893"></rect></g><path d="M1 0H540H1ZM540 391H13C5.8203 391 0 385.18 0 378H2C2 384.075 6.92487 389 13 389H540V391ZM13 391C5.8203 391 0 385.18 0 378V0H2V378C2 384.075 6.92487 389 13 389V391ZM540 0V390V0Z" fill="#EBEBEB" mask="url(#path-1-outside-1_3072_3118)"></path><defs><clipPath id="clip0_3072_3118"><path d="M1 0H520C531.046 0 540 8.95431 540 20V390H13C6.37259 390 1 384.627 1 378V0Z" fill="white"></path></clipPath><clipPath id="clip1_3072_3118"><path d="M-570 -123.971H1063.59V932H-556.55C-563.978 932 -570 925.978 -570 918.55V-123.971Z" fill="white"></path></clipPath><clipPath id="clip2_3072_3118"><rect x="-570" y="-123.971" width="1633.59" height="1055.97" rx="9.45364" fill="white"></rect></clipPath></defs></svg>