<svg xmlns="http://www.w3.org/2000/svg" width="543" height="359" viewBox="0 0 543 359" fill="none"><g clip-path="url(#clip0_3087_2610)"><path d="M1 -697.971H1634.59V358H14.4499C7.0217 358 1 351.978 1 344.55V-697.971Z" fill="#FBFBFB"></path><g clip-path="url(#clip1_3087_2610)"><mask id="path-4-inside-1_3087_2610" fill="white"><path d="M1 -656.375H454.775V358H10.4537C5.23255 358 1 353.768 1 348.546V-656.375Z"></path></mask><path d="M1 -656.375H454.775V358H10.4537C5.23255 358 1 353.768 1 348.546V-656.375Z" fill="white"></path><path d="M23.0562 210.414C25.9952 207.763 26.4995 206.883 28.0012 206.499C33.0691 205.203 33.6128 213.087 29.218 213.585C26.4279 213.902 25.1069 211.972 23.0562 210.414ZM23.0562 210.414C22.9962 210.463 23.1139 210.365 23.0562 210.414ZM23.0562 210.414C21.9242 209.554 20.195 208.282 18.9383 207.922C14.9073 206.947 14.516 214.099 18.9785 213.223C20.506 212.926 21.8161 211.461 23.0562 210.414Z" stroke="#3A3A3A" stroke-width="1.71429"></path><rect x="12.8571" y="198.857" width="22.2857" height="22.2857" rx="11.1429" stroke="#3A3A3A" stroke-width="1.71429"></rect><g clip-path="url(#clip2_3087_2610)"><rect x="44" y="191.784" width="364" height="33.6076" rx="4" fill="#F1F1F1"></rect><g clip-path="url(#clip3_3087_2610)"><rect width="843" height="40" transform="translate(44 191.784)" fill="#F7F7F7"></rect><g clip-path="url(#clip4_3087_2610)"><path d="M56 210.613L56 204.954C56.0004 204.854 56.0318 204.756 56.0901 204.673C56.1484 204.59 56.231 204.526 56.3275 204.488C56.424 204.45 56.5301 204.44 56.6323 204.46C56.7345 204.48 56.8282 204.529 56.9017 204.6L59.844 207.424C59.8934 207.471 59.9327 207.527 59.9594 207.589C59.9862 207.651 60 207.717 60 207.784C60 207.85 59.9862 207.917 59.9594 207.978C59.9327 208.04 59.8934 208.096 59.844 208.143L56.9017 210.967C56.8282 211.038 56.7345 211.087 56.6323 211.107C56.5301 211.127 56.424 211.117 56.3275 211.079C56.231 211.041 56.1484 210.977 56.0901 210.894C56.0318 210.811 56.0004 210.713 56 210.613V210.613Z" fill="#3A3A3A"></path></g><path d="M76.1953 205.813C76.1461 205.376 75.9429 205.037 75.5859 204.797C75.2289 204.554 74.7796 204.432 74.2379 204.432C73.8501 204.432 73.5147 204.494 73.2315 204.617C72.9484 204.737 72.7283 204.903 72.5714 205.116C72.4175 205.325 72.3406 205.564 72.3406 205.831C72.3406 206.056 72.3929 206.25 72.4975 206.413C72.6052 206.576 72.7453 206.713 72.9176 206.824C73.093 206.932 73.2808 207.022 73.4808 207.096C73.6809 207.167 73.8732 207.225 74.0579 207.272L74.9812 207.512C75.2828 207.586 75.5921 207.686 75.9091 207.812C76.2261 207.938 76.52 208.104 76.7908 208.31C77.0617 208.517 77.2802 208.772 77.4464 209.077C77.6156 209.381 77.7003 209.746 77.7003 210.171C77.7003 210.706 77.5618 211.182 77.2848 211.597C77.0109 212.013 76.6123 212.341 76.0891 212.581C75.569 212.821 74.9396 212.941 74.201 212.941C73.4931 212.941 72.8807 212.828 72.3636 212.604C71.8466 212.379 71.4419 212.06 71.1495 211.648C70.8571 211.233 70.6955 210.74 70.6648 210.171H72.0959C72.1236 210.512 72.2344 210.797 72.4283 211.025C72.6252 211.249 72.8761 211.417 73.1808 211.528C73.4885 211.636 73.8255 211.69 74.1918 211.69C74.5949 211.69 74.9535 211.626 75.2674 211.5C75.5844 211.371 75.8337 211.193 76.0153 210.965C76.1969 210.734 76.2876 210.465 76.2876 210.157C76.2876 209.877 76.2076 209.648 76.0476 209.469C75.8906 209.291 75.6767 209.143 75.4059 209.026C75.1381 208.909 74.835 208.806 74.4964 208.717L73.3793 208.412C72.6222 208.206 72.022 207.903 71.5788 207.502C71.1387 207.102 70.9187 206.573 70.9187 205.914C70.9187 205.37 71.0664 204.894 71.3619 204.488C71.6573 204.082 72.0574 203.766 72.5621 203.542C73.0669 203.314 73.6362 203.2 74.2702 203.2C74.9104 203.2 75.4751 203.312 75.9645 203.537C76.4569 203.762 76.8447 204.071 77.1278 204.465C77.411 204.856 77.5587 205.305 77.571 205.813H76.1953ZM80.6744 208.573V212.784H79.2941V203.329H80.656V206.847H80.7437C80.9099 206.465 81.1638 206.162 81.5054 205.937C81.847 205.713 82.2933 205.6 82.8442 205.6C83.3305 205.6 83.7552 205.7 84.1183 205.901C84.4846 206.101 84.7677 206.399 84.9678 206.796C85.1709 207.19 85.2725 207.682 85.2725 208.273V212.784H83.8921V208.44C83.8921 207.919 83.7583 207.516 83.4905 207.23C83.2227 206.941 82.8503 206.796 82.3733 206.796C82.0471 206.796 81.7547 206.865 81.4962 207.004C81.2407 207.142 81.0392 207.345 80.8914 207.613C80.7468 207.878 80.6744 208.198 80.6744 208.573ZM90.1013 212.927C89.4365 212.927 88.8564 212.774 88.3609 212.47C87.8654 212.165 87.4807 211.739 87.2068 211.191C86.9329 210.643 86.7959 210.003 86.7959 209.271C86.7959 208.535 86.9329 207.892 87.2068 207.341C87.4807 206.79 87.8654 206.362 88.3609 206.057C88.8564 205.753 89.4365 205.6 90.1013 205.6C90.7661 205.6 91.3462 205.753 91.8417 206.057C92.3372 206.362 92.7219 206.79 92.9958 207.341C93.2697 207.892 93.4067 208.535 93.4067 209.271C93.4067 210.003 93.2697 210.643 92.9958 211.191C92.7219 211.739 92.3372 212.165 91.8417 212.47C91.3462 212.774 90.7661 212.927 90.1013 212.927ZM90.1059 211.768C90.5368 211.768 90.8938 211.654 91.1769 211.426C91.4601 211.199 91.6694 210.896 91.8048 210.517C91.9433 210.138 92.0125 209.721 92.0125 209.266C92.0125 208.814 91.9433 208.398 91.8048 208.019C91.6694 207.638 91.4601 207.332 91.1769 207.101C90.8938 206.87 90.5368 206.755 90.1059 206.755C89.672 206.755 89.3119 206.87 89.0257 207.101C88.7425 207.332 88.5317 207.638 88.3932 208.019C88.2578 208.398 88.1901 208.814 88.1901 209.266C88.1901 209.721 88.2578 210.138 88.3932 210.517C88.5317 210.896 88.7425 211.199 89.0257 211.426C89.3119 211.654 89.672 211.768 90.1059 211.768ZM96.2689 212.784L94.1823 205.693H95.6088L96.9983 210.9H97.0676L98.4617 205.693H99.8882L101.273 210.877H101.342L102.723 205.693H104.149L102.067 212.784H100.659L99.2188 207.664H99.1127L97.6723 212.784H96.2689ZM116.863 206.404H115.423C115.367 206.096 115.264 205.825 115.113 205.591C114.963 205.357 114.778 205.159 114.559 204.996C114.341 204.833 114.096 204.709 113.825 204.626C113.558 204.543 113.273 204.502 112.971 204.502C112.427 204.502 111.939 204.639 111.508 204.913C111.08 205.187 110.742 205.588 110.492 206.117C110.246 206.647 110.123 207.293 110.123 208.056C110.123 208.826 110.246 209.475 110.492 210.005C110.742 210.534 111.082 210.934 111.513 211.205C111.943 211.476 112.428 211.611 112.967 211.611C113.265 211.611 113.548 211.571 113.816 211.491C114.087 211.408 114.332 211.286 114.55 211.126C114.769 210.966 114.953 210.771 115.104 210.54C115.258 210.306 115.364 210.038 115.423 209.737L116.863 209.741C116.786 210.206 116.637 210.634 116.415 211.025C116.197 211.413 115.915 211.748 115.57 212.031C115.229 212.311 114.838 212.528 114.398 212.682C113.958 212.836 113.478 212.913 112.957 212.913C112.139 212.913 111.409 212.719 110.769 212.331C110.129 211.94 109.624 211.382 109.255 210.655C108.889 209.929 108.706 209.063 108.706 208.056C108.706 207.047 108.89 206.181 109.26 205.457C109.629 204.731 110.134 204.174 110.774 203.786C111.414 203.395 112.142 203.2 112.957 203.2C113.459 203.2 113.927 203.272 114.361 203.417C114.798 203.558 115.19 203.768 115.538 204.045C115.886 204.319 116.174 204.654 116.401 205.051C116.629 205.445 116.783 205.896 116.863 206.404ZM121.446 212.927C120.781 212.927 120.201 212.774 119.706 212.47C119.21 212.165 118.825 211.739 118.551 211.191C118.278 210.643 118.141 210.003 118.141 209.271C118.141 208.535 118.278 207.892 118.551 207.341C118.825 206.79 119.21 206.362 119.706 206.057C120.201 205.753 120.781 205.6 121.446 205.6C122.111 205.6 122.691 205.753 123.186 206.057C123.682 206.362 124.067 206.79 124.341 207.341C124.614 207.892 124.751 208.535 124.751 209.271C124.751 210.003 124.614 210.643 124.341 211.191C124.067 211.739 123.682 212.165 123.186 212.47C122.691 212.774 122.111 212.927 121.446 212.927ZM121.451 211.768C121.882 211.768 122.239 211.654 122.522 211.426C122.805 211.199 123.014 210.896 123.15 210.517C123.288 210.138 123.357 209.721 123.357 209.266C123.357 208.814 123.288 208.398 123.15 208.019C123.014 207.638 122.805 207.332 122.522 207.101C122.239 206.87 121.882 206.755 121.451 206.755C121.017 206.755 120.657 206.87 120.37 207.101C120.087 207.332 119.876 207.638 119.738 208.019C119.603 208.398 119.535 208.814 119.535 209.266C119.535 209.721 119.603 210.138 119.738 210.517C119.876 210.896 120.087 211.199 120.37 211.426C120.657 211.654 121.017 211.768 121.451 211.768ZM128.947 212.922C128.374 212.922 127.863 212.776 127.414 212.484C126.968 212.188 126.617 211.768 126.361 211.223C126.109 210.676 125.983 210.018 125.983 209.252C125.983 208.486 126.111 207.83 126.366 207.285C126.625 206.741 126.978 206.324 127.428 206.034C127.877 205.745 128.387 205.6 128.956 205.6C129.396 205.6 129.75 205.674 130.018 205.822C130.289 205.967 130.498 206.136 130.646 206.33C130.796 206.524 130.913 206.695 130.996 206.842H131.079V203.329H132.46V212.784H131.112V211.68H130.996C130.913 211.831 130.793 212.004 130.636 212.197C130.482 212.391 130.27 212.561 129.999 212.705C129.728 212.85 129.378 212.922 128.947 212.922ZM129.251 211.745C129.648 211.745 129.984 211.64 130.258 211.431C130.535 211.219 130.744 210.925 130.886 210.549C131.03 210.174 131.103 209.737 131.103 209.238C131.103 208.746 131.032 208.315 130.89 207.946C130.749 207.576 130.541 207.289 130.267 207.082C129.993 206.876 129.655 206.773 129.251 206.773C128.836 206.773 128.49 206.881 128.213 207.096C127.936 207.312 127.726 207.606 127.585 207.978C127.446 208.35 127.377 208.77 127.377 209.238C127.377 209.712 127.448 210.138 127.589 210.517C127.731 210.896 127.94 211.196 128.217 211.417C128.497 211.636 128.842 211.745 129.251 211.745ZM137.486 212.927C136.787 212.927 136.186 212.778 135.681 212.479C135.179 212.177 134.791 211.754 134.518 211.209C134.247 210.662 134.111 210.02 134.111 209.284C134.111 208.558 134.247 207.918 134.518 207.364C134.791 206.81 135.173 206.378 135.662 206.067C136.155 205.756 136.73 205.6 137.389 205.6C137.789 205.6 138.177 205.667 138.552 205.799C138.928 205.931 139.265 206.139 139.563 206.422C139.862 206.705 140.097 207.073 140.27 207.526C140.442 207.975 140.528 208.521 140.528 209.164V209.654H134.892V208.62H139.176C139.176 208.256 139.102 207.935 138.954 207.655C138.806 207.372 138.599 207.149 138.331 206.985C138.066 206.822 137.755 206.741 137.398 206.741C137.01 206.741 136.672 206.836 136.383 207.027C136.096 207.215 135.875 207.461 135.718 207.766C135.564 208.067 135.487 208.395 135.487 208.749V209.557C135.487 210.031 135.57 210.434 135.736 210.766C135.906 211.099 136.141 211.353 136.443 211.528C136.744 211.7 137.097 211.787 137.5 211.787C137.761 211.787 138 211.75 138.215 211.676C138.431 211.599 138.617 211.485 138.774 211.334C138.931 211.183 139.051 210.997 139.134 210.776L140.441 211.011C140.336 211.396 140.148 211.733 139.877 212.022C139.61 212.308 139.273 212.531 138.866 212.691C138.463 212.848 138.003 212.927 137.486 212.927Z" fill="#757575"></path></g></g><rect x="44.5" y="192.284" width="363" height="32.6076" rx="3.5" stroke="#EBEBEB"></rect><rect x="44" y="237" width="346.604" height="9" rx="4.5" fill="#EBEBEB"></rect><rect x="44" y="278" width="252.05" height="9" rx="4.5" fill="#EBEBEB"></rect><rect x="44" y="257" width="180.475" height="9" rx="4.5" fill="#EBEBEB"></rect><rect x="12" y="121" width="24" height="24" rx="12" fill="#3A3A3A"></rect><path d="M16.8374 138H15.3232L18.7255 128.545H20.3736L23.7759 138H22.2617L19.5888 130.263H19.5149L16.8374 138ZM17.0913 134.298H22.0032V135.498H17.0913V134.298ZM25.1412 138V128.545H28.5113C29.2468 128.545 29.8562 128.679 30.3394 128.947C30.8226 129.215 31.1842 129.581 31.4243 130.046C31.6643 130.507 31.7844 131.028 31.7844 131.606C31.7844 132.188 31.6628 132.711 31.4197 133.176C31.1796 133.637 30.8164 134.004 30.3302 134.275C29.847 134.542 29.2391 134.676 28.5067 134.676H26.1892V133.467H28.3774C28.8421 133.467 29.2191 133.387 29.5084 133.227C29.7977 133.063 30.0101 132.842 30.1455 132.562C30.2809 132.282 30.3486 131.963 30.3486 131.606C30.3486 131.249 30.2809 130.932 30.1455 130.655C30.0101 130.378 29.7962 130.161 29.5038 130.004C29.2145 129.847 28.8329 129.769 28.3589 129.769H26.5677V138H25.1412Z" fill="white"></path><rect x="44" y="128" width="103" height="9" rx="4.5" fill="#EBEBEB"></rect><rect x="44" y="151" width="315.394" height="9" rx="4.5" fill="#EBEBEB"></rect><path d="M1 -656.375H454.775H1ZM454.775 358H1H454.775ZM1 358V-656.375V358ZM455.72 -656.375V358H453.829V-656.375H455.72Z" fill="#F1F1F1" mask="url(#path-4-inside-1_3087_2610)"></path><rect x="12.8174" y="305.532" width="430.14" height="40.6506" rx="7.09023" fill="#FBFBFB"></rect><path d="M32.7411 323.909H31.2747C31.2183 323.595 31.1133 323.32 30.9598 323.082C30.8063 322.843 30.6183 322.641 30.3958 322.475C30.1733 322.309 29.9242 322.184 29.6485 322.099C29.3759 322.015 29.0861 321.972 28.779 321.972C28.2244 321.972 27.7278 322.112 27.2891 322.391C26.8536 322.669 26.5089 323.078 26.2551 323.617C26.0045 324.156 25.8791 324.814 25.8791 325.591C25.8791 326.375 26.0045 327.036 26.2551 327.575C26.5089 328.114 26.8552 328.521 27.2938 328.797C27.7325 329.072 28.226 329.21 28.7743 329.21C29.0783 329.21 29.3665 329.17 29.6391 329.088C29.9148 329.003 30.1639 328.88 30.3864 328.717C30.6089 328.554 30.7969 328.355 30.9504 328.12C31.1071 327.882 31.2152 327.609 31.2747 327.302L32.7411 327.307C32.6628 327.78 32.5108 328.215 32.2852 328.613C32.0627 329.008 31.776 329.35 31.4251 329.638C31.0773 329.923 30.6794 330.144 30.2313 330.301C29.7832 330.457 29.2945 330.536 28.7649 330.536C27.9315 330.536 27.1889 330.338 26.5371 329.943C25.8854 329.546 25.3716 328.977 24.9956 328.237C24.6227 327.498 24.4363 326.616 24.4363 325.591C24.4363 324.564 24.6243 323.682 25.0003 322.945C25.3763 322.206 25.8901 321.639 26.5418 321.244C27.1936 320.846 27.9346 320.647 28.7649 320.647C29.2757 320.647 29.7519 320.721 30.1937 320.868C30.6386 321.012 31.0381 321.225 31.3922 321.507C31.7463 321.786 32.0392 322.127 32.2711 322.532C32.503 322.933 32.6596 323.392 32.7411 323.909ZM35.7714 326.118V330.404H34.3661V320.779H35.7526V324.36H35.8419C36.0111 323.971 36.2696 323.663 36.6174 323.434C36.9652 323.205 37.4195 323.091 37.9804 323.091C38.4754 323.091 38.9078 323.193 39.2776 323.396C39.6504 323.6 39.9387 323.904 40.1424 324.308C40.3492 324.709 40.4526 325.211 40.4526 325.812V330.404H39.0473V325.981C39.0473 325.452 38.911 325.041 38.6384 324.75C38.3658 324.455 37.9866 324.308 37.501 324.308C37.1688 324.308 36.8712 324.379 36.608 324.52C36.3479 324.661 36.1427 324.867 35.9923 325.14C35.845 325.41 35.7714 325.735 35.7714 326.118ZM44.4287 330.564C43.9713 330.564 43.5577 330.479 43.1879 330.31C42.8182 330.138 42.5252 329.889 42.309 329.563C42.096 329.237 41.9894 328.837 41.9894 328.364C41.9894 327.957 42.0678 327.622 42.2244 327.358C42.3811 327.095 42.5926 326.887 42.8589 326.733C43.1253 326.58 43.4229 326.464 43.7519 326.386C44.0809 326.307 44.4162 326.248 44.7577 326.207C45.1901 326.157 45.541 326.116 45.8105 326.085C46.08 326.05 46.2758 325.995 46.398 325.92C46.5202 325.845 46.5813 325.723 46.5813 325.554V325.521C46.5813 325.11 46.4654 324.792 46.2335 324.567C46.0048 324.341 45.6632 324.228 45.2089 324.228C44.7358 324.228 44.3629 324.333 44.0903 324.543C43.8209 324.75 43.6344 324.98 43.531 325.234L42.2103 324.933C42.367 324.495 42.5957 324.141 42.8965 323.871C43.2005 323.599 43.5498 323.401 43.9446 323.279C44.3394 323.154 44.7546 323.091 45.1901 323.091C45.4784 323.091 45.7839 323.125 46.1066 323.194C46.4325 323.26 46.7364 323.382 47.0184 323.561C47.3035 323.74 47.537 323.995 47.7187 324.327C47.9004 324.656 47.9913 325.084 47.9913 325.61V330.404H46.6189V329.417H46.5625C46.4716 329.599 46.3353 329.777 46.1536 329.953C45.9719 330.128 45.7384 330.274 45.4533 330.39C45.1682 330.506 44.8266 330.564 44.4287 330.564ZM44.7342 329.436C45.1227 329.436 45.4549 329.359 45.7306 329.206C46.0095 329.052 46.221 328.851 46.3651 328.604C46.5124 328.353 46.586 328.085 46.586 327.8V326.87C46.5359 326.92 46.4387 326.967 46.2946 327.011C46.1536 327.051 45.9922 327.087 45.8105 327.119C45.6288 327.147 45.4517 327.174 45.2794 327.199C45.1071 327.221 44.9629 327.239 44.847 327.255C44.5744 327.29 44.3253 327.348 44.0997 327.429C43.8773 327.51 43.6987 327.628 43.5639 327.781C43.4323 327.932 43.3665 328.132 43.3665 328.383C43.3665 328.731 43.495 328.994 43.7519 329.173C44.0089 329.348 44.3363 329.436 44.7342 329.436ZM53.2329 323.185V324.313H49.2897V323.185H53.2329ZM50.3471 321.455H51.7524V328.284C51.7524 328.557 51.7932 328.762 51.8746 328.9C51.9561 329.035 52.0611 329.127 52.1895 329.177C52.3211 329.224 52.4637 329.248 52.6172 329.248C52.73 329.248 52.8287 329.24 52.9133 329.224C52.9979 329.209 53.0637 329.196 53.1107 329.187L53.3645 330.348C53.2831 330.379 53.1671 330.41 53.0167 330.442C52.8663 330.476 52.6783 330.495 52.4527 330.498C52.083 330.504 51.7383 330.439 51.4187 330.301C51.0991 330.163 50.8406 329.95 50.6432 329.661C50.4458 329.373 50.3471 329.011 50.3471 328.576V321.455ZM59.8552 330.404L57.7308 323.185H59.1831L60.5978 328.486H60.6683L62.0876 323.185H63.5399L64.9499 328.463H65.0204L66.4257 323.185H67.878L65.7583 330.404H64.3248L62.8584 325.192H62.7503L61.284 330.404H59.8552ZM69.2116 330.404V323.185H70.6169V330.404H69.2116ZM69.9213 322.071C69.6769 322.071 69.467 321.99 69.2915 321.827C69.1192 321.661 69.033 321.463 69.033 321.234C69.033 321.003 69.1192 320.805 69.2915 320.642C69.467 320.476 69.6769 320.393 69.9213 320.393C70.1657 320.393 70.3741 320.476 70.5464 320.642C70.7219 320.805 70.8096 321.003 70.8096 321.234C70.8096 321.463 70.7219 321.661 70.5464 321.827C70.3741 321.99 70.1657 322.071 69.9213 322.071ZM75.8773 323.185V324.313H71.9341V323.185H75.8773ZM72.9916 321.455H74.3968V328.284C74.3968 328.557 74.4376 328.762 74.519 328.9C74.6005 329.035 74.7055 329.127 74.8339 329.177C74.9655 329.224 75.1081 329.248 75.2616 329.248C75.3744 329.248 75.4731 329.24 75.5577 329.224C75.6423 329.209 75.7081 329.196 75.7551 329.187L76.0089 330.348C75.9275 330.379 75.8115 330.41 75.6611 330.442C75.5107 330.476 75.3227 330.495 75.0971 330.498C74.7274 330.504 74.3827 330.439 74.0631 330.301C73.7435 330.163 73.4851 329.95 73.2877 329.661C73.0903 329.373 72.9916 329.011 72.9916 328.576V321.455ZM78.9922 326.118V330.404H77.5869V320.779H78.9734V324.36H79.0627C79.2319 323.971 79.4904 323.663 79.8382 323.434C80.186 323.205 80.6404 323.091 81.2012 323.091C81.6963 323.091 82.1287 323.193 82.4984 323.396C82.8713 323.6 83.1595 323.904 83.3632 324.308C83.57 324.709 83.6734 325.211 83.6734 325.812V330.404H82.2681V325.981C82.2681 325.452 82.1318 325.041 81.8592 324.75C81.5866 324.455 81.2075 324.308 80.7218 324.308C80.3897 324.308 80.092 324.379 79.8288 324.52C79.5688 324.661 79.3635 324.867 79.2131 325.14C79.0659 325.41 78.9922 325.735 78.9922 326.118ZM89.1641 330.404V320.779H90.6164V325.375H90.7339L94.7712 320.779H96.5995L92.7173 325.112L96.6136 330.404H94.8652L91.7538 326.104L90.6164 327.41V330.404H89.1641ZM99.2455 320.779V330.404H97.8403V320.779H99.2455ZM103.237 330.564C102.78 330.564 102.366 330.479 101.996 330.31C101.626 330.138 101.333 329.889 101.117 329.563C100.904 329.237 100.798 328.837 100.798 328.364C100.798 327.957 100.876 327.622 101.033 327.358C101.189 327.095 101.401 326.887 101.667 326.733C101.934 326.58 102.231 326.464 102.56 326.386C102.889 326.307 103.224 326.248 103.566 326.207C103.998 326.157 104.349 326.116 104.619 326.085C104.888 326.05 105.084 325.995 105.206 325.92C105.328 325.845 105.39 325.723 105.39 325.554V325.521C105.39 325.11 105.274 324.792 105.042 324.567C104.813 324.341 104.472 324.228 104.017 324.228C103.544 324.228 103.171 324.333 102.899 324.543C102.629 324.75 102.443 324.98 102.339 325.234L101.019 324.933C101.175 324.495 101.404 324.141 101.705 323.871C102.009 323.599 102.358 323.401 102.753 323.279C103.148 323.154 103.563 323.091 103.998 323.091C104.287 323.091 104.592 323.125 104.915 323.194C105.241 323.26 105.545 323.382 105.827 323.561C106.112 323.74 106.345 323.995 106.527 324.327C106.709 324.656 106.8 325.084 106.8 325.61V330.404H105.427V329.417H105.371C105.28 329.599 105.144 329.777 104.962 329.953C104.78 330.128 104.547 330.274 104.262 330.39C103.976 330.506 103.635 330.564 103.237 330.564ZM103.542 329.436C103.931 329.436 104.263 329.359 104.539 329.206C104.818 329.052 105.029 328.851 105.173 328.604C105.321 328.353 105.394 328.085 105.394 327.8V326.87C105.344 326.92 105.247 326.967 105.103 327.011C104.962 327.051 104.801 327.087 104.619 327.119C104.437 327.147 104.26 327.174 104.088 327.199C103.915 327.221 103.771 327.239 103.655 327.255C103.383 327.29 103.134 327.348 102.908 327.429C102.686 327.51 102.507 327.628 102.372 327.781C102.241 327.932 102.175 328.132 102.175 328.383C102.175 328.731 102.303 328.994 102.56 329.173C102.817 329.348 103.145 329.436 103.542 329.436ZM108.671 330.404V323.185H110.03V324.332H110.105C110.236 323.943 110.468 323.638 110.8 323.415C111.136 323.19 111.515 323.077 111.938 323.077C112.026 323.077 112.129 323.08 112.248 323.086C112.37 323.092 112.466 323.1 112.535 323.11V324.454C112.478 324.438 112.378 324.421 112.234 324.402C112.09 324.38 111.946 324.369 111.801 324.369C111.469 324.369 111.173 324.44 110.913 324.581C110.656 324.719 110.453 324.911 110.302 325.159C110.152 325.403 110.077 325.682 110.077 325.995V330.404H108.671ZM116.604 330.55C115.892 330.55 115.28 330.398 114.766 330.094C114.255 329.787 113.86 329.356 113.582 328.801C113.306 328.244 113.168 327.59 113.168 326.841C113.168 326.102 113.306 325.45 113.582 324.886C113.86 324.322 114.249 323.882 114.747 323.566C115.249 323.249 115.834 323.091 116.505 323.091C116.912 323.091 117.307 323.158 117.689 323.293C118.072 323.428 118.415 323.639 118.719 323.928C119.023 324.216 119.262 324.59 119.438 325.051C119.613 325.508 119.701 326.064 119.701 326.719V327.217H113.962V326.165H118.324C118.324 325.795 118.249 325.468 118.098 325.182C117.948 324.894 117.736 324.667 117.464 324.501C117.194 324.335 116.878 324.252 116.514 324.252C116.12 324.252 115.775 324.349 115.48 324.543C115.189 324.734 114.963 324.985 114.804 325.295C114.647 325.602 114.569 325.936 114.569 326.296V327.119C114.569 327.601 114.653 328.012 114.822 328.35C114.995 328.689 115.234 328.947 115.541 329.126C115.849 329.301 116.207 329.389 116.618 329.389C116.884 329.389 117.127 329.351 117.346 329.276C117.566 329.198 117.755 329.082 117.915 328.928C118.075 328.775 118.197 328.585 118.282 328.36L119.612 328.599C119.505 328.991 119.314 329.334 119.038 329.629C118.766 329.92 118.423 330.147 118.009 330.31C117.598 330.47 117.13 330.55 116.604 330.55ZM122.665 326.118V330.404H121.26V323.185H122.609V324.36H122.698C122.864 323.978 123.124 323.671 123.479 323.439C123.836 323.207 124.285 323.091 124.827 323.091C125.319 323.091 125.75 323.194 126.12 323.401C126.49 323.605 126.776 323.909 126.98 324.313C127.184 324.717 127.286 325.217 127.286 325.812V330.404H125.88V325.981C125.88 325.458 125.744 325.049 125.471 324.755C125.199 324.457 124.824 324.308 124.348 324.308C124.022 324.308 123.732 324.379 123.479 324.52C123.228 324.661 123.029 324.867 122.882 325.14C122.738 325.41 122.665 325.735 122.665 326.118ZM132.211 330.55C131.512 330.55 130.911 330.392 130.406 330.075C129.905 329.755 129.52 329.315 129.25 328.754C128.981 328.194 128.846 327.551 128.846 326.827C128.846 326.094 128.984 325.447 129.259 324.886C129.535 324.322 129.924 323.882 130.425 323.566C130.926 323.249 131.517 323.091 132.197 323.091C132.745 323.091 133.234 323.193 133.663 323.396C134.093 323.597 134.439 323.879 134.702 324.242C134.968 324.606 135.127 325.03 135.177 325.516H133.809C133.734 325.178 133.562 324.886 133.292 324.642C133.026 324.398 132.669 324.275 132.22 324.275C131.829 324.275 131.486 324.379 131.191 324.586C130.9 324.789 130.673 325.081 130.51 325.46C130.347 325.836 130.265 326.281 130.265 326.794C130.265 327.321 130.345 327.775 130.505 328.157C130.665 328.54 130.89 328.836 131.182 329.046C131.476 329.256 131.823 329.361 132.22 329.361C132.487 329.361 132.728 329.312 132.944 329.215C133.164 329.115 133.347 328.972 133.494 328.787C133.645 328.602 133.75 328.38 133.809 328.12H135.177C135.127 328.587 134.975 329.003 134.721 329.37C134.467 329.737 134.127 330.025 133.701 330.235C133.278 330.445 132.781 330.55 132.211 330.55ZM139.791 330.55C139.08 330.55 138.467 330.398 137.953 330.094C137.443 329.787 137.048 329.356 136.769 328.801C136.493 328.244 136.355 327.59 136.355 326.841C136.355 326.102 136.493 325.45 136.769 324.886C137.048 324.322 137.436 323.882 137.934 323.566C138.436 323.249 139.022 323.091 139.692 323.091C140.1 323.091 140.494 323.158 140.877 323.293C141.259 323.428 141.602 323.639 141.906 323.928C142.21 324.216 142.45 324.59 142.625 325.051C142.8 325.508 142.888 326.064 142.888 326.719V327.217H137.15V326.165H141.511C141.511 325.795 141.436 325.468 141.286 325.182C141.135 324.894 140.924 324.667 140.651 324.501C140.382 324.335 140.065 324.252 139.702 324.252C139.307 324.252 138.962 324.349 138.668 324.543C138.376 324.734 138.151 324.985 137.991 325.295C137.834 325.602 137.756 325.936 137.756 326.296V327.119C137.756 327.601 137.84 328.012 138.01 328.35C138.182 328.689 138.422 328.947 138.729 329.126C139.036 329.301 139.395 329.389 139.805 329.389C140.071 329.389 140.314 329.351 140.534 329.276C140.753 329.198 140.942 329.082 141.102 328.928C141.262 328.775 141.384 328.585 141.469 328.36L142.799 328.599C142.692 328.991 142.501 329.334 142.226 329.629C141.953 329.92 141.61 330.147 141.196 330.31C140.786 330.47 140.317 330.55 139.791 330.55ZM146.276 329.088L146.205 329.6C146.158 329.976 146.078 330.368 145.966 330.775C145.856 331.186 145.741 331.567 145.622 331.917C145.506 332.268 145.411 332.547 145.336 332.754H144.339C144.38 332.56 144.436 332.297 144.509 331.964C144.581 331.635 144.651 331.267 144.72 330.86C144.789 330.453 144.841 330.037 144.875 329.614L144.922 329.088H146.276ZM152.496 333.111C152.286 333.111 152.095 333.094 151.923 333.06C151.75 333.028 151.622 332.994 151.537 332.956L151.876 331.805C152.133 331.874 152.361 331.903 152.562 331.894C152.762 331.885 152.939 331.809 153.093 331.668C153.25 331.527 153.388 331.297 153.507 330.977L153.68 330.498L151.039 323.185H152.543L154.371 328.787H154.447L156.275 323.185H157.784L154.808 331.368C154.671 331.744 154.495 332.062 154.282 332.322C154.069 332.585 153.815 332.782 153.521 332.914C153.226 333.045 152.885 333.111 152.496 333.111ZM161.9 330.55C161.223 330.55 160.632 330.395 160.128 330.084C159.623 329.774 159.232 329.34 158.953 328.783C158.674 328.225 158.534 327.573 158.534 326.827C158.534 326.079 158.674 325.424 158.953 324.863C159.232 324.302 159.623 323.866 160.128 323.556C160.632 323.246 161.223 323.091 161.9 323.091C162.576 323.091 163.167 323.246 163.671 323.556C164.176 323.866 164.568 324.302 164.846 324.863C165.125 325.424 165.265 326.079 165.265 326.827C165.265 327.573 165.125 328.225 164.846 328.783C164.568 329.34 164.176 329.774 163.671 330.084C163.167 330.395 162.576 330.55 161.9 330.55ZM161.904 329.37C162.343 329.37 162.706 329.254 162.995 329.022C163.283 328.79 163.496 328.482 163.634 328.096C163.775 327.711 163.845 327.286 163.845 326.823C163.845 326.362 163.775 325.939 163.634 325.554C163.496 325.165 163.283 324.853 162.995 324.618C162.706 324.383 162.343 324.266 161.904 324.266C161.462 324.266 161.096 324.383 160.804 324.618C160.516 324.853 160.302 325.165 160.161 325.554C160.023 325.939 159.954 326.362 159.954 326.823C159.954 327.286 160.023 327.711 160.161 328.096C160.302 328.482 160.516 328.79 160.804 329.022C161.096 329.254 161.462 329.37 161.904 329.37ZM171.406 327.41V323.185H172.816V330.404H171.435V329.154H171.359C171.193 329.539 170.927 329.86 170.56 330.117C170.197 330.371 169.744 330.498 169.202 330.498C168.738 330.498 168.328 330.396 167.971 330.193C167.617 329.986 167.338 329.68 167.134 329.276C166.934 328.872 166.833 328.372 166.833 327.777V323.185H168.239V327.608C168.239 328.1 168.375 328.491 168.648 328.783C168.92 329.074 169.274 329.22 169.71 329.22C169.973 329.22 170.235 329.154 170.495 329.022C170.758 328.891 170.976 328.692 171.148 328.425C171.323 328.159 171.41 327.821 171.406 327.41ZM174.705 330.404V323.185H176.063V324.332H176.138C176.27 323.943 176.502 323.638 176.834 323.415C177.169 323.19 177.548 323.077 177.971 323.077C178.059 323.077 178.162 323.08 178.281 323.086C178.403 323.092 178.499 323.1 178.568 323.11V324.454C178.512 324.438 178.411 324.421 178.267 324.402C178.123 324.38 177.979 324.369 177.835 324.369C177.503 324.369 177.207 324.44 176.946 324.581C176.69 324.719 176.486 324.911 176.335 325.159C176.185 325.403 176.11 325.682 176.11 325.995V330.404H174.705ZM184.213 330.404H182.671L186.135 320.779H187.813L191.277 330.404H189.735L187.014 322.527H186.939L184.213 330.404ZM184.471 326.635H189.472V327.857H184.471V326.635ZM194.119 320.779V330.404H192.667V320.779H194.119ZM199.624 333.111V323.185H200.996V324.355H201.114C201.195 324.205 201.313 324.031 201.466 323.834C201.62 323.636 201.833 323.464 202.105 323.317C202.378 323.166 202.738 323.091 203.186 323.091C203.769 323.091 204.289 323.238 204.747 323.533C205.204 323.827 205.563 324.252 205.823 324.806C206.086 325.361 206.218 326.028 206.218 326.809C206.218 327.589 206.088 328.258 205.828 328.815C205.568 329.37 205.21 329.798 204.756 330.099C204.302 330.396 203.783 330.545 203.2 330.545C202.762 330.545 202.403 330.471 202.124 330.324C201.848 330.177 201.632 330.005 201.476 329.807C201.319 329.61 201.198 329.434 201.114 329.281H201.029V333.111H199.624ZM201.001 326.794C201.001 327.302 201.075 327.747 201.222 328.129C201.369 328.512 201.582 328.811 201.861 329.027C202.14 329.24 202.481 329.347 202.886 329.347C203.305 329.347 203.656 329.235 203.938 329.013C204.22 328.787 204.433 328.482 204.578 328.096C204.725 327.711 204.798 327.277 204.798 326.794C204.798 326.318 204.726 325.891 204.582 325.511C204.441 325.132 204.228 324.833 203.943 324.614C203.661 324.394 203.309 324.285 202.886 324.285C202.478 324.285 202.134 324.39 201.852 324.6C201.573 324.81 201.361 325.102 201.217 325.478C201.073 325.854 201.001 326.293 201.001 326.794ZM209.893 330.564C209.436 330.564 209.022 330.479 208.652 330.31C208.283 330.138 207.99 329.889 207.774 329.563C207.56 329.237 207.454 328.837 207.454 328.364C207.454 327.957 207.532 327.622 207.689 327.358C207.846 327.095 208.057 326.887 208.323 326.733C208.59 326.58 208.887 326.464 209.216 326.386C209.545 326.307 209.881 326.248 210.222 326.207C210.655 326.157 211.006 326.116 211.275 326.085C211.544 326.05 211.74 325.995 211.862 325.92C211.985 325.845 212.046 325.723 212.046 325.554V325.521C212.046 325.11 211.93 324.792 211.698 324.567C211.469 324.341 211.128 324.228 210.673 324.228C210.2 324.228 209.827 324.333 209.555 324.543C209.285 324.75 209.099 324.98 208.996 325.234L207.675 324.933C207.831 324.495 208.06 324.141 208.361 323.871C208.665 323.599 209.014 323.401 209.409 323.279C209.804 323.154 210.219 323.091 210.655 323.091C210.943 323.091 211.248 323.125 211.571 323.194C211.897 323.26 212.201 323.382 212.483 323.561C212.768 323.74 213.001 323.995 213.183 324.327C213.365 324.656 213.456 325.084 213.456 325.61V330.404H212.083V329.417H212.027C211.936 329.599 211.8 329.777 211.618 329.953C211.436 330.128 211.203 330.274 210.918 330.39C210.633 330.506 210.291 330.564 209.893 330.564ZM210.199 329.436C210.587 329.436 210.919 329.359 211.195 329.206C211.474 329.052 211.685 328.851 211.83 328.604C211.977 328.353 212.05 328.085 212.05 327.8V326.87C212 326.92 211.903 326.967 211.759 327.011C211.618 327.051 211.457 327.087 211.275 327.119C211.093 327.147 210.916 327.174 210.744 327.199C210.572 327.221 210.427 327.239 210.311 327.255C210.039 327.29 209.79 327.348 209.564 327.429C209.342 327.51 209.163 327.628 209.028 327.781C208.897 327.932 208.831 328.132 208.831 328.383C208.831 328.731 208.959 328.994 209.216 329.173C209.473 329.348 209.801 329.436 210.199 329.436ZM215.328 330.404V323.185H216.686V324.332H216.761C216.893 323.943 217.124 323.638 217.457 323.415C217.792 323.19 218.171 323.077 218.594 323.077C218.682 323.077 218.785 323.08 218.904 323.086C219.026 323.092 219.122 323.1 219.191 323.11V324.454C219.134 324.438 219.034 324.421 218.89 324.402C218.746 324.38 218.602 324.369 218.458 324.369C218.126 324.369 217.829 324.44 217.569 324.581C217.312 324.719 217.109 324.911 216.958 325.159C216.808 325.403 216.733 325.682 216.733 325.995V330.404H215.328ZM224.203 323.185V324.313H220.26V323.185H224.203ZM221.318 321.455H222.723V328.284C222.723 328.557 222.764 328.762 222.845 328.9C222.927 329.035 223.032 329.127 223.16 329.177C223.292 329.224 223.434 329.248 223.588 329.248C223.701 329.248 223.799 329.24 223.884 329.224C223.968 329.209 224.034 329.196 224.081 329.187L224.335 330.348C224.254 330.379 224.138 330.41 223.987 330.442C223.837 330.476 223.649 330.495 223.423 330.498C223.053 330.504 222.709 330.439 222.389 330.301C222.07 330.163 221.811 329.95 221.614 329.661C221.416 329.373 221.318 329.011 221.318 328.576V321.455ZM227.163 326.118V330.404H225.758V323.185H227.107V324.36H227.196C227.362 323.978 227.622 323.671 227.976 323.439C228.333 323.207 228.783 323.091 229.325 323.091C229.817 323.091 230.248 323.194 230.618 323.401C230.987 323.605 231.274 323.909 231.478 324.313C231.681 324.717 231.783 325.217 231.783 325.812V330.404H230.378V325.981C230.378 325.458 230.242 325.049 229.969 324.755C229.696 324.457 229.322 324.308 228.846 324.308C228.52 324.308 228.23 324.379 227.976 324.52C227.726 324.661 227.527 324.867 227.379 325.14C227.235 325.41 227.163 325.735 227.163 326.118ZM236.779 330.55C236.068 330.55 235.455 330.398 234.942 330.094C234.431 329.787 234.036 329.356 233.757 328.801C233.482 328.244 233.344 327.59 233.344 326.841C233.344 326.102 233.482 325.45 233.757 324.886C234.036 324.322 234.425 323.882 234.923 323.566C235.424 323.249 236.01 323.091 236.681 323.091C237.088 323.091 237.483 323.158 237.865 323.293C238.247 323.428 238.59 323.639 238.894 323.928C239.198 324.216 239.438 324.59 239.613 325.051C239.789 325.508 239.877 326.064 239.877 326.719V327.217H234.138V326.165H238.5C238.5 325.795 238.424 325.468 238.274 325.182C238.124 324.894 237.912 324.667 237.639 324.501C237.37 324.335 237.053 324.252 236.69 324.252C236.295 324.252 235.951 324.349 235.656 324.543C235.365 324.734 235.139 324.985 234.979 325.295C234.823 325.602 234.744 325.936 234.744 326.296V327.119C234.744 327.601 234.829 328.012 234.998 328.35C235.17 328.689 235.41 328.947 235.717 329.126C236.024 329.301 236.383 329.389 236.793 329.389C237.06 329.389 237.303 329.351 237.522 329.276C237.741 329.198 237.931 329.082 238.091 328.928C238.25 328.775 238.373 328.585 238.457 328.36L239.787 328.599C239.681 328.991 239.49 329.334 239.214 329.629C238.941 329.92 238.598 330.147 238.185 330.31C237.774 330.47 237.306 330.55 236.779 330.55ZM241.436 330.404V323.185H242.794V324.332H242.869C243.001 323.943 243.233 323.638 243.565 323.415C243.9 323.19 244.279 323.077 244.702 323.077C244.79 323.077 244.893 323.08 245.012 323.086C245.135 323.092 245.23 323.1 245.299 323.11V324.454C245.243 324.438 245.143 324.421 244.998 324.402C244.854 324.38 244.71 324.369 244.566 324.369C244.234 324.369 243.938 324.44 243.678 324.581C243.421 324.719 243.217 324.911 243.067 325.159C242.916 325.403 242.841 325.682 242.841 325.995V330.404H241.436ZM250.018 330.404V323.185H251.423V330.404H250.018ZM250.728 322.071C250.483 322.071 250.273 321.99 250.098 321.827C249.926 321.661 249.839 321.463 249.839 321.234C249.839 321.003 249.926 320.805 250.098 320.642C250.273 320.476 250.483 320.393 250.728 320.393C250.972 320.393 251.18 320.476 251.353 320.642C251.528 320.805 251.616 321.003 251.616 321.234C251.616 321.463 251.528 321.661 251.353 321.827C251.18 321.99 250.972 322.071 250.728 322.071ZM254.719 326.118V330.404H253.314V323.185H254.663V324.36H254.752C254.918 323.978 255.178 323.671 255.532 323.439C255.889 323.207 256.339 323.091 256.881 323.091C257.373 323.091 257.804 323.194 258.174 323.401C258.543 323.605 258.83 323.909 259.034 324.313C259.237 324.717 259.339 325.217 259.339 325.812V330.404H257.934V325.981C257.934 325.458 257.798 325.049 257.525 324.755C257.252 324.457 256.878 324.308 256.402 324.308C256.076 324.308 255.786 324.379 255.532 324.52C255.282 324.661 255.083 324.867 254.935 325.14C254.791 325.41 254.719 325.735 254.719 326.118ZM267.429 330.545C266.846 330.545 266.326 330.396 265.869 330.099C265.414 329.798 265.057 329.37 264.797 328.815C264.54 328.258 264.412 327.589 264.412 326.809C264.412 326.028 264.542 325.361 264.802 324.806C265.065 324.252 265.425 323.827 265.883 323.533C266.34 323.238 266.859 323.091 267.438 323.091C267.886 323.091 268.247 323.166 268.519 323.317C268.795 323.464 269.008 323.636 269.159 323.834C269.312 324.031 269.431 324.205 269.516 324.355H269.6V320.779H271.006V330.404H269.633V329.281H269.516C269.431 329.434 269.309 329.61 269.149 329.807C268.992 330.005 268.776 330.177 268.501 330.324C268.225 330.471 267.868 330.545 267.429 330.545ZM267.739 329.347C268.143 329.347 268.485 329.24 268.764 329.027C269.046 328.811 269.259 328.512 269.403 328.129C269.55 327.747 269.624 327.302 269.624 326.794C269.624 326.293 269.552 325.854 269.408 325.478C269.263 325.102 269.052 324.81 268.773 324.6C268.494 324.39 268.15 324.285 267.739 324.285C267.316 324.285 266.964 324.394 266.682 324.614C266.4 324.833 266.187 325.132 266.042 325.511C265.901 325.891 265.831 326.318 265.831 326.794C265.831 327.277 265.903 327.711 266.047 328.096C266.191 328.482 266.404 328.787 266.686 329.013C266.971 329.235 267.322 329.347 267.739 329.347ZM275.112 330.564C274.655 330.564 274.241 330.479 273.871 330.31C273.502 330.138 273.209 329.889 272.993 329.563C272.779 329.237 272.673 328.837 272.673 328.364C272.673 327.957 272.751 327.622 272.908 327.358C273.065 327.095 273.276 326.887 273.542 326.733C273.809 326.58 274.106 326.464 274.435 326.386C274.764 326.307 275.1 326.248 275.441 326.207C275.874 326.157 276.225 326.116 276.494 326.085C276.763 326.05 276.959 325.995 277.081 325.92C277.204 325.845 277.265 325.723 277.265 325.554V325.521C277.265 325.11 277.149 324.792 276.917 324.567C276.688 324.341 276.347 324.228 275.892 324.228C275.419 324.228 275.046 324.333 274.774 324.543C274.504 324.75 274.318 324.98 274.215 325.234L272.894 324.933C273.05 324.495 273.279 324.141 273.58 323.871C273.884 323.599 274.233 323.401 274.628 323.279C275.023 323.154 275.438 323.091 275.874 323.091C276.162 323.091 276.467 323.125 276.79 323.194C277.116 323.26 277.42 323.382 277.702 323.561C277.987 323.74 278.22 323.995 278.402 324.327C278.584 324.656 278.675 325.084 278.675 325.61V330.404H277.302V329.417H277.246C277.155 329.599 277.019 329.777 276.837 329.953C276.655 330.128 276.422 330.274 276.137 330.39C275.852 330.506 275.51 330.564 275.112 330.564ZM275.418 329.436C275.806 329.436 276.138 329.359 276.414 329.206C276.693 329.052 276.904 328.851 277.049 328.604C277.196 328.353 277.269 328.085 277.269 327.8V326.87C277.219 326.92 277.122 326.967 276.978 327.011C276.837 327.051 276.676 327.087 276.494 327.119C276.312 327.147 276.135 327.174 275.963 327.199C275.791 327.221 275.646 327.239 275.531 327.255C275.258 327.29 275.009 327.348 274.783 327.429C274.561 327.51 274.382 327.628 274.247 327.781C274.116 327.932 274.05 328.132 274.05 328.383C274.05 328.731 274.178 328.994 274.435 329.173C274.692 329.348 275.02 329.436 275.418 329.436ZM283.916 323.185V324.313H279.973V323.185H283.916ZM281.031 321.455H282.436V328.284C282.436 328.557 282.477 328.762 282.558 328.9C282.64 329.035 282.745 329.127 282.873 329.177C283.005 329.224 283.147 329.248 283.301 329.248C283.414 329.248 283.512 329.24 283.597 329.224C283.681 329.209 283.747 329.196 283.794 329.187L284.048 330.348C283.967 330.379 283.851 330.41 283.7 330.442C283.55 330.476 283.362 330.495 283.136 330.498C282.766 330.504 282.422 330.439 282.102 330.301C281.783 330.163 281.524 329.95 281.327 329.661C281.129 329.373 281.031 329.011 281.031 328.576V321.455ZM287.572 330.564C287.114 330.564 286.701 330.479 286.331 330.31C285.961 330.138 285.668 329.889 285.452 329.563C285.239 329.237 285.133 328.837 285.133 328.364C285.133 327.957 285.211 327.622 285.368 327.358C285.524 327.095 285.736 326.887 286.002 326.733C286.268 326.58 286.566 326.464 286.895 326.386C287.224 326.307 287.559 326.248 287.901 326.207C288.333 326.157 288.684 326.116 288.954 326.085C289.223 326.05 289.419 325.995 289.541 325.92C289.663 325.845 289.724 325.723 289.724 325.554V325.521C289.724 325.11 289.608 324.792 289.377 324.567C289.148 324.341 288.806 324.228 288.352 324.228C287.879 324.228 287.506 324.333 287.233 324.543C286.964 324.75 286.777 324.98 286.674 325.234L285.353 324.933C285.51 324.495 285.739 324.141 286.04 323.871C286.344 323.599 286.693 323.401 287.088 323.279C287.482 323.154 287.898 323.091 288.333 323.091C288.621 323.091 288.927 323.125 289.25 323.194C289.576 323.26 289.879 323.382 290.161 323.561C290.447 323.74 290.68 323.995 290.862 324.327C291.043 324.656 291.134 325.084 291.134 325.61V330.404H289.762V329.417H289.706C289.615 329.599 289.478 329.777 289.297 329.953C289.115 330.128 288.882 330.274 288.596 330.39C288.311 330.506 287.97 330.564 287.572 330.564ZM287.877 329.436C288.266 329.436 288.598 329.359 288.874 329.206C289.153 329.052 289.364 328.851 289.508 328.604C289.655 328.353 289.729 328.085 289.729 327.8V326.87C289.679 326.92 289.582 326.967 289.438 327.011C289.297 327.051 289.135 327.087 288.954 327.119C288.772 327.147 288.595 327.174 288.422 327.199C288.25 327.221 288.106 327.239 287.99 327.255C287.717 327.29 287.468 327.348 287.243 327.429C287.02 327.51 286.842 327.628 286.707 327.781C286.575 327.932 286.51 328.132 286.51 328.383C286.51 328.731 286.638 328.994 286.895 329.173C287.152 329.348 287.479 329.436 287.877 329.436ZM301.918 324.947L300.645 325.173C300.591 325.01 300.507 324.855 300.391 324.708C300.278 324.56 300.125 324.44 299.93 324.346C299.736 324.252 299.493 324.205 299.202 324.205C298.804 324.205 298.472 324.294 298.205 324.473C297.939 324.648 297.806 324.875 297.806 325.154C297.806 325.395 297.895 325.59 298.074 325.737C298.252 325.884 298.541 326.005 298.939 326.099L300.085 326.362C300.75 326.516 301.245 326.752 301.571 327.072C301.897 327.391 302.059 327.807 302.059 328.317C302.059 328.75 301.934 329.135 301.683 329.473C301.436 329.809 301.09 330.072 300.645 330.263C300.203 330.454 299.691 330.55 299.108 330.55C298.299 330.55 297.64 330.377 297.129 330.033C296.618 329.685 296.305 329.191 296.189 328.552L297.547 328.345C297.632 328.7 297.806 328.967 298.069 329.149C298.332 329.328 298.675 329.417 299.098 329.417C299.559 329.417 299.927 329.321 300.203 329.13C300.479 328.936 300.617 328.7 300.617 328.421C300.617 328.195 300.532 328.006 300.363 327.852C300.197 327.698 299.941 327.583 299.597 327.504L298.375 327.236C297.701 327.083 297.203 326.838 296.88 326.503C296.56 326.168 296.401 325.743 296.401 325.229C296.401 324.803 296.52 324.43 296.758 324.111C296.996 323.791 297.325 323.542 297.745 323.364C298.165 323.182 298.646 323.091 299.188 323.091C299.968 323.091 300.582 323.26 301.03 323.599C301.478 323.934 301.774 324.383 301.918 324.947ZM306.645 330.55C305.947 330.55 305.345 330.392 304.841 330.075C304.339 329.755 303.954 329.315 303.684 328.754C303.415 328.194 303.28 327.551 303.28 326.827C303.28 326.094 303.418 325.447 303.694 324.886C303.97 324.322 304.358 323.882 304.859 323.566C305.361 323.249 305.951 323.091 306.631 323.091C307.18 323.091 307.668 323.193 308.098 323.396C308.527 323.597 308.873 323.879 309.136 324.242C309.403 324.606 309.561 325.03 309.611 325.516H308.243C308.168 325.178 307.996 324.886 307.726 324.642C307.46 324.398 307.103 324.275 306.655 324.275C306.263 324.275 305.92 324.379 305.626 324.586C305.334 324.789 305.107 325.081 304.944 325.46C304.781 325.836 304.7 326.281 304.7 326.794C304.7 327.321 304.78 327.775 304.939 328.157C305.099 328.54 305.325 328.836 305.616 329.046C305.911 329.256 306.257 329.361 306.655 329.361C306.921 329.361 307.162 329.312 307.379 329.215C307.598 329.115 307.781 328.972 307.929 328.787C308.079 328.602 308.184 328.38 308.243 328.12H309.611C309.561 328.587 309.409 329.003 309.155 329.37C308.901 329.737 308.561 330.025 308.135 330.235C307.712 330.445 307.216 330.55 306.645 330.55ZM311.114 330.404V323.185H312.519V330.404H311.114ZM311.824 322.071C311.579 322.071 311.369 321.99 311.194 321.827C311.021 321.661 310.935 321.463 310.935 321.234C310.935 321.003 311.021 320.805 311.194 320.642C311.369 320.476 311.579 320.393 311.824 320.393C312.068 320.393 312.276 320.476 312.449 320.642C312.624 320.805 312.712 321.003 312.712 321.234C312.712 321.463 312.624 321.661 312.449 321.827C312.276 321.99 312.068 322.071 311.824 322.071ZM317.521 330.55C316.81 330.55 316.197 330.398 315.683 330.094C315.173 329.787 314.778 329.356 314.499 328.801C314.223 328.244 314.085 327.59 314.085 326.841C314.085 326.102 314.223 325.45 314.499 324.886C314.778 324.322 315.166 323.882 315.665 323.566C316.166 323.249 316.752 323.091 317.422 323.091C317.83 323.091 318.225 323.158 318.607 323.293C318.989 323.428 319.332 323.639 319.636 323.928C319.94 324.216 320.18 324.59 320.355 325.051C320.531 325.508 320.618 326.064 320.618 326.719V327.217H314.88V326.165H319.241C319.241 325.795 319.166 325.468 319.016 325.182C318.865 324.894 318.654 324.667 318.381 324.501C318.112 324.335 317.795 324.252 317.432 324.252C317.037 324.252 316.692 324.349 316.398 324.543C316.106 324.734 315.881 324.985 315.721 325.295C315.564 325.602 315.486 325.936 315.486 326.296V327.119C315.486 327.601 315.571 328.012 315.74 328.35C315.912 328.689 316.152 328.947 316.459 329.126C316.766 329.301 317.125 329.389 317.535 329.389C317.802 329.389 318.044 329.351 318.264 329.276C318.483 329.198 318.673 329.082 318.832 328.928C318.992 328.775 319.114 328.585 319.199 328.36L320.529 328.599C320.423 328.991 320.231 329.334 319.956 329.629C319.683 329.92 319.34 330.147 318.926 330.31C318.516 330.47 318.048 330.55 317.521 330.55ZM323.583 326.118V330.404H322.178V323.185H323.526V324.36H323.616C323.782 323.978 324.042 323.671 324.396 323.439C324.753 323.207 325.203 323.091 325.745 323.091C326.237 323.091 326.668 323.194 327.037 323.401C327.407 323.605 327.694 323.909 327.897 324.313C328.101 324.717 328.203 325.217 328.203 325.812V330.404H326.798V325.981C326.798 325.458 326.661 325.049 326.389 324.755C326.116 324.457 325.742 324.308 325.265 324.308C324.94 324.308 324.65 324.379 324.396 324.52C324.145 324.661 323.946 324.867 323.799 325.14C323.655 325.41 323.583 325.735 323.583 326.118ZM333.129 330.55C332.43 330.55 331.828 330.392 331.324 330.075C330.822 329.755 330.437 329.315 330.168 328.754C329.898 328.194 329.763 327.551 329.763 326.827C329.763 326.094 329.901 325.447 330.177 324.886C330.453 324.322 330.841 323.882 331.343 323.566C331.844 323.249 332.434 323.091 333.114 323.091C333.663 323.091 334.152 323.193 334.581 323.396C335.01 323.597 335.356 323.879 335.619 324.242C335.886 324.606 336.044 325.03 336.094 325.516H334.726C334.651 325.178 334.479 324.886 334.21 324.642C333.943 324.398 333.586 324.275 333.138 324.275C332.746 324.275 332.403 324.379 332.109 324.586C331.817 324.789 331.59 325.081 331.427 325.46C331.264 325.836 331.183 326.281 331.183 326.794C331.183 327.321 331.263 327.775 331.422 328.157C331.582 328.54 331.808 328.836 332.099 329.046C332.394 329.256 332.74 329.361 333.138 329.361C333.404 329.361 333.646 329.312 333.862 329.215C334.081 329.115 334.264 328.972 334.412 328.787C334.562 328.602 334.667 328.38 334.726 328.12H336.094C336.044 328.587 335.892 329.003 335.638 329.37C335.384 329.737 335.045 330.025 334.618 330.235C334.195 330.445 333.699 330.55 333.129 330.55ZM340.708 330.55C339.997 330.55 339.385 330.398 338.871 330.094C338.36 329.787 337.965 329.356 337.686 328.801C337.411 328.244 337.273 327.59 337.273 326.841C337.273 326.102 337.411 325.45 337.686 324.886C337.965 324.322 338.354 323.882 338.852 323.566C339.353 323.249 339.939 323.091 340.61 323.091C341.017 323.091 341.412 323.158 341.794 323.293C342.176 323.428 342.519 323.639 342.823 323.928C343.127 324.216 343.367 324.59 343.542 325.051C343.718 325.508 343.806 326.064 343.806 326.719V327.217H338.067V326.165H342.429C342.429 325.795 342.353 325.468 342.203 325.182C342.053 324.894 341.841 324.667 341.568 324.501C341.299 324.335 340.983 324.252 340.619 324.252C340.224 324.252 339.88 324.349 339.585 324.543C339.294 324.734 339.068 324.985 338.908 325.295C338.752 325.602 338.673 325.936 338.673 326.296V327.119C338.673 327.601 338.758 328.012 338.927 328.35C339.099 328.689 339.339 328.947 339.646 329.126C339.953 329.301 340.312 329.389 340.722 329.389C340.989 329.389 341.232 329.351 341.451 329.276C341.67 329.198 341.86 329.082 342.02 328.928C342.179 328.775 342.302 328.585 342.386 328.36L343.716 328.599C343.61 328.991 343.419 329.334 343.143 329.629C342.87 329.92 342.527 330.147 342.114 330.31C341.703 330.47 341.235 330.55 340.708 330.55ZM346.291 330.493C346.034 330.493 345.813 330.402 345.628 330.221C345.443 330.036 345.351 329.813 345.351 329.553C345.351 329.296 345.443 329.077 345.628 328.895C345.813 328.711 346.034 328.618 346.291 328.618C346.548 328.618 346.769 328.711 346.953 328.895C347.138 329.077 347.231 329.296 347.231 329.553C347.231 329.726 347.187 329.884 347.099 330.028C347.015 330.169 346.902 330.282 346.761 330.366C346.62 330.451 346.463 330.493 346.291 330.493ZM350.039 330.493C349.782 330.493 349.561 330.402 349.376 330.221C349.191 330.036 349.099 329.813 349.099 329.553C349.099 329.296 349.191 329.077 349.376 328.895C349.561 328.711 349.782 328.618 350.039 328.618C350.296 328.618 350.517 328.711 350.702 328.895C350.887 329.077 350.979 329.296 350.979 329.553C350.979 329.726 350.935 329.884 350.847 330.028C350.763 330.169 350.65 330.282 350.509 330.366C350.368 330.451 350.211 330.493 350.039 330.493ZM353.787 330.493C353.53 330.493 353.309 330.402 353.125 330.221C352.94 330.036 352.847 329.813 352.847 329.553C352.847 329.296 352.94 329.077 353.125 328.895C353.309 328.711 353.53 328.618 353.787 328.618C354.044 328.618 354.265 328.711 354.45 328.895C354.635 329.077 354.727 329.296 354.727 329.553C354.727 329.726 354.683 329.884 354.596 330.028C354.511 330.169 354.398 330.282 354.257 330.366C354.116 330.451 353.96 330.493 353.787 330.493Z" fill="#D8D8D8"></path><rect x="12.8174" y="305.532" width="430.14" height="40.6506" rx="7.09023" stroke="#F1F1F1" stroke-width="0.945364"></rect></g></g><rect x="0.682554" y="-764.317" width="1634.22" height="1122.63" rx="13.0153" stroke="#D8D8D8" stroke-width="0.634893"></rect><defs><clipPath id="clip0_3087_2610"><path d="M1 -697.971H1634.59V358H14.4499C7.0217 358 1 351.978 1 344.55V-697.971Z" fill="white"></path></clipPath><clipPath id="clip1_3087_2610"><rect x="1" y="-697.971" width="1633.59" height="1055.97" rx="9.45364" fill="white"></rect></clipPath><clipPath id="clip2_3087_2610"><rect x="44" y="191.784" width="364" height="33.6076" rx="4" fill="white"></rect></clipPath><clipPath id="clip3_3087_2610"><rect width="843" height="40" fill="white" transform="translate(44 191.784)"></rect></clipPath><clipPath id="clip4_3087_2610"><rect width="16" height="16" fill="white" transform="translate(50 215.784) rotate(-90)"></rect></clipPath></defs></svg>