<svg xmlns="http://www.w3.org/2000/svg" width="175" height="34" viewBox="0 0 175 34" fill="none"><path fill-rule="evenodd" clip-rule="evenodd" d="M3 3.53427C3 3.20666 3.26559 2.94107 3.5932 2.94107H30.5247C30.8523 2.94107 31.1179 3.20666 31.1179 3.53427V30.4657C31.1179 30.7933 30.8523 31.0589 30.5247 31.0589H3.5932C3.26559 31.0589 3 30.7933 3 30.4657V3.53427ZM5.13452 5.34197C5.13452 5.17817 5.26732 5.04537 5.43113 5.04537H28.7168C28.8806 5.04537 29.0134 5.17817 29.0134 5.34197V28.6276C29.0134 28.7914 28.8806 28.9242 28.7168 28.9242H5.43113C5.26732 28.9242 5.13452 28.7914 5.13452 28.6276V5.34197ZM26.7493 22.7635C26.9692 20.0961 25.2188 19.0432 22.8016 18.8187C20.3845 18.5941 19.074 20.3032 18.854 22.7635C18.6657 24.8694 20.2387 26.7083 22.8016 26.7083C24.9516 26.7083 26.5245 25.4884 26.7493 22.7635Z" fill="#3A3A3A"></path><path d="M49.4815 24H44.5525V9.45455H49.5809C51.0251 9.45455 52.2656 9.74574 53.3025 10.3281C54.3442 10.9058 55.1444 11.7367 55.7031 12.821C56.2618 13.9053 56.5412 15.2027 56.5412 16.7131C56.5412 18.2282 56.2594 19.5303 55.696 20.6193C55.1373 21.7083 54.33 22.544 53.2741 23.1264C52.223 23.7088 50.9588 24 49.4815 24ZM47.1875 21.7202H49.3537C50.3669 21.7202 51.2121 21.5355 51.8892 21.1662C52.5663 20.7921 53.0752 20.2358 53.4162 19.4972C53.7571 18.7538 53.9275 17.8258 53.9275 16.7131C53.9275 15.6004 53.7571 14.6771 53.4162 13.9432C53.0752 13.2045 52.571 12.6529 51.9034 12.2884C51.2405 11.919 50.4166 11.7344 49.4318 11.7344H47.1875V21.7202ZM60.1314 24H57.3189L62.4396 9.45455H65.6924L70.8203 24H68.0078L64.1228 12.4375H64.0092L60.1314 24ZM60.2237 18.2969H67.8941V20.4134H60.2237V18.2969ZM70.3391 11.6634V9.45455H81.9442V11.6634H77.4485V24H74.8348V11.6634H70.3391ZM84.2915 24H81.479L86.5998 9.45455H89.8526L94.9804 24H92.1679L88.283 12.4375H88.1694L84.2915 24ZM84.3838 18.2969H92.0543V20.4134H84.3838V18.2969ZM96.8963 9.45455H100.121L104.439 19.9943H104.609L108.928 9.45455H112.152V24H109.624V14.0071H109.489L105.469 23.9574H103.58L99.5596 13.9858H99.4247V24H96.8963V9.45455ZM128.018 16.7273C128.018 18.2945 127.725 19.6368 127.138 20.7543C126.555 21.867 125.76 22.7192 124.751 23.3111C123.748 23.9029 122.609 24.1989 121.335 24.1989C120.062 24.1989 118.92 23.9029 117.912 23.3111C116.908 22.7145 116.113 21.8598 115.526 20.7472C114.943 19.6297 114.652 18.2898 114.652 16.7273C114.652 15.16 114.943 13.8201 115.526 12.7074C116.113 11.59 116.908 10.7353 117.912 10.1435C118.92 9.55161 120.062 9.25568 121.335 9.25568C122.609 9.25568 123.748 9.55161 124.751 10.1435C125.76 10.7353 126.555 11.59 127.138 12.7074C127.725 13.8201 128.018 15.16 128.018 16.7273ZM125.369 16.7273C125.369 15.6241 125.196 14.6937 124.851 13.9361C124.51 13.1738 124.036 12.5985 123.43 12.2102C122.824 11.8172 122.126 11.6207 121.335 11.6207C120.544 11.6207 119.846 11.8172 119.24 12.2102C118.634 12.5985 118.158 13.1738 117.812 13.9361C117.472 14.6937 117.301 15.6241 117.301 16.7273C117.301 17.8305 117.472 18.7633 117.812 19.5256C118.158 20.2831 118.634 20.8584 119.24 21.2514C119.846 21.6397 120.544 21.8338 121.335 21.8338C122.126 21.8338 122.824 21.6397 123.43 21.2514C124.036 20.8584 124.51 20.2831 124.851 19.5256C125.196 18.7633 125.369 17.8305 125.369 16.7273ZM129.226 11.6634V9.45455H140.831V11.6634H136.335V24H133.722V11.6634H129.226ZM142.429 11.6634V9.45455H154.034V11.6634H149.538V24H146.925V11.6634H142.429ZM168.624 16.7273C168.624 18.2945 168.33 19.6368 167.743 20.7543C167.161 21.867 166.365 22.7192 165.357 23.3111C164.353 23.9029 163.214 24.1989 161.941 24.1989C160.667 24.1989 159.526 23.9029 158.517 23.3111C157.514 22.7145 156.718 21.8598 156.131 20.7472C155.549 19.6297 155.257 18.2898 155.257 16.7273C155.257 15.16 155.549 13.8201 156.131 12.7074C156.718 11.59 157.514 10.7353 158.517 10.1435C159.526 9.55161 160.667 9.25568 161.941 9.25568C163.214 9.25568 164.353 9.55161 165.357 10.1435C166.365 10.7353 167.161 11.59 167.743 12.7074C168.33 13.8201 168.624 15.16 168.624 16.7273ZM165.975 16.7273C165.975 15.6241 165.802 14.6937 165.456 13.9361C165.115 13.1738 164.642 12.5985 164.036 12.2102C163.43 11.8172 162.731 11.6207 161.941 11.6207C161.15 11.6207 160.452 11.8172 159.845 12.2102C159.239 12.5985 158.764 13.1738 158.418 13.9361C158.077 14.6937 157.907 15.6241 157.907 16.7273C157.907 17.8305 158.077 18.7633 158.418 19.5256C158.764 20.2831 159.239 20.8584 159.845 21.2514C160.452 21.6397 161.15 21.8338 161.941 21.8338C162.731 21.8338 163.43 21.6397 164.036 21.2514C164.642 20.8584 165.115 20.2831 165.456 19.5256C165.802 18.7633 165.975 17.8305 165.975 16.7273Z" fill="#3A3A3A"></path></svg>